InriaSans-Italic.ufo
<glyph name="exclam" format="1">
  <advance width="280"/>
  <unicode hex="0021"/>
  <outline>
    <contour>
      <point x="161" y="182" type="line"/>
      <point x="213" y="430" type="line"/>
      <point x="257" y="680" type="line"/>
      <point x="175" y="680" type="line"/>
      <point x="131" y="430" type="line"/>
      <point x="95" y="182" type="line"/>
    </contour>
    <contour>
      <point x="142" y="0" type="line"/>
      <point x="158" y="91" type="line"/>
      <point x="66" y="91" type="line"/>
      <point x="50" y="0" type="line"/>
    </contour>
  </outline>
</glyph>
<glyph name="quotedbl" format="1">
  <advance width="353"/>
  <unicode hex="0022"/>
  <outline>
    <contour>
      <point x="155" y="430" type="line"/>
      <point x="198" y="602" type="line"/>
      <point x="212" y="680" type="line"/>
      <point x="132" y="680" type="line"/>
      <point x="118" y="602" type="line"/>
      <point x="101" y="430" type="line"/>
    </contour>
    <contour>
      <point x="316" y="430" type="line"/>
      <point x="359" y="602" type="line"/>
      <point x="373" y="680" type="line"/>
      <point x="293" y="680" type="line"/>
      <point x="279" y="602" type="line"/>
      <point x="262" y="430" type="line"/>
    </contour>
  </outline>
</glyph>
<glyph name="numbersign" format="1">
  <advance width="638"/>
  <unicode hex="0023"/>
  <outline>
    <contour>
      <point x="255" y="0" type="line"/>
      <point x="332" y="0" type="line"/>
      <point x="425" y="195" type="line"/>
      <point x="542" y="195" type="line"/>
      <point x="554" y="261" type="line"/>
      <point x="457" y="261" type="line"/>
      <point x="532" y="418" type="line"/>
      <point x="652" y="418" type="line"/>
      <point x="663" y="484" type="line"/>
      <point x="564" y="484" type="line"/>
      <point x="658" y="680" type="line"/>
      <point x="581" y="680" type="line"/>
      <point x="487" y="484" type="line"/>
      <point x="321" y="484" type="line"/>
      <point x="415" y="680" type="line"/>
      <point x="338" y="680" type="line"/>
      <point x="244" y="484" type="line"/>
      <point x="127" y="484" type="line"/>
      <point x="116" y="418" type="line"/>
      <point x="212" y="418" type="line"/>
      <point x="137" y="261" type="line"/>
      <point x="18" y="261" type="line"/>
      <point x="6" y="195" type="line"/>
      <point x="105" y="195" type="line"/>
      <point x="12" y="0" type="line"/>
      <point x="89" y="0" type="line"/>
      <point x="182" y="195" type="line"/>
      <point x="348" y="195" type="line"/>
    </contour>
    <contour>
      <point x="214" y="261" type="line"/>
      <point x="289" y="418" type="line"/>
      <point x="455" y="418" type="line"/>
      <point x="380" y="261" type="line"/>
    </contour>
  </outline>
</glyph>
<glyph name="dollar" format="1">
  <advance width="506"/>
  <unicode hex="0024"/>
  <outline>
    <contour>
      <point x="450" y="193" type="curve" smooth="yes"/>
      <point x="450" y="281"/>
      <point x="405" y="333"/>
      <point x="328" y="367" type="curve" smooth="yes"/>
      <point x="257" y="399" type="line" smooth="yes"/>
      <point x="199" y="425"/>
      <point x="177" y="453"/>
      <point x="177" y="498" type="curve" smooth="yes"/>
      <point x="177" y="567"/>
      <point x="224" y="611"/>
      <point x="313" y="611" type="curve" smooth="yes"/>
      <point x="362" y="611"/>
      <point x="408" y="598"/>
      <point x="465" y="571" type="curve"/>
      <point x="495" y="646" type="line"/>
      <point x="454" y="666"/>
      <point x="414" y="679"/>
      <point x="373" y="685" type="curve"/>
      <point x="396" y="813" type="line"/>
      <point x="316" y="813" type="line"/>
      <point x="294" y="690" type="line"/>
      <point x="148" y="683"/>
      <point x="87" y="596"/>
      <point x="87" y="493" type="curve" smooth="yes"/>
      <point x="87" y="412"/>
      <point x="124" y="360"/>
      <point x="206" y="324" type="curve" smooth="yes"/>
      <point x="278" y="292" type="line" smooth="yes"/>
      <point x="334" y="267"/>
      <point x="359" y="235"/>
      <point x="359" y="186" type="curve" smooth="yes"/>
      <point x="359" y="114"/>
      <point x="307" y="68"/>
      <point x="208" y="68" type="curve" smooth="yes"/>
      <point x="153" y="68"/>
      <point x="102" y="81"/>
      <point x="35" y="113" type="curve"/>
      <point x="5" y="38" type="line"/>
      <point x="62" y="10"/>
      <point x="117" y="-4"/>
      <point x="171" y="-9" type="curve"/>
      <point x="150" y="-133" type="line"/>
      <point x="230" y="-133" type="line"/>
      <point x="251" y="-8" type="line"/>
      <point x="395" y="7"/>
      <point x="450" y="96"/>
    </contour>
  </outline>
</glyph>
<glyph name="ampersand" format="1">
  <advance width="566"/>
  <unicode hex="0026"/>
  <outline>
    <contour>
      <point x="457" y="187" type="curve" smooth="yes"/>
      <point x="457" y="238"/>
      <point x="438" y="284"/>
      <point x="403" y="325" type="curve"/>
      <point x="417" y="328" type="line" smooth="yes"/>
      <point x="485" y="342"/>
      <point x="532" y="355"/>
      <point x="582" y="375" type="curve"/>
      <point x="557" y="449" type="line"/>
      <point x="512" y="428"/>
      <point x="461" y="412"/>
      <point x="370" y="392" type="curve" smooth="yes"/>
      <point x="270" y="370" type="line"/>
      <point x="205" y="430"/>
      <point x="185" y="479"/>
      <point x="185" y="524" type="curve" smooth="yes"/>
      <point x="185" y="594"/>
      <point x="233" y="616"/>
      <point x="287" y="616" type="curve" smooth="yes"/>
      <point x="364" y="616"/>
      <point x="400" y="569"/>
      <point x="374" y="478" type="curve"/>
      <point x="454" y="493" type="line"/>
      <point x="489" y="596"/>
      <point x="426" y="690"/>
      <point x="288" y="690" type="curve" smooth="yes"/>
      <point x="176" y="690"/>
      <point x="101" y="631"/>
      <point x="101" y="528" type="curve" smooth="yes"/>
      <point x="101" y="457"/>
      <point x="139" y="399"/>
      <point x="195" y="352" type="curve"/>
      <point x="71" y="316"/>
      <point x="11" y="253"/>
      <point x="11" y="157" type="curve" smooth="yes"/>
      <point x="11" y="47"/>
      <point x="91" y="-10"/>
      <point x="215" y="-10" type="curve" smooth="yes"/>
      <point x="352" y="-10"/>
      <point x="457" y="60"/>
    </contour>
    <contour>
      <point x="95" y="161" type="curve" smooth="yes"/>
      <point x="95" y="230"/>
      <point x="144" y="270"/>
      <point x="270" y="297" type="curve" smooth="yes"/>
      <point x="332" y="310" type="line"/>
      <point x="360" y="272"/>
      <point x="374" y="231"/>
      <point x="374" y="194" type="curve" smooth="yes"/>
      <point x="374" y="111"/>
      <point x="308" y="65"/>
      <point x="217" y="65" type="curve" smooth="yes"/>
      <point x="144" y="65"/>
      <point x="95" y="95"/>
    </contour>
  </outline>
</glyph>
<glyph name="quotesingle" format="1">
  <advance width="192"/>
  <unicode hex="0027"/>
  <outline>
    <contour>
      <point x="155" y="430" type="line"/>
      <point x="198" y="602" type="line"/>
      <point x="212" y="680" type="line"/>
      <point x="132" y="680" type="line"/>
      <point x="118" y="602" type="line"/>
      <point x="101" y="430" type="line"/>
    </contour>
  </outline>
</glyph>
<glyph name="parenleft" format="1">
  <advance width="316"/>
  <unicode hex="0028"/>
  <outline>
    <contour>
      <point x="145" y="193" type="curve" smooth="yes"/>
      <point x="145" y="217" type="line" smooth="yes"/>
      <point x="145" y="405"/>
      <point x="235" y="555"/>
      <point x="391" y="687" type="curve"/>
      <point x="346" y="750" type="line"/>
      <point x="155" y="598"/>
      <point x="62" y="407"/>
      <point x="62" y="222" type="curve" smooth="yes"/>
      <point x="62" y="195" type="line" smooth="yes"/>
      <point x="62" y="81"/>
      <point x="105" y="-51"/>
      <point x="187" y="-153" type="curve"/>
      <point x="250" y="-104" type="line"/>
      <point x="181" y="-14"/>
      <point x="145" y="95"/>
    </contour>
  </outline>
</glyph>
<glyph name="parenright" format="1">
  <advance width="315"/>
  <unicode hex="0029"/>
  <outline>
    <contour>
      <point x="188" y="379" type="line" smooth="yes"/>
      <point x="188" y="191"/>
      <point x="97" y="41"/>
      <point x="-58" y="-90" type="curve"/>
      <point x="-12" y="-153" type="line"/>
      <point x="178" y="-1"/>
      <point x="271" y="190"/>
      <point x="271" y="374" type="curve" smooth="yes"/>
      <point x="271" y="401" type="line" smooth="yes"/>
      <point x="271" y="516"/>
      <point x="227" y="648"/>
      <point x="145" y="750" type="curve"/>
      <point x="83" y="701" type="line"/>
      <point x="151" y="611"/>
      <point x="188" y="501"/>
      <point x="188" y="403" type="curve" smooth="yes"/>
    </contour>
  </outline>
</glyph>
<glyph name="asterisk" format="1">
  <advance width="406"/>
  <unicode hex="002A"/>
  <outline>
    <contour>
      <point x="362" y="339" type="line"/>
      <point x="348" y="367" type="line"/>
      <point x="274" y="476" type="line"/>
      <point x="406" y="476" type="line"/>
      <point x="437" y="481" type="line"/>
      <point x="427" y="554" type="line"/>
      <point x="395" y="550" type="line"/>
      <point x="270" y="515" type="line"/>
      <point x="309" y="639" type="line"/>
      <point x="315" y="670" type="line"/>
      <point x="242" y="683" type="line"/>
      <point x="236" y="652" type="line"/>
      <point x="231" y="521" type="line"/>
      <point x="124" y="597" type="line"/>
      <point x="96" y="612" type="line"/>
      <point x="62" y="547" type="line"/>
      <point x="90" y="532" type="line"/>
      <point x="213" y="487" type="line"/>
      <point x="107" y="409" type="line"/>
      <point x="84" y="388" type="line"/>
      <point x="136" y="334" type="line"/>
      <point x="159" y="355" type="line"/>
      <point x="240" y="459" type="line"/>
      <point x="281" y="335" type="line"/>
      <point x="295" y="306" type="line"/>
    </contour>
  </outline>
</glyph>
<glyph name="plus" format="1">
  <advance width="588"/>
  <unicode hex="002B"/>
  <outline>
    <contour>
      <point x="503" y="262" type="line"/>
      <point x="516" y="334" type="line"/>
      <point x="346" y="334" type="line"/>
      <point x="377" y="509" type="line"/>
      <point x="302" y="509" type="line"/>
      <point x="271" y="334" type="line"/>
      <point x="102" y="334" type="line"/>
      <point x="89" y="262" type="line"/>
      <point x="259" y="262" type="line"/>
      <point x="228" y="87" type="line"/>
      <point x="302" y="87" type="line"/>
      <point x="333" y="262" type="line"/>
    </contour>
  </outline>
</glyph>
<glyph name="comma" format="1">
  <advance width="192"/>
  <unicode hex="002C"/>
  <outline>
    <contour>
      <point x="109" y="91" type="line"/>
      <point x="27" y="91" type="line"/>
      <point x="6" y="-23"/>
      <point x="-13" y="-81"/>
      <point x="-75" y="-177" type="curve"/>
      <point x="-26" y="-208" type="line"/>
      <point x="50" y="-115"/>
      <point x="88" y="-36"/>
      <point x="106" y="72" type="curve" smooth="yes"/>
    </contour>
  </outline>
</glyph>
<glyph name="hyphen" format="1">
  <advance width="392"/>
  <unicode hex="002D"/>
  <outline>
    <contour>
      <point x="59" y="267" type="line"/>
      <point x="339" y="267" type="line"/>
      <point x="352" y="339" type="line"/>
      <point x="72" y="339" type="line"/>
    </contour>
  </outline>
</glyph>
<glyph name="period" format="1">
  <advance width="192"/>
  <unicode hex="002E"/>
  <outline>
    <contour>
      <point x="98" y="0" type="line"/>
      <point x="114" y="91" type="line"/>
      <point x="22" y="91" type="line"/>
      <point x="6" y="0" type="line"/>
    </contour>
  </outline>
</glyph>
<glyph name="slash" format="1">
  <advance width="364"/>
  <unicode hex="002F"/>
  <outline>
    <contour>
      <point x="373" y="740" type="line"/>
      <point x="-107" y="-143" type="line"/>
      <point x="-21" y="-143" type="line"/>
      <point x="459" y="740" type="line"/>
    </contour>
  </outline>
</glyph>
<glyph name="zero" format="1">
  <advance width="613"/>
  <unicode hex="0030"/>
  <outline>
    <contour>
      <point x="563" y="399" type="line" smooth="yes"/>
      <point x="595" y="578"/>
      <point x="514" y="690"/>
      <point x="368" y="690" type="curve" smooth="yes"/>
      <point x="223" y="690"/>
      <point x="136" y="592"/>
      <point x="105" y="417" type="curve" smooth="yes"/>
      <point x="81" y="282" type="line" smooth="yes"/>
      <point x="49" y="100"/>
      <point x="128" y="-10"/>
      <point x="277" y="-10" type="curve" smooth="yes"/>
      <point x="421" y="-10"/>
      <point x="508" y="86"/>
      <point x="540" y="264" type="curve" smooth="yes"/>
    </contour>
    <contour>
      <point x="475" y="399" type="curve" smooth="yes"/>
      <point x="452" y="264" type="line" smooth="yes"/>
      <point x="428" y="133"/>
      <point x="372" y="68"/>
      <point x="279" y="68" type="curve" smooth="yes"/>
      <point x="187" y="68"/>
      <point x="145" y="142"/>
      <point x="169" y="282" type="curve" smooth="yes"/>
      <point x="193" y="417" type="line" smooth="yes"/>
      <point x="216" y="546"/>
      <point x="273" y="611"/>
      <point x="364" y="611" type="curve" smooth="yes"/>
      <point x="457" y="611"/>
      <point x="500" y="537"/>
    </contour>
  </outline>
</glyph>
<glyph name="one" format="1">
  <advance width="366"/>
  <unicode hex="0031"/>
  <outline>
    <contour>
      <point x="78" y="586" type="line"/>
      <point x="106" y="518" type="line"/>
      <point x="234" y="585" type="line"/>
      <point x="131" y="0" type="line"/>
      <point x="216" y="0" type="line"/>
      <point x="336" y="680" type="line"/>
      <point x="257" y="680" type="line"/>
    </contour>
  </outline>
</glyph>
<glyph name="two" format="1">
  <advance width="496"/>
  <unicode hex="0032"/>
  <outline>
    <contour>
      <point x="410" y="79" type="line"/>
      <point x="106" y="79" type="line"/>
      <point x="124" y="167"/>
      <point x="154" y="216"/>
      <point x="230" y="252" type="curve" smooth="yes"/>
      <point x="301" y="286" type="line" smooth="yes"/>
      <point x="403" y="335"/>
      <point x="464" y="370"/>
      <point x="482" y="480" type="curve" smooth="yes"/>
      <point x="485" y="500" type="line" smooth="yes"/>
      <point x="502" y="601"/>
      <point x="443" y="690"/>
      <point x="298" y="690" type="curve" smooth="yes"/>
      <point x="243" y="690"/>
      <point x="183" y="677"/>
      <point x="110" y="647" type="curve"/>
      <point x="132" y="574" type="line"/>
      <point x="199" y="601"/>
      <point x="251" y="611"/>
      <point x="292" y="611" type="curve" smooth="yes"/>
      <point x="376" y="611"/>
      <point x="412" y="569"/>
      <point x="400" y="500" type="curve" smooth="yes"/>
      <point x="397" y="480" type="line" smooth="yes"/>
      <point x="387" y="418"/>
      <point x="347" y="393"/>
      <point x="272" y="358" type="curve" smooth="yes"/>
      <point x="201" y="323" type="line" smooth="yes"/>
      <point x="104" y="276"/>
      <point x="46" y="217"/>
      <point x="19" y="66" type="curve" smooth="yes"/>
      <point x="7" y="0" type="line"/>
      <point x="396" y="0" type="line"/>
    </contour>
  </outline>
</glyph>
<glyph name="three" format="1">
  <advance width="499"/>
  <unicode hex="0033"/>
  <outline>
    <contour>
      <point x="420" y="169" type="curve" smooth="yes"/>
      <point x="422" y="185" type="line" smooth="yes"/>
      <point x="434" y="257"/>
      <point x="409" y="309"/>
      <point x="360" y="338" type="curve"/>
      <point x="421" y="365"/>
      <point x="458" y="415"/>
      <point x="468" y="481" type="curve" smooth="yes"/>
      <point x="470" y="497" type="line" smooth="yes"/>
      <point x="487" y="609"/>
      <point x="432" y="690"/>
      <point x="289" y="690" type="curve" smooth="yes"/>
      <point x="233" y="690"/>
      <point x="168" y="677"/>
      <point x="97" y="646" type="curve"/>
      <point x="119" y="574" type="line"/>
      <point x="185" y="600"/>
      <point x="235" y="611"/>
      <point x="282" y="611" type="curve" smooth="yes"/>
      <point x="358" y="611"/>
      <point x="395" y="578"/>
      <point x="383" y="495" type="curve" smooth="yes"/>
      <point x="381" y="479" type="line" smooth="yes"/>
      <point x="372" y="419"/>
      <point x="328" y="381"/>
      <point x="252" y="381" type="curve" smooth="yes"/>
      <point x="152" y="381" type="line"/>
      <point x="138" y="305" type="line"/>
      <point x="238" y="305" type="line" smooth="yes"/>
      <point x="318" y="305"/>
      <point x="347" y="258"/>
      <point x="336" y="186" type="curve" smooth="yes"/>
      <point x="333" y="171" type="line" smooth="yes"/>
      <point x="321" y="97"/>
      <point x="266" y="68"/>
      <point x="184" y="68" type="curve" smooth="yes"/>
      <point x="135" y="68"/>
      <point x="84" y="78"/>
      <point x="25" y="106" type="curve"/>
      <point x="-4" y="34" type="line"/>
      <point x="59" y="3"/>
      <point x="121" y="-10"/>
      <point x="183" y="-10" type="curve" smooth="yes"/>
      <point x="336" y="-10"/>
      <point x="402" y="61"/>
    </contour>
  </outline>
</glyph>
<glyph name="four" format="1">
  <advance width="508"/>
  <unicode hex="0034"/>
  <outline>
    <contour>
      <point x="466" y="163" type="line"/>
      <point x="479" y="240" type="line"/>
      <point x="404" y="240" type="line"/>
      <point x="426" y="364" type="line"/>
      <point x="344" y="364" type="line"/>
      <point x="322" y="240" type="line"/>
      <point x="136" y="240" type="line"/>
      <point x="264" y="393"/>
      <point x="366" y="533"/>
      <point x="448" y="680" type="curve"/>
      <point x="349" y="680" type="line"/>
      <point x="267" y="531"/>
      <point x="159" y="387"/>
      <point x="29" y="230" type="curve"/>
      <point x="17" y="163" type="line"/>
      <point x="309" y="163" type="line"/>
      <point x="280" y="0" type="line"/>
      <point x="362" y="0" type="line"/>
      <point x="391" y="163" type="line"/>
    </contour>
  </outline>
</glyph>
<glyph name="five" format="1">
  <advance width="504"/>
  <unicode hex="0035"/>
  <outline>
    <contour>
      <point x="84" y="354" type="line"/>
      <point x="127" y="314" type="line"/>
      <point x="171" y="333"/>
      <point x="212" y="343"/>
      <point x="248" y="343" type="curve" smooth="yes"/>
      <point x="337" y="343"/>
      <point x="370" y="290"/>
      <point x="357" y="212" type="curve" smooth="yes"/>
      <point x="351" y="181" type="line" smooth="yes"/>
      <point x="338" y="101"/>
      <point x="281" y="68"/>
      <point x="199" y="68" type="curve" smooth="yes"/>
      <point x="149" y="68"/>
      <point x="100" y="78"/>
      <point x="41" y="107" type="curve"/>
      <point x="8" y="34" type="line"/>
      <point x="72" y="3"/>
      <point x="134" y="-10"/>
      <point x="196" y="-10" type="curve" smooth="yes"/>
      <point x="347" y="-10"/>
      <point x="419" y="63"/>
      <point x="439" y="181" type="curve" smooth="yes"/>
      <point x="445" y="212" type="line" smooth="yes"/>
      <point x="466" y="336"/>
      <point x="393" y="420"/>
      <point x="261" y="420" type="curve" smooth="yes"/>
      <point x="232" y="420"/>
      <point x="204" y="416"/>
      <point x="177" y="407" type="curve"/>
      <point x="223" y="600" type="line"/>
      <point x="486" y="600" type="line"/>
      <point x="500" y="680" type="line"/>
      <point x="161" y="680" type="line"/>
    </contour>
  </outline>
</glyph>
<glyph name="six" format="1">
  <advance width="563"/>
  <unicode hex="0036"/>
  <outline>
    <contour>
      <point x="501" y="187" type="curve" smooth="yes"/>
      <point x="507" y="218" type="line" smooth="yes"/>
      <point x="527" y="336"/>
      <point x="461" y="425"/>
      <point x="341" y="425" type="curve" smooth="yes"/>
      <point x="284" y="425"/>
      <point x="230" y="403"/>
      <point x="178" y="356" type="curve"/>
      <point x="191" y="426" type="line" smooth="yes"/>
      <point x="215" y="561"/>
      <point x="284" y="611"/>
      <point x="381" y="611" type="curve" smooth="yes"/>
      <point x="420" y="611"/>
      <point x="467" y="602"/>
      <point x="520" y="575" type="curve"/>
      <point x="553" y="648" type="line"/>
      <point x="491" y="679"/>
      <point x="433" y="690"/>
      <point x="380" y="690" type="curve" smooth="yes"/>
      <point x="234" y="690"/>
      <point x="141" y="610"/>
      <point x="109" y="426" type="curve" smooth="yes"/>
      <point x="84" y="287" type="line" smooth="yes"/>
      <point x="52" y="105"/>
      <point x="123" y="-10"/>
      <point x="275" y="-10" type="curve" smooth="yes"/>
      <point x="399" y="-10"/>
      <point x="480" y="63"/>
    </contour>
    <contour>
      <point x="323" y="348" type="curve" smooth="yes"/>
      <point x="404" y="348"/>
      <point x="436" y="293"/>
      <point x="423" y="217" type="curve" smooth="yes"/>
      <point x="418" y="187" type="line" smooth="yes"/>
      <point x="405" y="111"/>
      <point x="350" y="68"/>
      <point x="278" y="68" type="curve" smooth="yes"/>
      <point x="184" y="68"/>
      <point x="144" y="135"/>
      <point x="163" y="268" type="curve"/>
      <point x="212" y="324"/>
      <point x="272" y="348"/>
    </contour>
  </outline>
</glyph>
<glyph name="seven" format="1">
  <advance width="474"/>
  <unicode hex="0037"/>
  <outline>
    <contour>
      <point x="502" y="610" type="curve"/>
      <point x="515" y="680" type="line"/>
      <point x="104" y="680" type="line"/>
      <point x="89" y="600" type="line"/>
      <point x="403" y="600" type="line"/>
      <point x="272" y="401"/>
      <point x="173" y="202"/>
      <point x="102" y="0" type="curve"/>
      <point x="197" y="0" type="line"/>
      <point x="267" y="205"/>
      <point x="368" y="408"/>
    </contour>
  </outline>
</glyph>
<glyph name="eight" format="1">
  <advance width="561"/>
  <unicode hex="0038"/>
  <outline>
    <contour>
      <point x="488" y="193" type="curve" smooth="yes"/>
      <point x="488" y="263"/>
      <point x="456" y="307"/>
      <point x="399" y="342" type="curve"/>
      <point x="492" y="399"/>
      <point x="528" y="469"/>
      <point x="528" y="534" type="curve" smooth="yes"/>
      <point x="528" y="626"/>
      <point x="459" y="690"/>
      <point x="337" y="690" type="curve" smooth="yes"/>
      <point x="185" y="690"/>
      <point x="119" y="589"/>
      <point x="119" y="493" type="curve" smooth="yes"/>
      <point x="119" y="429"/>
      <point x="146" y="382"/>
      <point x="193" y="349" type="curve"/>
      <point x="87" y="292"/>
      <point x="45" y="215"/>
      <point x="45" y="146" type="curve" smooth="yes"/>
      <point x="45" y="65"/>
      <point x="109" y="-10"/>
      <point x="250" y="-10" type="curve" smooth="yes"/>
      <point x="421" y="-10"/>
      <point x="488" y="91"/>
    </contour>
    <contour>
      <point x="289" y="395" type="line" smooth="yes"/>
      <point x="230" y="422"/>
      <point x="205" y="452"/>
      <point x="205" y="500" type="curve" smooth="yes"/>
      <point x="205" y="575"/>
      <point x="263" y="614"/>
      <point x="335" y="614" type="curve" smooth="yes"/>
      <point x="403" y="614"/>
      <point x="441" y="580"/>
      <point x="441" y="521" type="curve" smooth="yes"/>
      <point x="441" y="479"/>
      <point x="422" y="428"/>
      <point x="339" y="372" type="curve"/>
    </contour>
    <contour>
      <point x="132" y="165" type="curve" smooth="yes"/>
      <point x="132" y="216"/>
      <point x="161" y="262"/>
      <point x="252" y="316" type="curve"/>
      <point x="305" y="292" type="line" smooth="yes"/>
      <point x="373" y="261"/>
      <point x="400" y="231"/>
      <point x="400" y="181" type="curve" smooth="yes"/>
      <point x="400" y="112"/>
      <point x="346" y="65"/>
      <point x="254" y="65" type="curve" smooth="yes"/>
      <point x="169" y="65"/>
      <point x="132" y="110"/>
    </contour>
  </outline>
</glyph>
<glyph name="nine" format="1">
  <advance width="564"/>
  <unicode hex="0039"/>
  <outline>
    <contour>
      <point x="488" y="253" type="curve" smooth="yes"/>
      <point x="512" y="392" type="line" smooth="yes"/>
      <point x="544" y="574"/>
      <point x="473" y="690"/>
      <point x="321" y="690" type="curve" smooth="yes"/>
      <point x="197" y="690"/>
      <point x="113" y="616"/>
      <point x="94" y="492" type="curve" smooth="yes"/>
      <point x="90" y="461" type="line" smooth="yes"/>
      <point x="71" y="343"/>
      <point x="135" y="254"/>
      <point x="255" y="254" type="curve" smooth="yes"/>
      <point x="312" y="254"/>
      <point x="366" y="276"/>
      <point x="417" y="322" type="curve"/>
      <point x="405" y="253" type="line" smooth="yes"/>
      <point x="381" y="118"/>
      <point x="313" y="68"/>
      <point x="216" y="68" type="curve" smooth="yes"/>
      <point x="176" y="68"/>
      <point x="130" y="78"/>
      <point x="76" y="104" type="curve"/>
      <point x="43" y="31" type="line"/>
      <point x="105" y="0"/>
      <point x="163" y="-10"/>
      <point x="217" y="-10" type="curve" smooth="yes"/>
      <point x="362" y="-10"/>
      <point x="456" y="69"/>
    </contour>
    <contour>
      <point x="173" y="462" type="curve" smooth="yes"/>
      <point x="178" y="492" type="line" smooth="yes"/>
      <point x="190" y="568"/>
      <point x="247" y="611"/>
      <point x="318" y="611" type="curve" smooth="yes"/>
      <point x="412" y="611"/>
      <point x="452" y="544"/>
      <point x="433" y="411" type="curve"/>
      <point x="384" y="356"/>
      <point x="325" y="331"/>
      <point x="273" y="331" type="curve" smooth="yes"/>
      <point x="192" y="331"/>
      <point x="161" y="386"/>
    </contour>
  </outline>
</glyph>
<glyph name="colon" format="1">
  <advance width="192"/>
  <unicode hex="003A"/>
  <outline>
    <contour>
      <point x="169" y="403" type="line"/>
      <point x="185" y="495" type="line"/>
      <point x="93" y="495" type="line"/>
      <point x="77" y="403" type="line"/>
    </contour>
    <contour>
      <point x="98" y="0" type="line"/>
      <point x="114" y="91" type="line"/>
      <point x="22" y="91" type="line"/>
      <point x="6" y="0" type="line"/>
    </contour>
  </outline>
</glyph>
<glyph name="less" format="1">
  <advance width="588"/>
  <unicode hex="003C"/>
  <outline>
    <contour>
      <point x="489" y="181" type="line"/>
      <point x="210" y="296" type="line"/>
      <point x="528" y="409" type="line"/>
      <point x="543" y="492" type="line"/>
      <point x="100" y="327" type="line"/>
      <point x="91" y="272" type="line"/>
      <point x="475" y="104" type="line"/>
    </contour>
  </outline>
</glyph>
<glyph name="equal" format="1">
  <advance width="588"/>
  <unicode hex="003D"/>
  <outline>
    <contour>
      <point x="107" y="366" type="line"/>
      <point x="521" y="366" type="line"/>
      <point x="534" y="438" type="line"/>
      <point x="120" y="438" type="line"/>
    </contour>
    <contour>
      <point x="72" y="166" type="line"/>
      <point x="486" y="166" type="line"/>
      <point x="499" y="238" type="line"/>
      <point x="85" y="238" type="line"/>
    </contour>
  </outline>
</glyph>
<glyph name="greater" format="1">
  <advance width="588"/>
  <unicode hex="003E"/>
  <outline>
    <contour>
      <point x="504" y="269" type="line"/>
      <point x="514" y="324" type="line"/>
      <point x="130" y="492" type="line"/>
      <point x="116" y="415" type="line"/>
      <point x="394" y="300" type="line"/>
      <point x="77" y="188" type="line"/>
      <point x="61" y="104" type="line"/>
    </contour>
  </outline>
</glyph>
<glyph name="question" format="1">
  <advance width="438"/>
  <unicode hex="003F"/>
  <outline>
    <contour>
      <point x="265" y="614" type="curve" smooth="yes"/>
      <point x="343" y="614"/>
      <point x="376" y="576"/>
      <point x="366" y="517" type="curve" smooth="yes"/>
      <point x="363" y="499" type="line" smooth="yes"/>
      <point x="354" y="450"/>
      <point x="329" y="423"/>
      <point x="292" y="391" type="curve" smooth="yes"/>
      <point x="254" y="358" type="line" smooth="yes"/>
      <point x="186" y="300"/>
      <point x="166" y="271"/>
      <point x="154" y="205" type="curve" smooth="yes"/>
      <point x="150" y="182" type="line"/>
      <point x="234" y="182" type="line"/>
      <point x="237" y="202" type="line" smooth="yes"/>
      <point x="244" y="241"/>
      <point x="256" y="261"/>
      <point x="303" y="301" type="curve" smooth="yes"/>
      <point x="340" y="334" type="line" smooth="yes"/>
      <point x="399" y="384"/>
      <point x="433" y="417"/>
      <point x="446" y="487" type="curve" smooth="yes"/>
      <point x="449" y="505" type="line" smooth="yes"/>
      <point x="468" y="606"/>
      <point x="413" y="690"/>
      <point x="270" y="690" type="curve" smooth="yes"/>
      <point x="214" y="690"/>
      <point x="149" y="676"/>
      <point x="80" y="647" type="curve"/>
      <point x="99" y="575" type="line"/>
      <point x="167" y="603"/>
      <point x="220" y="614"/>
    </contour>
    <contour>
      <point x="207" y="0" type="line"/>
      <point x="223" y="91" type="line"/>
      <point x="132" y="91" type="line"/>
      <point x="116" y="0" type="line"/>
    </contour>
  </outline>
</glyph>
<glyph name="at" format="1">
  <advance width="950"/>
  <unicode hex="0040"/>
  <outline>
    <contour>
      <point x="733" y="-167" type="curve"/>
      <point x="706" y="-99" type="line"/>
      <point x="637" y="-133"/>
      <point x="550" y="-153"/>
      <point x="471" y="-153" type="curve" smooth="yes"/>
      <point x="255" y="-153"/>
      <point x="128" y="-11"/>
      <point x="128" y="207" type="curve" smooth="yes"/>
      <point x="128" y="442"/>
      <point x="276" y="620"/>
      <point x="496" y="620" type="curve" smooth="yes"/>
      <point x="694" y="620"/>
      <point x="828" y="474"/>
      <point x="828" y="284" type="curve" smooth="yes"/>
      <point x="828" y="152"/>
      <point x="764" y="63"/>
      <point x="695" y="63" type="curve" smooth="yes"/>
      <point x="656" y="63"/>
      <point x="633" y="85"/>
      <point x="645" y="154" type="curve"/>
      <point x="689" y="405" type="line"/>
      <point x="629" y="443"/>
      <point x="567" y="467"/>
      <point x="502" y="467" type="curve" smooth="yes"/>
      <point x="383" y="467"/>
      <point x="310" y="391"/>
      <point x="290" y="258" type="curve" smooth="yes"/>
      <point x="282" y="203" type="line" smooth="yes"/>
      <point x="263" y="80"/>
      <point x="309" y="-10"/>
      <point x="403" y="-10" type="curve" smooth="yes"/>
      <point x="456" y="-10"/>
      <point x="511" y="14"/>
      <point x="568" y="78" type="curve"/>
      <point x="579" y="21"/>
      <point x="623" y="-5"/>
      <point x="687" y="-5" type="curve" smooth="yes"/>
      <point x="812" y="-5"/>
      <point x="906" y="119"/>
      <point x="906" y="284" type="curve" smooth="yes"/>
      <point x="906" y="514"/>
      <point x="739" y="690"/>
      <point x="496" y="690" type="curve" smooth="yes"/>
      <point x="230" y="690"/>
      <point x="50" y="482"/>
      <point x="50" y="207" type="curve" smooth="yes"/>
      <point x="50" y="-50"/>
      <point x="208" y="-223"/>
      <point x="471" y="-223" type="curve" smooth="yes"/>
      <point x="561" y="-223"/>
      <point x="655" y="-202"/>
    </contour>
    <contour>
      <point x="366" y="203" type="curve" smooth="yes"/>
      <point x="374" y="258" type="line" smooth="yes"/>
      <point x="387" y="342"/>
      <point x="428" y="393"/>
      <point x="508" y="393" type="curve" smooth="yes"/>
      <point x="538" y="393"/>
      <point x="567" y="384"/>
      <point x="600" y="366" type="curve"/>
      <point x="567" y="170" type="line"/>
      <point x="512" y="91"/>
      <point x="463" y="63"/>
      <point x="425" y="63" type="curve" smooth="yes"/>
      <point x="374" y="63"/>
      <point x="352" y="113"/>
    </contour>
  </outline>
</glyph>
<glyph name="A" format="1">
  <advance width="577"/>
  <unicode hex="0041"/>
  <outline>
    <contour>
      <point x="425" y="0" type="line"/>
      <point x="512" y="0" type="line"/>
      <point x="405" y="680" type="line"/>
      <point x="323" y="680" type="line"/>
      <point x="-22" y="0" type="line"/>
      <point x="67" y="0" type="line"/>
      <point x="146" y="158" type="line"/>
      <point x="402" y="158" type="line"/>
    </contour>
    <contour>
      <point x="243" y="354" type="line"/>
      <point x="345" y="562" type="line"/>
      <point x="373" y="354" type="line"/>
      <point x="390" y="237" type="line"/>
      <point x="185" y="237" type="line"/>
    </contour>
  </outline>
</glyph>
<glyph name="B" format="1">
  <advance width="586"/>
  <unicode hex="0042"/>
  <outline>
    <contour>
      <point x="62" y="0" type="line"/>
      <point x="298" y="0" type="line" smooth="yes"/>
      <point x="431" y="0"/>
      <point x="497" y="63"/>
      <point x="515" y="170" type="curve" smooth="yes"/>
      <point x="518" y="193" type="line" smooth="yes"/>
      <point x="530" y="262"/>
      <point x="504" y="319"/>
      <point x="445" y="347" type="curve"/>
      <point x="497" y="372"/>
      <point x="529" y="416"/>
      <point x="538" y="472" type="curve" smooth="yes"/>
      <point x="542" y="495" type="line" smooth="yes"/>
      <point x="560" y="605"/>
      <point x="497" y="680"/>
      <point x="372" y="680" type="curve" smooth="yes"/>
      <point x="182" y="680" type="line"/>
    </contour>
    <contour>
      <point x="368" y="600" type="line" smooth="yes"/>
      <point x="434" y="600"/>
      <point x="463" y="560"/>
      <point x="452" y="495" type="curve" smooth="yes"/>
      <point x="447" y="471" type="line" smooth="yes"/>
      <point x="438" y="417"/>
      <point x="397" y="385"/>
      <point x="330" y="385" type="curve" smooth="yes"/>
      <point x="217" y="385" type="line"/>
      <point x="255" y="600" type="line"/>
    </contour>
    <contour>
      <point x="341" y="305" type="line" smooth="yes"/>
      <point x="410" y="305"/>
      <point x="440" y="261"/>
      <point x="429" y="195" type="curve" smooth="yes"/>
      <point x="425" y="171" type="line" smooth="yes"/>
      <point x="415" y="113"/>
      <point x="371" y="79"/>
      <point x="301" y="79" type="curve" smooth="yes"/>
      <point x="163" y="79" type="line"/>
      <point x="203" y="305" type="line"/>
    </contour>
  </outline>
</glyph>
<glyph name="C" format="1">
  <advance width="533"/>
  <unicode hex="0043"/>
  <outline>
    <contour>
      <point x="172" y="281" type="curve" smooth="yes"/>
      <point x="194" y="411" type="line" smooth="yes"/>
      <point x="217" y="538"/>
      <point x="275" y="609"/>
      <point x="376" y="609" type="curve" smooth="yes"/>
      <point x="421" y="609"/>
      <point x="463" y="598"/>
      <point x="518" y="571" type="curve"/>
      <point x="549" y="648" type="line"/>
      <point x="491" y="677"/>
      <point x="434" y="690"/>
      <point x="380" y="690" type="curve" smooth="yes"/>
      <point x="219" y="690"/>
      <point x="136" y="594"/>
      <point x="104" y="411" type="curve" smooth="yes"/>
      <point x="82" y="281" type="line" smooth="yes"/>
      <point x="51" y="104"/>
      <point x="127" y="-10"/>
      <point x="281" y="-10" type="curve" smooth="yes"/>
      <point x="329" y="-10"/>
      <point x="393" y="-1"/>
      <point x="461" y="24" type="curve"/>
      <point x="440" y="99" type="line"/>
      <point x="376" y="75"/>
      <point x="326" y="70"/>
      <point x="290" y="70" type="curve" smooth="yes"/>
      <point x="187" y="70"/>
      <point x="148" y="147"/>
    </contour>
  </outline>
</glyph>
<glyph name="D" format="1">
  <advance width="637"/>
  <unicode hex="0044"/>
  <outline>
    <contour>
      <point x="62" y="0" type="line"/>
      <point x="283" y="0" type="line" smooth="yes"/>
      <point x="437" y="0"/>
      <point x="534" y="100"/>
      <point x="563" y="264" type="curve" smooth="yes"/>
      <point x="586" y="399" type="line" smooth="yes"/>
      <point x="616" y="564"/>
      <point x="533" y="680"/>
      <point x="376" y="680" type="curve" smooth="yes"/>
      <point x="182" y="680" type="line"/>
    </contour>
    <contour>
      <point x="372" y="598" type="line" smooth="yes"/>
      <point x="475" y="598"/>
      <point x="519" y="522"/>
      <point x="496" y="399" type="curve" smooth="yes"/>
      <point x="473" y="264" type="line" smooth="yes"/>
      <point x="452" y="148"/>
      <point x="386" y="81"/>
      <point x="286" y="81" type="curve" smooth="yes"/>
      <point x="163" y="81" type="line"/>
      <point x="255" y="598" type="line"/>
    </contour>
  </outline>
</glyph>
<glyph name="E" format="1">
  <advance width="531"/>
  <unicode hex="0045"/>
  <outline>
    <contour>
      <point x="456" y="81" type="line"/>
      <point x="163" y="81" type="line"/>
      <point x="203" y="303" type="line"/>
      <point x="455" y="303" type="line"/>
      <point x="470" y="385" type="line"/>
      <point x="217" y="385" type="line"/>
      <point x="255" y="598" type="line"/>
      <point x="537" y="598" type="line"/>
      <point x="552" y="680" type="line"/>
      <point x="182" y="680" type="line"/>
      <point x="62" y="0" type="line"/>
      <point x="442" y="0" type="line"/>
    </contour>
  </outline>
</glyph>
<glyph name="F" format="1">
  <advance width="506"/>
  <unicode hex="0046"/>
  <outline>
    <contour>
      <point x="446" y="286" type="line"/>
      <point x="461" y="368" type="line"/>
      <point x="214" y="368" type="line"/>
      <point x="255" y="598" type="line"/>
      <point x="531" y="598" type="line"/>
      <point x="546" y="680" type="line"/>
      <point x="182" y="680" type="line"/>
      <point x="62" y="0" type="line"/>
      <point x="149" y="0" type="line"/>
      <point x="200" y="286" type="line"/>
    </contour>
  </outline>
</glyph>
<glyph name="G" format="1">
  <advance width="604"/>
  <unicode hex="0047"/>
  <outline>
    <contour>
      <point x="499" y="41" type="curve"/>
      <point x="555" y="356" type="line"/>
      <point x="349" y="356" type="line"/>
      <point x="334" y="279" type="line"/>
      <point x="461" y="279" type="line"/>
      <point x="428" y="95" type="line"/>
      <point x="379" y="75"/>
      <point x="341" y="69"/>
      <point x="303" y="69" type="curve" smooth="yes"/>
      <point x="190" y="69"/>
      <point x="150" y="146"/>
      <point x="173" y="281" type="curve" smooth="yes"/>
      <point x="196" y="411" type="line" smooth="yes"/>
      <point x="218" y="538"/>
      <point x="282" y="609"/>
      <point x="392" y="609" type="curve" smooth="yes"/>
      <point x="439" y="609"/>
      <point x="490" y="600"/>
      <point x="551" y="571" type="curve"/>
      <point x="582" y="647" type="line"/>
      <point x="518" y="678"/>
      <point x="454" y="690"/>
      <point x="394" y="690" type="curve" smooth="yes"/>
      <point x="226" y="690"/>
      <point x="137" y="594"/>
      <point x="106" y="411" type="curve" smooth="yes"/>
      <point x="83" y="281" type="line" smooth="yes"/>
      <point x="52" y="104"/>
      <point x="131" y="-10"/>
      <point x="293" y="-10" type="curve" smooth="yes"/>
      <point x="357" y="-10"/>
      <point x="425" y="4"/>
    </contour>
  </outline>
</glyph>
<glyph name="H" format="1">
  <advance width="683"/>
  <unicode hex="0048"/>
  <outline>
    <contour>
      <point x="446" y="0" type="line"/>
      <point x="533" y="0" type="line"/>
      <point x="653" y="680" type="line"/>
      <point x="566" y="680" type="line"/>
      <point x="514" y="385" type="line"/>
      <point x="217" y="385" type="line"/>
      <point x="269" y="680" type="line"/>
      <point x="182" y="680" type="line"/>
      <point x="62" y="0" type="line"/>
      <point x="149" y="0" type="line"/>
      <point x="202" y="303" type="line"/>
      <point x="499" y="303" type="line"/>
    </contour>
  </outline>
</glyph>
<glyph name="I" format="1">
  <advance width="300"/>
  <unicode hex="0049"/>
  <outline>
    <contour>
      <point x="149" y="0" type="line"/>
      <point x="269" y="680" type="line"/>
      <point x="182" y="680" type="line"/>
      <point x="62" y="0" type="line"/>
    </contour>
  </outline>
</glyph>
<glyph name="J" format="1">
  <advance width="363"/>
  <unicode hex="004A"/>
  <outline>
    <contour>
      <point x="-18" y="-7" type="line"/>
      <point x="183" y="-7"/>
      <point x="238" y="70"/>
      <point x="266" y="224" type="curve" smooth="yes"/>
      <point x="346" y="680" type="line"/>
      <point x="259" y="680" type="line"/>
      <point x="179" y="224" type="line" smooth="yes"/>
      <point x="158" y="105"/>
      <point x="111" y="76"/>
      <point x="-3" y="76" type="curve"/>
    </contour>
  </outline>
</glyph>
<glyph name="K" format="1">
  <advance width="595"/>
  <unicode hex="004B"/>
  <outline>
    <contour>
      <point x="440" y="0" type="line"/>
      <point x="538" y="0" type="line"/>
      <point x="369" y="378" type="line"/>
      <point x="466" y="472"/>
      <point x="549" y="570"/>
      <point x="627" y="680" type="curve"/>
      <point x="527" y="680" type="line"/>
      <point x="448" y="564"/>
      <point x="345" y="453"/>
      <point x="208" y="334" type="curve"/>
      <point x="269" y="680" type="line"/>
      <point x="182" y="680" type="line"/>
      <point x="62" y="0" type="line"/>
      <point x="149" y="0" type="line"/>
      <point x="189" y="229" type="line"/>
      <point x="228" y="262"/>
      <point x="265" y="293"/>
      <point x="300" y="325" type="curve"/>
    </contour>
  </outline>
</glyph>
<glyph name="L" format="1">
  <advance width="506"/>
  <unicode hex="004C"/>
  <outline>
    <contour>
      <point x="449" y="81" type="line"/>
      <point x="163" y="81" type="line"/>
      <point x="269" y="680" type="line"/>
      <point x="182" y="680" type="line"/>
      <point x="62" y="0" type="line"/>
      <point x="435" y="0" type="line"/>
    </contour>
  </outline>
</glyph>
<glyph name="M" format="1">
  <advance width="829"/>
  <unicode hex="004D"/>
  <outline>
    <contour>
      <point x="280" y="680" type="line"/>
      <point x="182" y="680" type="line"/>
      <point x="62" y="0" type="line"/>
      <point x="145" y="0" type="line"/>
      <point x="196" y="291" type="line"/>
      <point x="234" y="557" type="line"/>
      <point x="341" y="80" type="line"/>
      <point x="423" y="80" type="line"/>
      <point x="701" y="547" type="line"/>
      <point x="647" y="291" type="line"/>
      <point x="596" y="0" type="line"/>
      <point x="678" y="0" type="line"/>
      <point x="798" y="680" type="line"/>
      <point x="698" y="680" type="line"/>
      <point x="398" y="174" type="line"/>
    </contour>
  </outline>
</glyph>
<glyph name="N" format="1">
  <advance width="690"/>
  <unicode hex="004E"/>
  <outline>
    <contour>
      <point x="62" y="0" type="line"/>
      <point x="145" y="0" type="line"/>
      <point x="194" y="278" type="line"/>
      <point x="240" y="562" type="line"/>
      <point x="320" y="380"/>
      <point x="385" y="204"/>
      <point x="449" y="0" type="curve"/>
      <point x="539" y="0" type="line"/>
      <point x="659" y="680" type="line"/>
      <point x="577" y="680" type="line"/>
      <point x="527" y="400" type="line"/>
      <point x="489" y="128" type="line"/>
      <point x="427" y="328"/>
      <point x="361" y="488"/>
      <point x="273" y="680" type="curve"/>
      <point x="182" y="680" type="line"/>
    </contour>
  </outline>
</glyph>
<glyph name="O" format="1">
  <advance width="647"/>
  <unicode hex="004F"/>
  <outline>
    <contour>
      <point x="596" y="399" type="line" smooth="yes"/>
      <point x="627" y="570"/>
      <point x="543" y="690"/>
      <point x="384" y="690" type="curve" smooth="yes"/>
      <point x="230" y="690"/>
      <point x="136" y="584"/>
      <point x="107" y="417" type="curve" smooth="yes"/>
      <point x="83" y="282" type="line" smooth="yes"/>
      <point x="52" y="108"/>
      <point x="135" y="-10"/>
      <point x="295" y="-10" type="curve" smooth="yes"/>
      <point x="448" y="-10"/>
      <point x="542" y="94"/>
      <point x="573" y="264" type="curve" smooth="yes"/>
    </contour>
    <contour>
      <point x="506" y="399" type="curve" smooth="yes"/>
      <point x="483" y="264" type="line" smooth="yes"/>
      <point x="461" y="142"/>
      <point x="397" y="70"/>
      <point x="298" y="70" type="curve" smooth="yes"/>
      <point x="193" y="70"/>
      <point x="150" y="150"/>
      <point x="173" y="282" type="curve" smooth="yes"/>
      <point x="197" y="417" type="line" smooth="yes"/>
      <point x="218" y="537"/>
      <point x="282" y="609"/>
      <point x="380" y="609" type="curve" smooth="yes"/>
      <point x="485" y="609"/>
      <point x="529" y="529"/>
    </contour>
  </outline>
</glyph>
<glyph name="P" format="1">
  <advance width="565"/>
  <unicode hex="0050"/>
  <outline>
    <contour>
      <point x="62" y="0" type="line"/>
      <point x="149" y="0" type="line"/>
      <point x="193" y="248" type="line"/>
      <point x="329" y="248" type="line" smooth="yes"/>
      <point x="460" y="248"/>
      <point x="532" y="316"/>
      <point x="551" y="426" type="curve" smooth="yes"/>
      <point x="561" y="480" type="line" smooth="yes"/>
      <point x="581" y="594"/>
      <point x="519" y="680"/>
      <point x="383" y="680" type="curve" smooth="yes"/>
      <point x="182" y="680" type="line"/>
    </contour>
    <contour>
      <point x="379" y="598" type="line" smooth="yes"/>
      <point x="452" y="598"/>
      <point x="485" y="554"/>
      <point x="471" y="481" type="curve" smooth="yes"/>
      <point x="461" y="428" type="line" smooth="yes"/>
      <point x="450" y="366"/>
      <point x="404" y="329"/>
      <point x="332" y="329" type="curve" smooth="yes"/>
      <point x="207" y="329" type="line"/>
      <point x="255" y="598" type="line"/>
    </contour>
  </outline>
</glyph>
<glyph name="Q" format="1">
  <advance width="647"/>
  <unicode hex="0051"/>
  <outline>
    <contour>
      <point x="502" y="-94" type="line"/>
      <point x="408" y="-92"/>
      <point x="381" y="-80"/>
      <point x="366" y="-2" type="curve"/>
      <point x="477" y="26"/>
      <point x="548" y="122"/>
      <point x="573" y="264" type="curve" smooth="yes"/>
      <point x="596" y="399" type="line" smooth="yes"/>
      <point x="627" y="570"/>
      <point x="543" y="690"/>
      <point x="384" y="690" type="curve" smooth="yes"/>
      <point x="231" y="690"/>
      <point x="136" y="584"/>
      <point x="107" y="417" type="curve" smooth="yes"/>
      <point x="83" y="282" type="line" smooth="yes"/>
      <point x="53" y="113"/>
      <point x="130" y="-3"/>
      <point x="281" y="-10" type="curve"/>
      <point x="286" y="-32" type="line" smooth="yes"/>
      <point x="306" y="-132"/>
      <point x="364" y="-183"/>
      <point x="486" y="-183" type="curve"/>
    </contour>
    <contour>
      <point x="506" y="399" type="curve" smooth="yes"/>
      <point x="483" y="264" type="line" smooth="yes"/>
      <point x="461" y="142"/>
      <point x="397" y="70"/>
      <point x="298" y="70" type="curve" smooth="yes"/>
      <point x="194" y="70"/>
      <point x="150" y="150"/>
      <point x="173" y="282" type="curve" smooth="yes"/>
      <point x="197" y="417" type="line" smooth="yes"/>
      <point x="218" y="537"/>
      <point x="282" y="609"/>
      <point x="380" y="609" type="curve" smooth="yes"/>
      <point x="485" y="609"/>
      <point x="530" y="529"/>
    </contour>
  </outline>
</glyph>
<glyph name="R" format="1">
  <advance width="601"/>
  <unicode hex="0052"/>
  <outline>
    <contour>
      <point x="196" y="266" type="line"/>
      <point x="337" y="266" type="line"/>
      <point x="373" y="179"/>
      <point x="403" y="90"/>
      <point x="424" y="0" type="curve"/>
      <point x="518" y="0" type="line"/>
      <point x="494" y="95"/>
      <point x="462" y="189"/>
      <point x="422" y="280" type="curve"/>
      <point x="495" y="304"/>
      <point x="542" y="362"/>
      <point x="555" y="440" type="curve" smooth="yes"/>
      <point x="562" y="483" type="line" smooth="yes"/>
      <point x="582" y="599"/>
      <point x="511" y="680"/>
      <point x="384" y="680" type="curve" smooth="yes"/>
      <point x="182" y="680" type="line"/>
      <point x="62" y="0" type="line"/>
      <point x="149" y="0" type="line"/>
    </contour>
    <contour>
      <point x="381" y="600" type="line" smooth="yes"/>
      <point x="449" y="600"/>
      <point x="485" y="558"/>
      <point x="473" y="485" type="curve" smooth="yes"/>
      <point x="465" y="442" type="line" smooth="yes"/>
      <point x="454" y="381"/>
      <point x="405" y="346"/>
      <point x="336" y="346" type="curve" smooth="yes"/>
      <point x="210" y="346" type="line"/>
      <point x="255" y="600" type="line"/>
    </contour>
  </outline>
</glyph>
<glyph name="S" format="1">
  <advance width="506"/>
  <unicode hex="0053"/>
  <outline>
    <contour>
      <point x="208" y="68" type="curve" smooth="yes"/>
      <point x="153" y="68"/>
      <point x="102" y="81"/>
      <point x="35" y="113" type="curve"/>
      <point x="5" y="38" type="line"/>
      <point x="75" y="4"/>
      <point x="142" y="-10"/>
      <point x="208" y="-10" type="curve" smooth="yes"/>
      <point x="384" y="-10"/>
      <point x="450" y="87"/>
      <point x="450" y="193" type="curve" smooth="yes"/>
      <point x="450" y="281"/>
      <point x="405" y="333"/>
      <point x="328" y="367" type="curve" smooth="yes"/>
      <point x="257" y="399" type="line" smooth="yes"/>
      <point x="199" y="425"/>
      <point x="177" y="453"/>
      <point x="177" y="498" type="curve" smooth="yes"/>
      <point x="177" y="567"/>
      <point x="224" y="611"/>
      <point x="313" y="611" type="curve" smooth="yes"/>
      <point x="362" y="611"/>
      <point x="408" y="598"/>
      <point x="465" y="571" type="curve"/>
      <point x="495" y="646" type="line"/>
      <point x="434" y="676"/>
      <point x="374" y="690"/>
      <point x="313" y="690" type="curve" smooth="yes"/>
      <point x="153" y="690"/>
      <point x="87" y="600"/>
      <point x="87" y="493" type="curve" smooth="yes"/>
      <point x="87" y="412"/>
      <point x="124" y="360"/>
      <point x="206" y="324" type="curve" smooth="yes"/>
      <point x="278" y="292" type="line" smooth="yes"/>
      <point x="334" y="267"/>
      <point x="359" y="235"/>
      <point x="359" y="186" type="curve" smooth="yes"/>
      <point x="359" y="114"/>
      <point x="307" y="68"/>
    </contour>
  </outline>
</glyph>
<glyph name="T" format="1">
  <advance width="509"/>
  <unicode hex="0054"/>
  <outline>
    <contour>
      <point x="74" y="598" type="line"/>
      <point x="273" y="598" type="line"/>
      <point x="167" y="0" type="line"/>
      <point x="254" y="0" type="line"/>
      <point x="360" y="598" type="line"/>
      <point x="558" y="598" type="line"/>
      <point x="572" y="680" type="line"/>
      <point x="89" y="680" type="line"/>
    </contour>
  </outline>
</glyph>
<glyph name="U" format="1">
  <advance width="648"/>
  <unicode hex="0055"/>
  <outline>
    <contour>
      <point x="168" y="680" type="line"/>
      <point x="91" y="244" type="line" smooth="yes"/>
      <point x="66" y="100"/>
      <point x="136" y="-10"/>
      <point x="293" y="-10" type="curve" smooth="yes"/>
      <point x="448" y="-10"/>
      <point x="527" y="88"/>
      <point x="555" y="244" type="curve" smooth="yes"/>
      <point x="632" y="680" type="line"/>
      <point x="542" y="680" type="line"/>
      <point x="465" y="244" type="line" smooth="yes"/>
      <point x="446" y="133"/>
      <point x="391" y="70"/>
      <point x="296" y="70" type="curve" smooth="yes"/>
      <point x="194" y="70"/>
      <point x="164" y="144"/>
      <point x="181" y="244" type="curve" smooth="yes"/>
      <point x="258" y="680" type="line"/>
    </contour>
  </outline>
</glyph>
<glyph name="V" format="1">
  <advance width="563"/>
  <unicode hex="0056"/>
  <outline>
    <contour>
      <point x="619" y="680" type="line"/>
      <point x="527" y="680" type="line"/>
      <point x="360" y="336" type="line"/>
      <point x="256" y="118" type="line"/>
      <point x="231" y="335" type="line"/>
      <point x="184" y="680" type="line"/>
      <point x="96" y="680" type="line"/>
      <point x="194" y="0" type="line"/>
      <point x="282" y="0" type="line"/>
    </contour>
  </outline>
</glyph>
<glyph name="W" format="1">
  <advance width="860"/>
  <unicode hex="0057"/>
  <outline>
    <contour>
      <point x="209" y="392" type="line"/>
      <point x="201" y="680" type="line"/>
      <point x="112" y="680" type="line"/>
      <point x="141" y="0" type="line"/>
      <point x="231" y="0" type="line"/>
      <point x="484" y="554" type="line"/>
      <point x="541" y="0" type="line"/>
      <point x="631" y="0" type="line"/>
      <point x="900" y="680" type="line"/>
      <point x="811" y="680" type="line"/>
      <point x="701" y="392" type="line"/>
      <point x="603" y="125" type="line"/>
      <point x="546" y="680" type="line"/>
      <point x="464" y="680" type="line"/>
      <point x="210" y="126" type="line"/>
    </contour>
  </outline>
</glyph>
<glyph name="X" format="1">
  <advance width="541"/>
  <unicode hex="0058"/>
  <outline>
    <contour>
      <point x="386" y="0" type="line"/>
      <point x="477" y="0" type="line"/>
      <point x="339" y="340" type="line"/>
      <point x="593" y="680" type="line"/>
      <point x="495" y="680" type="line"/>
      <point x="304" y="420" type="line"/>
      <point x="198" y="680" type="line"/>
      <point x="107" y="680" type="line"/>
      <point x="240" y="353" type="line"/>
      <point x="-23" y="0" type="line"/>
      <point x="74" y="0" type="line"/>
      <point x="275" y="273" type="line"/>
    </contour>
  </outline>
</glyph>
<glyph name="Y" format="1">
  <advance width="524"/>
  <unicode hex="0059"/>
  <outline>
    <contour>
      <point x="590" y="680" type="line"/>
      <point x="494" y="680" type="line"/>
      <point x="280" y="358" type="line"/>
      <point x="176" y="680" type="line"/>
      <point x="87" y="680" type="line"/>
      <point x="223" y="271" type="line"/>
      <point x="175" y="0" type="line"/>
      <point x="262" y="0" type="line"/>
      <point x="310" y="271" type="line"/>
    </contour>
  </outline>
</glyph>
<glyph name="Z" format="1">
  <advance width="508"/>
  <unicode hex="005A"/>
  <outline>
    <contour>
      <point x="440" y="81" type="line"/>
      <point x="119" y="81" type="line"/>
      <point x="523" y="609" type="line"/>
      <point x="536" y="680" type="line"/>
      <point x="127" y="680" type="line"/>
      <point x="112" y="598" type="line"/>
      <point x="413" y="598" type="line"/>
      <point x="9" y="70" type="line"/>
      <point x="-2" y="0" type="line"/>
      <point x="426" y="0" type="line"/>
    </contour>
  </outline>
</glyph>
<glyph name="bracketleft" format="1">
  <advance width="346"/>
  <unicode hex="005B"/>
  <outline>
    <contour>
      <point x="287" y="-71" type="line"/>
      <point x="132" y="-71" type="line"/>
      <point x="262" y="668" type="line"/>
      <point x="417" y="668" type="line"/>
      <point x="430" y="740" type="line"/>
      <point x="193" y="740" type="line"/>
      <point x="37" y="-143" type="line"/>
      <point x="274" y="-143" type="line"/>
    </contour>
  </outline>
</glyph>
<glyph name="backslash" format="1">
  <advance width="364"/>
  <unicode hex="005C"/>
  <outline>
    <contour>
      <point x="157" y="740" type="line"/>
      <point x="77" y="740" type="line"/>
      <point x="253" y="-143" type="line"/>
      <point x="333" y="-143" type="line"/>
    </contour>
  </outline>
</glyph>
<glyph name="bracketright" format="1">
  <advance width="346"/>
  <unicode hex="005D"/>
  <outline>
    <contour>
      <point x="326" y="740" type="line"/>
      <point x="89" y="740" type="line"/>
      <point x="76" y="668" type="line"/>
      <point x="231" y="668" type="line"/>
      <point x="102" y="-71" type="line"/>
      <point x="-53" y="-71" type="line"/>
      <point x="-66" y="-143" type="line"/>
      <point x="171" y="-143" type="line"/>
    </contour>
  </outline>
</glyph>
<glyph name="asciicircum" format="1">
  <advance width="588"/>
  <unicode hex="005E"/>
  <outline>
    <contour>
      <point x="412" y="266" type="line"/>
      <point x="490" y="266" type="line"/>
      <point x="396" y="680" type="line"/>
      <point x="341" y="680" type="line"/>
      <point x="103" y="266" type="line"/>
      <point x="185" y="266" type="line"/>
      <point x="351" y="564" type="line"/>
    </contour>
  </outline>
</glyph>
<glyph name="grave" format="1">
  <advance width="500"/>
  <unicode hex="0060"/>
  <outline>
    <contour>
      <point x="274" y="579" type="line"/>
      <point x="341" y="579" type="line"/>
      <point x="280" y="745" type="line"/>
      <point x="199" y="709" type="line"/>
    </contour>
  </outline>
</glyph>
<glyph name="a" format="1">
  <advance width="549"/>
  <unicode hex="0061"/>
  <outline>
    <contour>
      <point x="456" y="-5" type="curve" smooth="yes"/>
      <point x="473" y="-5" type="line"/>
      <point x="487" y="70" type="line"/>
      <point x="473" y="70" type="line" smooth="yes"/>
      <point x="439" y="70"/>
      <point x="432" y="95"/>
      <point x="439" y="135" type="curve" smooth="yes"/>
      <point x="493" y="442" type="line"/>
      <point x="431" y="482"/>
      <point x="365" y="505"/>
      <point x="298" y="505" type="curve" smooth="yes"/>
      <point x="170" y="505"/>
      <point x="89" y="419"/>
      <point x="68" y="277" type="curve" smooth="yes"/>
      <point x="61" y="228" type="line" smooth="yes"/>
      <point x="41" y="91"/>
      <point x="89" y="-10"/>
      <point x="187" y="-10" type="curve" smooth="yes"/>
      <point x="238" y="-10"/>
      <point x="295" y="13"/>
      <point x="358" y="81" type="curve"/>
      <point x="361" y="31"/>
      <point x="390" y="-5"/>
    </contour>
    <contour>
      <point x="146" y="228" type="curve" smooth="yes"/>
      <point x="153" y="277" type="line" smooth="yes"/>
      <point x="166" y="368"/>
      <point x="216" y="430"/>
      <point x="303" y="430" type="curve" smooth="yes"/>
      <point x="335" y="430"/>
      <point x="368" y="421"/>
      <point x="404" y="403" type="curve"/>
      <point x="365" y="181" type="line"/>
      <point x="303" y="94"/>
      <point x="249" y="64"/>
      <point x="209" y="64" type="curve" smooth="yes"/>
      <point x="155" y="64"/>
      <point x="131" y="123"/>
    </contour>
  </outline>
</glyph>
<glyph name="b" format="1">
  <advance width="553"/>
  <unicode hex="0062"/>
  <outline>
    <contour>
      <point x="483" y="218" type="curve" smooth="yes"/>
      <point x="490" y="266" type="line" smooth="yes"/>
      <point x="511" y="403"/>
      <point x="462" y="505"/>
      <point x="362" y="505" type="curve" smooth="yes"/>
      <point x="312" y="505"/>
      <point x="257" y="482"/>
      <point x="196" y="413" type="curve"/>
      <point x="254" y="740" type="line"/>
      <point x="172" y="740" type="line"/>
      <point x="50" y="53" type="line"/>
      <point x="114" y="15"/>
      <point x="179" y="-10"/>
      <point x="251" y="-10" type="curve" smooth="yes"/>
      <point x="383" y="-10"/>
      <point x="462" y="72"/>
    </contour>
    <contour>
      <point x="339" y="430" type="curve" smooth="yes"/>
      <point x="396" y="430"/>
      <point x="421" y="371"/>
      <point x="405" y="266" type="curve" smooth="yes"/>
      <point x="398" y="218" type="line" smooth="yes"/>
      <point x="384" y="123"/>
      <point x="337" y="64"/>
      <point x="246" y="64" type="curve" smooth="yes"/>
      <point x="211" y="64"/>
      <point x="177" y="73"/>
      <point x="140" y="92" type="curve"/>
      <point x="177" y="306" type="line"/>
      <point x="242" y="398"/>
      <point x="297" y="430"/>
    </contour>
  </outline>
</glyph>
<glyph name="c" format="1">
  <advance width="451"/>
  <unicode hex="0063"/>
  <outline>
    <contour>
      <point x="291" y="429" type="curve" smooth="yes"/>
      <point x="326" y="429"/>
      <point x="365" y="417"/>
      <point x="407" y="397" type="curve"/>
      <point x="436" y="467" type="line"/>
      <point x="387" y="491"/>
      <point x="337" y="505"/>
      <point x="289" y="505" type="curve" smooth="yes"/>
      <point x="171" y="505"/>
      <point x="92" y="422"/>
      <point x="69" y="288" type="curve" smooth="yes"/>
      <point x="61" y="237" type="line" smooth="yes"/>
      <point x="38" y="96"/>
      <point x="89" y="-10"/>
      <point x="238" y="-10" type="curve" smooth="yes"/>
      <point x="281" y="-10"/>
      <point x="328" y="0"/>
      <point x="380" y="19" type="curve"/>
      <point x="366" y="90" type="line"/>
      <point x="320" y="73"/>
      <point x="280" y="65"/>
      <point x="245" y="65" type="curve" smooth="yes"/>
      <point x="149" y="65"/>
      <point x="126" y="135"/>
      <point x="142" y="234" type="curve" smooth="yes"/>
      <point x="151" y="288" type="line" smooth="yes"/>
      <point x="166" y="378"/>
      <point x="217" y="429"/>
    </contour>
  </outline>
</glyph>
<glyph name="d" format="1">
  <advance width="557"/>
  <unicode hex="0064"/>
  <outline>
    <contour>
      <point x="346" y="0" type="line"/>
      <point x="424" y="0" type="line"/>
      <point x="555" y="740" type="line"/>
      <point x="473" y="740" type="line"/>
      <point x="426" y="475" type="line"/>
      <point x="386" y="494"/>
      <point x="345" y="505"/>
      <point x="301" y="505" type="curve" smooth="yes"/>
      <point x="169" y="505"/>
      <point x="90" y="422"/>
      <point x="69" y="277" type="curve" smooth="yes"/>
      <point x="62" y="228" type="line" smooth="yes"/>
      <point x="42" y="91"/>
      <point x="90" y="-10"/>
      <point x="190" y="-10" type="curve" smooth="yes"/>
      <point x="242" y="-10"/>
      <point x="298" y="14"/>
      <point x="361" y="88" type="curve"/>
    </contour>
    <contour>
      <point x="147" y="228" type="curve" smooth="yes"/>
      <point x="154" y="277" type="line" smooth="yes"/>
      <point x="168" y="371"/>
      <point x="216" y="430"/>
      <point x="306" y="430" type="curve" smooth="yes"/>
      <point x="341" y="430"/>
      <point x="375" y="421"/>
      <point x="413" y="401" type="curve"/>
      <point x="376" y="190" type="line"/>
      <point x="310" y="97"/>
      <point x="256" y="64"/>
      <point x="213" y="64" type="curve" smooth="yes"/>
      <point x="156" y="64"/>
      <point x="132" y="123"/>
    </contour>
  </outline>
</glyph>
<glyph name="e" format="1">
  <advance width="505"/>
  <unicode hex="0065"/>
  <outline>
    <contour>
      <point x="409" y="20" type="curve"/>
      <point x="396" y="90" type="line"/>
      <point x="344" y="72"/>
      <point x="294" y="64"/>
      <point x="257" y="64" type="curve" smooth="yes"/>
      <point x="153" y="64"/>
      <point x="126" y="128"/>
      <point x="138" y="220" type="curve"/>
      <point x="427" y="220" type="line"/>
      <point x="457" y="270"/>
      <point x="467" y="313"/>
      <point x="467" y="352" type="curve" smooth="yes"/>
      <point x="467" y="458"/>
      <point x="385" y="505"/>
      <point x="295" y="505" type="curve" smooth="yes"/>
      <point x="173" y="505"/>
      <point x="90" y="418"/>
      <point x="69" y="288" type="curve" smooth="yes"/>
      <point x="60" y="237" type="line" smooth="yes"/>
      <point x="37" y="96"/>
      <point x="90" y="-10"/>
      <point x="250" y="-10" type="curve" smooth="yes"/>
      <point x="298" y="-10"/>
      <point x="352" y="-1"/>
    </contour>
    <contour>
      <point x="292" y="432" type="curve" smooth="yes"/>
      <point x="346" y="432"/>
      <point x="387" y="406"/>
      <point x="387" y="350" type="curve" smooth="yes"/>
      <point x="387" y="333"/>
      <point x="384" y="312"/>
      <point x="374" y="290" type="curve"/>
      <point x="150" y="290" type="line"/>
      <point x="165" y="379"/>
      <point x="216" y="432"/>
    </contour>
  </outline>
</glyph>
<glyph name="f" format="1">
  <advance width="347"/>
  <unicode hex="0066"/>
  <outline>
    <contour>
      <point x="379" y="423" type="line"/>
      <point x="392" y="495" type="line"/>
      <point x="229" y="495" type="line"/>
      <point x="244" y="578" type="line" smooth="yes"/>
      <point x="256" y="646"/>
      <point x="293" y="675"/>
      <point x="350" y="675" type="curve" smooth="yes"/>
      <point x="375" y="675"/>
      <point x="403" y="668"/>
      <point x="434" y="655" type="curve"/>
      <point x="466" y="721" type="line"/>
      <point x="430" y="739"/>
      <point x="388" y="750"/>
      <point x="346" y="750" type="curve" smooth="yes"/>
      <point x="230" y="750"/>
      <point x="180" y="676"/>
      <point x="162" y="577" type="curve" smooth="yes"/>
      <point x="148" y="495" type="line"/>
      <point x="61" y="495" type="line"/>
      <point x="49" y="423" type="line"/>
      <point x="135" y="423" type="line"/>
      <point x="60" y="0" type="line"/>
      <point x="142" y="0" type="line"/>
      <point x="217" y="423" type="line"/>
    </contour>
  </outline>
</glyph>
<glyph name="g" format="1">
  <advance width="554"/>
  <unicode hex="0067"/>
  <outline>
    <contour>
      <point x="424" y="0" type="curve" smooth="yes"/>
      <point x="502" y="442" type="line"/>
      <point x="440" y="482"/>
      <point x="371" y="505"/>
      <point x="301" y="505" type="curve" smooth="yes"/>
      <point x="169" y="505"/>
      <point x="90" y="422"/>
      <point x="69" y="277" type="curve" smooth="yes"/>
      <point x="62" y="228" type="line" smooth="yes"/>
      <point x="42" y="91"/>
      <point x="90" y="-10"/>
      <point x="190" y="-10" type="curve" smooth="yes"/>
      <point x="240" y="-10"/>
      <point x="296" y="13"/>
      <point x="356" y="79" type="curve"/>
      <point x="342" y="0" type="line" smooth="yes"/>
      <point x="326" y="-92"/>
      <point x="301" y="-149"/>
      <point x="190" y="-149" type="curve" smooth="yes"/>
      <point x="149" y="-149"/>
      <point x="104" y="-141"/>
      <point x="55" y="-121" type="curve"/>
      <point x="34" y="-191" type="line"/>
      <point x="87" y="-212"/>
      <point x="139" y="-223"/>
      <point x="193" y="-223" type="curve" smooth="yes"/>
      <point x="361" y="-223"/>
      <point x="403" y="-122"/>
    </contour>
    <contour>
      <point x="147" y="228" type="curve" smooth="yes"/>
      <point x="154" y="277" type="line" smooth="yes"/>
      <point x="168" y="371"/>
      <point x="216" y="430"/>
      <point x="306" y="430" type="curve" smooth="yes"/>
      <point x="341" y="430"/>
      <point x="375" y="421"/>
      <point x="413" y="402" type="curve"/>
      <point x="374" y="183" type="line"/>
      <point x="311" y="94"/>
      <point x="255" y="64"/>
      <point x="213" y="64" type="curve" smooth="yes"/>
      <point x="156" y="64"/>
      <point x="132" y="123"/>
    </contour>
  </outline>
</glyph>
<glyph name="h" format="1">
  <advance width="571"/>
  <unicode hex="0068"/>
  <outline>
    <contour>
      <point x="361" y="428" type="curve" smooth="yes"/>
      <point x="410" y="428"/>
      <point x="432" y="392"/>
      <point x="418" y="320" type="curve" smooth="yes"/>
      <point x="362" y="0" type="line"/>
      <point x="444" y="0" type="line"/>
      <point x="502" y="327" type="line" smooth="yes"/>
      <point x="520" y="433"/>
      <point x="475" y="505"/>
      <point x="383" y="505" type="curve" smooth="yes"/>
      <point x="334" y="505"/>
      <point x="274" y="487"/>
      <point x="198" y="409" type="curve"/>
      <point x="256" y="740" type="line"/>
      <point x="174" y="740" type="line"/>
      <point x="44" y="0" type="line"/>
      <point x="126" y="0" type="line"/>
      <point x="182" y="317" type="line"/>
      <point x="267" y="409"/>
      <point x="323" y="428"/>
    </contour>
  </outline>
</glyph>
<glyph name="i" format="1">
  <advance width="260"/>
  <unicode hex="0069"/>
  <outline>
    <contour>
      <point x="241" y="616" type="line"/>
      <point x="256" y="708" type="line"/>
      <point x="164" y="708" type="line"/>
      <point x="149" y="616" type="line"/>
    </contour>
    <contour>
      <point x="126" y="0" type="line"/>
      <point x="214" y="495" type="line"/>
      <point x="132" y="495" type="line"/>
      <point x="44" y="0" type="line"/>
    </contour>
  </outline>
</glyph>
<glyph name="j" format="1">
  <advance width="259"/>
  <unicode hex="006A"/>
  <outline>
    <contour>
      <point x="240" y="616" type="line"/>
      <point x="256" y="708" type="line"/>
      <point x="164" y="708" type="line"/>
      <point x="148" y="616" type="line"/>
    </contour>
    <contour>
      <point x="-103" y="-223" type="line"/>
      <point x="53" y="-223"/>
      <point x="100" y="-147"/>
      <point x="122" y="-23" type="curve" smooth="yes"/>
      <point x="214" y="495" type="line"/>
      <point x="132" y="495" type="line"/>
      <point x="40" y="-23" type="line" smooth="yes"/>
      <point x="23" y="-119"/>
      <point x="-19" y="-145"/>
      <point x="-90" y="-145" type="curve"/>
    </contour>
  </outline>
</glyph>
<glyph name="k" format="1">
  <advance width="508"/>
  <unicode hex="006B"/>
  <outline>
    <contour>
      <point x="351" y="0" type="line"/>
      <point x="446" y="0" type="line"/>
      <point x="318" y="278" type="line"/>
      <point x="391" y="347"/>
      <point x="454" y="414"/>
      <point x="515" y="495" type="curve"/>
      <point x="417" y="495" type="line"/>
      <point x="347" y="401"/>
      <point x="269" y="327"/>
      <point x="169" y="244" type="curve"/>
      <point x="257" y="740" type="line"/>
      <point x="175" y="740" type="line"/>
      <point x="44" y="0" type="line"/>
      <point x="126" y="0" type="line"/>
      <point x="153" y="152" type="line"/>
      <point x="188" y="178"/>
      <point x="221" y="204"/>
      <point x="251" y="230" type="curve"/>
    </contour>
  </outline>
</glyph>
<glyph name="l" format="1">
  <advance width="264"/>
  <unicode hex="006C"/>
  <outline>
    <contour>
      <point x="65" y="125" type="line" smooth="yes"/>
      <point x="52" y="49"/>
      <point x="74" y="-5"/>
      <point x="166" y="-5" type="curve" smooth="yes"/>
      <point x="183" y="-5" type="line"/>
      <point x="197" y="70" type="line"/>
      <point x="182" y="70" type="line" smooth="yes"/>
      <point x="145" y="70"/>
      <point x="141" y="87"/>
      <point x="147" y="124" type="curve" smooth="yes"/>
      <point x="255" y="740" type="line"/>
      <point x="173" y="740" type="line"/>
    </contour>
  </outline>
</glyph>
<glyph name="m" format="1">
  <advance width="869"/>
  <unicode hex="006D"/>
  <outline>
    <contour>
      <point x="356" y="428" type="curve" smooth="yes"/>
      <point x="400" y="428"/>
      <point x="421" y="392"/>
      <point x="408" y="320" type="curve" smooth="yes"/>
      <point x="352" y="0" type="line"/>
      <point x="434" y="0" type="line"/>
      <point x="490" y="317" type="line"/>
      <point x="575" y="408"/>
      <point x="627" y="428"/>
      <point x="664" y="428" type="curve" smooth="yes"/>
      <point x="708" y="428"/>
      <point x="730" y="392"/>
      <point x="717" y="320" type="curve" smooth="yes"/>
      <point x="660" y="0" type="line"/>
      <point x="742" y="0" type="line"/>
      <point x="800" y="327" type="line" smooth="yes"/>
      <point x="819" y="433"/>
      <point x="775" y="505"/>
      <point x="686" y="505" type="curve" smooth="yes"/>
      <point x="636" y="505"/>
      <point x="573" y="485"/>
      <point x="494" y="401" type="curve"/>
      <point x="485" y="465"/>
      <point x="443" y="505"/>
      <point x="378" y="505" type="curve" smooth="yes"/>
      <point x="330" y="505"/>
      <point x="271" y="486"/>
      <point x="194" y="405" type="curve"/>
      <point x="209" y="495" type="line"/>
      <point x="132" y="495" type="line"/>
      <point x="44" y="0" type="line"/>
      <point x="126" y="0" type="line"/>
      <point x="182" y="317" type="line"/>
      <point x="266" y="408"/>
      <point x="319" y="428"/>
    </contour>
  </outline>
</glyph>
<glyph name="n" format="1">
  <advance width="571"/>
  <unicode hex="006E"/>
  <outline>
    <contour>
      <point x="361" y="428" type="curve" smooth="yes"/>
      <point x="410" y="428"/>
      <point x="431" y="392"/>
      <point x="418" y="320" type="curve" smooth="yes"/>
      <point x="362" y="0" type="line"/>
      <point x="444" y="0" type="line"/>
      <point x="502" y="327" type="line" smooth="yes"/>
      <point x="521" y="432"/>
      <point x="474" y="505"/>
      <point x="383" y="505" type="curve" smooth="yes"/>
      <point x="334" y="505"/>
      <point x="272" y="486"/>
      <point x="194" y="404" type="curve"/>
      <point x="209" y="495" type="line"/>
      <point x="132" y="495" type="line"/>
      <point x="44" y="0" type="line"/>
      <point x="126" y="0" type="line"/>
      <point x="183" y="318" type="line"/>
      <point x="268" y="409"/>
      <point x="323" y="428"/>
    </contour>
  </outline>
</glyph>
<glyph name="o" format="1">
  <advance width="543"/>
  <unicode hex="006F"/>
  <outline>
    <contour>
      <point x="483" y="258" type="line" smooth="yes"/>
      <point x="505" y="397"/>
      <point x="439" y="505"/>
      <point x="297" y="505" type="curve" smooth="yes"/>
      <point x="169" y="505"/>
      <point x="89" y="424"/>
      <point x="67" y="288" type="curve" smooth="yes"/>
      <point x="59" y="237" type="line" smooth="yes"/>
      <point x="37" y="94"/>
      <point x="104" y="-10"/>
      <point x="245" y="-10" type="curve" smooth="yes"/>
      <point x="372" y="-10"/>
      <point x="453" y="67"/>
      <point x="475" y="208" type="curve" smooth="yes"/>
    </contour>
    <contour>
      <point x="398" y="260" type="curve" smooth="yes"/>
      <point x="390" y="208" type="line" smooth="yes"/>
      <point x="375" y="113"/>
      <point x="323" y="64"/>
      <point x="246" y="64" type="curve" smooth="yes"/>
      <point x="164" y="64"/>
      <point x="128" y="132"/>
      <point x="144" y="235" type="curve" smooth="yes"/>
      <point x="152" y="288" type="line" smooth="yes"/>
      <point x="167" y="379"/>
      <point x="219" y="430"/>
      <point x="296" y="430" type="curve" smooth="yes"/>
      <point x="379" y="430"/>
      <point x="414" y="360"/>
    </contour>
  </outline>
</glyph>
<glyph name="p" format="1">
  <advance width="556"/>
  <unicode hex="0070"/>
  <outline>
    <contour>
      <point x="255" y="-10" type="curve" smooth="yes"/>
      <point x="386" y="-10"/>
      <point x="466" y="72"/>
      <point x="487" y="218" type="curve" smooth="yes"/>
      <point x="494" y="266" type="line" smooth="yes"/>
      <point x="514" y="403"/>
      <point x="465" y="505"/>
      <point x="365" y="505" type="curve" smooth="yes"/>
      <point x="314" y="505"/>
      <point x="257" y="480"/>
      <point x="193" y="405" type="curve"/>
      <point x="209" y="495" type="line"/>
      <point x="132" y="495" type="line"/>
      <point x="6" y="-213" type="line"/>
      <point x="88" y="-213" type="line"/>
      <point x="129" y="20" type="line"/>
      <point x="169" y="1"/>
      <point x="210" y="-10"/>
    </contour>
    <contour>
      <point x="342" y="430" type="curve" smooth="yes"/>
      <point x="400" y="430"/>
      <point x="424" y="371"/>
      <point x="409" y="266" type="curve" smooth="yes"/>
      <point x="402" y="218" type="line" smooth="yes"/>
      <point x="388" y="123"/>
      <point x="340" y="64"/>
      <point x="249" y="64" type="curve" smooth="yes"/>
      <point x="215" y="64"/>
      <point x="180" y="73"/>
      <point x="142" y="93" type="curve"/>
      <point x="179" y="305" type="line"/>
      <point x="246" y="397"/>
      <point x="300" y="430"/>
    </contour>
  </outline>
</glyph>
<glyph name="q" format="1">
  <advance width="554"/>
  <unicode hex="0071"/>
  <outline>
    <contour>
      <point x="502" y="441" type="line"/>
      <point x="438" y="479"/>
      <point x="373" y="505"/>
      <point x="301" y="505" type="curve" smooth="yes"/>
      <point x="169" y="505"/>
      <point x="90" y="422"/>
      <point x="69" y="277" type="curve" smooth="yes"/>
      <point x="62" y="228" type="line" smooth="yes"/>
      <point x="42" y="91"/>
      <point x="90" y="-10"/>
      <point x="190" y="-10" type="curve" smooth="yes"/>
      <point x="240" y="-10"/>
      <point x="295" y="13"/>
      <point x="356" y="81" type="curve"/>
      <point x="304" y="-213" type="line"/>
      <point x="386" y="-213" type="line"/>
    </contour>
    <contour>
      <point x="147" y="228" type="curve" smooth="yes"/>
      <point x="154" y="277" type="line" smooth="yes"/>
      <point x="168" y="371"/>
      <point x="216" y="430"/>
      <point x="306" y="430" type="curve" smooth="yes"/>
      <point x="341" y="430"/>
      <point x="374" y="421"/>
      <point x="412" y="402" type="curve"/>
      <point x="375" y="189" type="line"/>
      <point x="310" y="96"/>
      <point x="256" y="64"/>
      <point x="213" y="64" type="curve" smooth="yes"/>
      <point x="156" y="64"/>
      <point x="132" y="123"/>
    </contour>
  </outline>
</glyph>
<glyph name="r" format="1">
  <advance width="367"/>
  <unicode hex="0072"/>
  <outline>
    <contour>
      <point x="379" y="422" type="curve"/>
      <point x="393" y="505" type="line"/>
      <point x="340" y="505"/>
      <point x="269" y="486"/>
      <point x="193" y="402" type="curve"/>
      <point x="209" y="495" type="line"/>
      <point x="132" y="495" type="line"/>
      <point x="44" y="0" type="line"/>
      <point x="126" y="0" type="line"/>
      <point x="181" y="314" type="line"/>
      <point x="257" y="408"/>
      <point x="332" y="422"/>
    </contour>
  </outline>
</glyph>
<glyph name="s" format="1">
  <advance width="433"/>
  <unicode hex="0073"/>
  <outline>
    <contour>
      <point x="177" y="63" type="curve" smooth="yes"/>
      <point x="131" y="63"/>
      <point x="86" y="73"/>
      <point x="34" y="96" type="curve"/>
      <point x="8" y="27" type="line"/>
      <point x="65" y="2"/>
      <point x="118" y="-10"/>
      <point x="175" y="-10" type="curve" smooth="yes"/>
      <point x="315" y="-10"/>
      <point x="368" y="65"/>
      <point x="368" y="144" type="curve" smooth="yes"/>
      <point x="368" y="212"/>
      <point x="330" y="252"/>
      <point x="257" y="279" type="curve" smooth="yes"/>
      <point x="208" y="297" type="line" smooth="yes"/>
      <point x="164" y="314"/>
      <point x="148" y="334"/>
      <point x="148" y="364" type="curve" smooth="yes"/>
      <point x="148" y="405"/>
      <point x="175" y="431"/>
      <point x="240" y="431" type="curve" smooth="yes"/>
      <point x="282" y="431"/>
      <point x="324" y="422"/>
      <point x="372" y="399" type="curve"/>
      <point x="398" y="469" type="line"/>
      <point x="345" y="493"/>
      <point x="295" y="505"/>
      <point x="242" y="505" type="curve" smooth="yes"/>
      <point x="116" y="505"/>
      <point x="66" y="437"/>
      <point x="66" y="358" type="curve" smooth="yes"/>
      <point x="66" y="292"/>
      <point x="100" y="251"/>
      <point x="168" y="226" type="curve" smooth="yes"/>
      <point x="216" y="207" type="line" smooth="yes"/>
      <point x="267" y="188"/>
      <point x="286" y="169"/>
      <point x="286" y="135" type="curve" smooth="yes"/>
      <point x="286" y="92"/>
      <point x="254" y="63"/>
    </contour>
  </outline>
</glyph>
<glyph name="t" format="1">
  <advance width="382"/>
  <unicode hex="0074"/>
  <outline>
    <contour>
      <point x="321" y="17" type="curve"/>
      <point x="303" y="86" type="line"/>
      <point x="268" y="70"/>
      <point x="237" y="65"/>
      <point x="216" y="65" type="curve" smooth="yes"/>
      <point x="177" y="65"/>
      <point x="154" y="86"/>
      <point x="165" y="148" type="curve" smooth="yes"/>
      <point x="214" y="423" type="line"/>
      <point x="376" y="423" type="line"/>
      <point x="389" y="495" type="line"/>
      <point x="227" y="495" type="line"/>
      <point x="251" y="633" type="line"/>
      <point x="169" y="633" type="line"/>
      <point x="145" y="495" type="line"/>
      <point x="58" y="495" type="line"/>
      <point x="46" y="423" type="line"/>
      <point x="132" y="423" type="line"/>
      <point x="84" y="148" type="line" smooth="yes"/>
      <point x="70" y="66"/>
      <point x="97" y="-10"/>
      <point x="200" y="-10" type="curve" smooth="yes"/>
      <point x="237" y="-10"/>
      <point x="281" y="0"/>
    </contour>
  </outline>
</glyph>
<glyph name="u" format="1">
  <advance width="559"/>
  <unicode hex="0075"/>
  <outline>
    <contour>
      <point x="349" y="0" type="line"/>
      <point x="427" y="0" type="line"/>
      <point x="514" y="495" type="line"/>
      <point x="432" y="495" type="line"/>
      <point x="376" y="177" type="line"/>
      <point x="292" y="86"/>
      <point x="240" y="67"/>
      <point x="203" y="67" type="curve" smooth="yes"/>
      <point x="160" y="67"/>
      <point x="139" y="102"/>
      <point x="152" y="175" type="curve" smooth="yes"/>
      <point x="208" y="495" type="line"/>
      <point x="126" y="495" type="line"/>
      <point x="68" y="167" type="line" smooth="yes"/>
      <point x="49" y="62"/>
      <point x="93" y="-10"/>
      <point x="182" y="-10" type="curve" smooth="yes"/>
      <point x="230" y="-10"/>
      <point x="288" y="9"/>
      <point x="365" y="90" type="curve"/>
    </contour>
  </outline>
</glyph>
<glyph name="v" format="1">
  <advance width="472"/>
  <unicode hex="0076"/>
  <outline>
    <contour>
      <point x="493" y="495" type="line"/>
      <point x="409" y="495" type="line"/>
      <point x="286" y="254" type="line"/>
      <point x="209" y="101" type="line"/>
      <point x="186" y="254" type="line"/>
      <point x="145" y="495" type="line"/>
      <point x="65" y="495" type="line"/>
      <point x="155" y="0" type="line"/>
      <point x="231" y="0" type="line"/>
    </contour>
  </outline>
</glyph>
<glyph name="w" format="1">
  <advance width="716"/>
  <unicode hex="0077"/>
  <outline>
    <contour>
      <point x="728" y="495" type="line"/>
      <point x="643" y="495" type="line"/>
      <point x="558" y="287" type="line"/>
      <point x="479" y="85" type="line"/>
      <point x="445" y="495" type="line"/>
      <point x="357" y="495" type="line"/>
      <point x="177" y="82" type="line"/>
      <point x="168" y="288" type="line"/>
      <point x="154" y="495" type="line"/>
      <point x="74" y="495" type="line"/>
      <point x="113" y="0" type="line"/>
      <point x="208" y="0" type="line"/>
      <point x="387" y="407" type="line"/>
      <point x="419" y="0" type="line"/>
      <point x="514" y="0" type="line"/>
    </contour>
  </outline>
</glyph>
<glyph name="x" format="1">
  <advance width="459"/>
  <unicode hex="0078"/>
  <outline>
    <contour>
      <point x="307" y="0" type="line"/>
      <point x="391" y="0" type="line"/>
      <point x="275" y="254" type="line"/>
      <point x="470" y="495" type="line"/>
      <point x="380" y="495" type="line"/>
      <point x="242" y="321" type="line"/>
      <point x="162" y="495" type="line"/>
      <point x="78" y="495" type="line"/>
      <point x="187" y="257" type="line"/>
      <point x="-21" y="0" type="line"/>
      <point x="68" y="0" type="line"/>
      <point x="219" y="190" type="line"/>
    </contour>
  </outline>
</glyph>
<glyph name="y" format="1">
  <advance width="472"/>
  <unicode hex="0079"/>
  <outline>
    <contour>
      <point x="204" y="-50" type="curve" smooth="yes"/>
      <point x="231" y="0" type="line"/>
      <point x="494" y="495" type="line"/>
      <point x="409" y="495" type="line"/>
      <point x="286" y="254" type="line"/>
      <point x="211" y="102" type="line"/>
      <point x="188" y="254" type="line"/>
      <point x="146" y="495" type="line"/>
      <point x="65" y="495" type="line"/>
      <point x="154" y="3" type="line"/>
      <point x="136" y="-28" type="line" smooth="yes"/>
      <point x="81" y="-126"/>
      <point x="50" y="-140"/>
      <point x="-19" y="-142" type="curve"/>
      <point x="-33" y="-223" type="line"/>
      <point x="76" y="-223"/>
      <point x="136" y="-177"/>
    </contour>
  </outline>
</glyph>
<glyph name="z" format="1">
  <advance width="412"/>
  <unicode hex="007A"/>
  <outline>
    <contour>
      <point x="347" y="71" type="line"/>
      <point x="105" y="71" type="line"/>
      <point x="401" y="430" type="line"/>
      <point x="412" y="495" type="line"/>
      <point x="88" y="495" type="line"/>
      <point x="75" y="423" type="line"/>
      <point x="299" y="423" type="line"/>
      <point x="2" y="64" type="line"/>
      <point x="-8" y="0" type="line"/>
      <point x="335" y="0" type="line"/>
    </contour>
  </outline>
</glyph>
<glyph name="braceleft" format="1">
  <advance width="377"/>
  <unicode hex="007B"/>
  <outline>
    <contour>
      <point x="318" y="-72" type="line"/>
      <point x="231" y="-72" type="line" smooth="yes"/>
      <point x="165" y="-72"/>
      <point x="155" y="-27"/>
      <point x="177" y="30" type="curve" smooth="yes"/>
      <point x="215" y="128" type="line" smooth="yes"/>
      <point x="249" y="218"/>
      <point x="238" y="274"/>
      <point x="185" y="294" type="curve"/>
      <point x="248" y="314"/>
      <point x="277" y="373"/>
      <point x="275" y="468" type="curve" smooth="yes"/>
      <point x="272" y="566" type="line" smooth="yes"/>
      <point x="270" y="623"/>
      <point x="296" y="668"/>
      <point x="362" y="668" type="curve" smooth="yes"/>
      <point x="448" y="668" type="line"/>
      <point x="460" y="740" type="line"/>
      <point x="361" y="740" type="line" smooth="yes"/>
      <point x="238" y="740"/>
      <point x="184" y="672"/>
      <point x="188" y="547" type="curve" smooth="yes"/>
      <point x="190" y="449" type="line" smooth="yes"/>
      <point x="193" y="381"/>
      <point x="175" y="334"/>
      <point x="100" y="334" type="curve" smooth="yes"/>
      <point x="35" y="334" type="line"/>
      <point x="23" y="262" type="line"/>
      <point x="88" y="262" type="line" smooth="yes"/>
      <point x="163" y="262"/>
      <point x="163" y="215"/>
      <point x="137" y="147" type="curve" smooth="yes"/>
      <point x="100" y="49" type="line" smooth="yes"/>
      <point x="58" y="-60"/>
      <point x="95" y="-144"/>
      <point x="226" y="-144" type="curve" smooth="yes"/>
      <point x="305" y="-144" type="line"/>
    </contour>
  </outline>
</glyph>
<glyph name="bar" format="1">
  <advance width="295"/>
  <unicode hex="007C"/>
  <outline>
    <contour>
      <point x="193" y="740" type="line"/>
      <point x="25" y="-213" type="line"/>
      <point x="107" y="-213" type="line"/>
      <point x="275" y="740" type="line"/>
    </contour>
  </outline>
</glyph>
<glyph name="braceright" format="1">
  <advance width="377"/>
  <unicode hex="007D"/>
  <outline>
    <contour>
      <point x="206" y="49" type="curve" smooth="yes"/>
      <point x="204" y="147" type="line" smooth="yes"/>
      <point x="201" y="214"/>
      <point x="219" y="261"/>
      <point x="294" y="261" type="curve" smooth="yes"/>
      <point x="359" y="261" type="line"/>
      <point x="371" y="333" type="line"/>
      <point x="306" y="333" type="line" smooth="yes"/>
      <point x="231" y="333"/>
      <point x="231" y="380"/>
      <point x="257" y="449" type="curve" smooth="yes"/>
      <point x="294" y="547" type="line" smooth="yes"/>
      <point x="336" y="656"/>
      <point x="299" y="740"/>
      <point x="168" y="740" type="curve" smooth="yes"/>
      <point x="89" y="740" type="line"/>
      <point x="76" y="668" type="line"/>
      <point x="163" y="668" type="line" smooth="yes"/>
      <point x="229" y="668"/>
      <point x="239" y="623"/>
      <point x="217" y="566" type="curve" smooth="yes"/>
      <point x="179" y="468" type="line" smooth="yes"/>
      <point x="145" y="377"/>
      <point x="156" y="321"/>
      <point x="209" y="301" type="curve"/>
      <point x="146" y="281"/>
      <point x="117" y="222"/>
      <point x="119" y="128" type="curve" smooth="yes"/>
      <point x="122" y="30" type="line" smooth="yes"/>
      <point x="124" y="-27"/>
      <point x="98" y="-72"/>
      <point x="32" y="-72" type="curve" smooth="yes"/>
      <point x="-53" y="-72" type="line"/>
      <point x="-66" y="-144" type="line"/>
      <point x="33" y="-144" type="line" smooth="yes"/>
      <point x="156" y="-144"/>
      <point x="210" y="-76"/>
    </contour>
  </outline>
</glyph>
<glyph name="asciitilde" format="1">
  <advance width="588"/>
  <unicode hex="007E"/>
  <outline>
    <contour>
      <point x="386" y="208" type="curve" smooth="yes"/>
      <point x="437" y="208"/>
      <point x="491" y="235"/>
      <point x="531" y="364" type="curve"/>
      <point x="468" y="380" type="line"/>
      <point x="437" y="300"/>
      <point x="413" y="280"/>
      <point x="387" y="280" type="curve" smooth="yes"/>
      <point x="329" y="280"/>
      <point x="321" y="392"/>
      <point x="218" y="392" type="curve" smooth="yes"/>
      <point x="168" y="392"/>
      <point x="114" y="366"/>
      <point x="75" y="237" type="curve"/>
      <point x="138" y="221" type="line"/>
      <point x="167" y="302"/>
      <point x="192" y="320"/>
      <point x="217" y="320" type="curve" smooth="yes"/>
      <point x="275" y="320"/>
      <point x="282" y="208"/>
    </contour>
  </outline>
</glyph>
<glyph name="exclamdown" format="1">
  <advance width="280"/>
  <unicode hex="00A1"/>
  <outline>
    <contour>
      <point x="137" y="495" type="line"/>
      <point x="121" y="403" type="line"/>
      <point x="213" y="403" type="line"/>
      <point x="229" y="495" type="line"/>
    </contour>
    <contour>
      <point x="118" y="312" type="line"/>
      <point x="66" y="65" type="line"/>
      <point x="22" y="-185" type="line"/>
      <point x="104" y="-185" type="line"/>
      <point x="148" y="65" type="line"/>
      <point x="184" y="312" type="line"/>
    </contour>
  </outline>
</glyph>
<glyph name="cent" format="1">
  <advance width="445"/>
  <unicode hex="00A2"/>
  <outline>
    <contour>
      <point x="380" y="19" type="curve"/>
      <point x="366" y="90" type="line"/>
      <point x="320" y="73"/>
      <point x="280" y="65"/>
      <point x="245" y="65" type="curve" smooth="yes"/>
      <point x="149" y="65"/>
      <point x="126" y="135"/>
      <point x="142" y="234" type="curve" smooth="yes"/>
      <point x="151" y="288" type="line" smooth="yes"/>
      <point x="166" y="378"/>
      <point x="217" y="429"/>
      <point x="291" y="429" type="curve" smooth="yes"/>
      <point x="326" y="429"/>
      <point x="365" y="417"/>
      <point x="407" y="397" type="curve"/>
      <point x="436" y="467" type="line"/>
      <point x="406" y="482"/>
      <point x="375" y="493"/>
      <point x="344" y="499" type="curve"/>
      <point x="365" y="620" type="line"/>
      <point x="285" y="620" type="line"/>
      <point x="265" y="504" type="line"/>
      <point x="160" y="493"/>
      <point x="90" y="413"/>
      <point x="69" y="288" type="curve" smooth="yes"/>
      <point x="61" y="237" type="line" smooth="yes"/>
      <point x="42" y="118"/>
      <point x="75" y="24"/>
      <point x="176" y="-3" type="curve"/>
      <point x="154" y="-125" type="line"/>
      <point x="234" y="-125" type="line"/>
      <point x="254" y="-10" type="line"/>
      <point x="293" y="-7"/>
      <point x="335" y="2"/>
    </contour>
  </outline>
</glyph>
<glyph name="sterling" format="1">
  <advance width="486"/>
  <unicode hex="00A3"/>
  <outline>
    <contour>
      <point x="430" y="81" type="line"/>
      <point x="150" y="81" type="line"/>
      <point x="221" y="153"/>
      <point x="250" y="213"/>
      <point x="250" y="273" type="curve" smooth="yes"/>
      <point x="250" y="279" type="line"/>
      <point x="396" y="279" type="line"/>
      <point x="410" y="355" type="line"/>
      <point x="237" y="355" type="line"/>
      <point x="225" y="396"/>
      <point x="210" y="437"/>
      <point x="210" y="485" type="curve" smooth="yes"/>
      <point x="210" y="564"/>
      <point x="252" y="609"/>
      <point x="337" y="609" type="curve" smooth="yes"/>
      <point x="378" y="609"/>
      <point x="423" y="599"/>
      <point x="479" y="572" type="curve"/>
      <point x="512" y="648" type="line"/>
      <point x="451" y="677"/>
      <point x="393" y="690"/>
      <point x="335" y="690" type="curve" smooth="yes"/>
      <point x="174" y="690"/>
      <point x="120" y="593"/>
      <point x="120" y="490" type="curve" smooth="yes"/>
      <point x="120" y="436"/>
      <point x="134" y="395"/>
      <point x="145" y="355" type="curve"/>
      <point x="80" y="355" type="line"/>
      <point x="66" y="279" type="line"/>
      <point x="161" y="279" type="line"/>
      <point x="162" y="275"/>
      <point x="162" y="270"/>
      <point x="162" y="265" type="curve" smooth="yes"/>
      <point x="162" y="216"/>
      <point x="143" y="166"/>
      <point x="38" y="69" type="curve"/>
      <point x="25" y="0" type="line"/>
      <point x="416" y="0" type="line"/>
    </contour>
  </outline>
</glyph>
<glyph name="currency" format="1">
  <advance width="576"/>
  <unicode hex="00A4"/>
  <outline>
    <contour>
      <point x="282" y="103" type="curve" smooth="yes"/>
      <point x="322" y="103"/>
      <point x="359" y="113"/>
      <point x="390" y="131" type="curve"/>
      <point x="468" y="33" type="line"/>
      <point x="519" y="78" type="line"/>
      <point x="442" y="175" type="line"/>
      <point x="474" y="212"/>
      <point x="493" y="263"/>
      <point x="493" y="318" type="curve" smooth="yes"/>
      <point x="493" y="354"/>
      <point x="485" y="385"/>
      <point x="471" y="412" type="curve"/>
      <point x="595" y="520" type="line"/>
      <point x="554" y="569" type="line"/>
      <point x="429" y="460" type="line"/>
      <point x="399" y="484"/>
      <point x="359" y="497"/>
      <point x="313" y="497" type="curve" smooth="yes"/>
      <point x="272" y="497"/>
      <point x="235" y="486"/>
      <point x="203" y="468" type="curve"/>
      <point x="125" y="566" type="line"/>
      <point x="75" y="522" type="line"/>
      <point x="152" y="424" type="line"/>
      <point x="120" y="386"/>
      <point x="102" y="337"/>
      <point x="102" y="282" type="curve" smooth="yes"/>
      <point x="102" y="246"/>
      <point x="110" y="215"/>
      <point x="124" y="189" type="curve"/>
      <point x="0" y="79" type="line"/>
      <point x="40" y="31" type="line"/>
      <point x="166" y="140" type="line"/>
      <point x="196" y="116"/>
      <point x="236" y="103"/>
    </contour>
    <contour>
      <point x="312" y="431" type="curve" smooth="yes"/>
      <point x="381" y="431"/>
      <point x="422" y="388"/>
      <point x="422" y="315" type="curve" smooth="yes"/>
      <point x="422" y="232"/>
      <point x="365" y="169"/>
      <point x="284" y="169" type="curve" smooth="yes"/>
      <point x="215" y="169"/>
      <point x="173" y="212"/>
      <point x="173" y="284" type="curve" smooth="yes"/>
      <point x="173" y="367"/>
      <point x="230" y="431"/>
    </contour>
  </outline>
</glyph>
<glyph name="yen" format="1">
  <advance width="554"/>
  <unicode hex="00A5"/>
  <outline>
    <contour>
      <point x="488" y="164" type="line"/>
      <point x="500" y="232" type="line"/>
      <point x="317" y="232" type="line"/>
      <point x="324" y="271" type="line"/>
      <point x="366" y="332" type="line"/>
      <point x="517" y="332" type="line"/>
      <point x="529" y="400" type="line"/>
      <point x="412" y="400" type="line"/>
      <point x="604" y="680" type="line"/>
      <point x="508" y="680" type="line"/>
      <point x="294" y="358" type="line"/>
      <point x="190" y="680" type="line"/>
      <point x="101" y="680" type="line"/>
      <point x="194" y="400" type="line"/>
      <point x="79" y="400" type="line"/>
      <point x="67" y="332" type="line"/>
      <point x="217" y="332" type="line"/>
      <point x="237" y="271" type="line"/>
      <point x="230" y="232" type="line"/>
      <point x="49" y="232" type="line"/>
      <point x="37" y="164" type="line"/>
      <point x="218" y="164" type="line"/>
      <point x="189" y="0" type="line"/>
      <point x="276" y="0" type="line"/>
      <point x="305" y="164" type="line"/>
    </contour>
  </outline>
</glyph>
<glyph name="brokenbar" format="1">
  <advance width="282"/>
  <unicode hex="00A6"/>
  <outline>
    <contour>
      <point x="187" y="740" type="line"/>
      <point x="119" y="357" type="line"/>
      <point x="201" y="357" type="line"/>
      <point x="269" y="740" type="line"/>
    </contour>
    <contour>
      <point x="86" y="170" type="line"/>
      <point x="19" y="-213" type="line"/>
      <point x="101" y="-213" type="line"/>
      <point x="168" y="170" type="line"/>
    </contour>
  </outline>
</glyph>
<glyph name="section" format="1">
  <advance width="507"/>
  <unicode hex="00A7"/>
  <outline>
    <contour>
      <point x="392" y="-33" type="curve" smooth="yes"/>
      <point x="392" y="17"/>
      <point x="376" y="55"/>
      <point x="346" y="84" type="curve"/>
      <point x="423" y="117"/>
      <point x="464" y="179"/>
      <point x="464" y="242" type="curve" smooth="yes"/>
      <point x="464" y="321"/>
      <point x="419" y="369"/>
      <point x="346" y="399" type="curve" smooth="yes"/>
      <point x="281" y="427" type="line" smooth="yes"/>
      <point x="225" y="450"/>
      <point x="204" y="473"/>
      <point x="204" y="512" type="curve" smooth="yes"/>
      <point x="204" y="572"/>
      <point x="247" y="611"/>
      <point x="328" y="611" type="curve" smooth="yes"/>
      <point x="376" y="611"/>
      <point x="420" y="599"/>
      <point x="475" y="573" type="curve"/>
      <point x="507" y="648" type="line"/>
      <point x="447" y="676"/>
      <point x="390" y="690"/>
      <point x="330" y="690" type="curve" smooth="yes"/>
      <point x="178" y="690"/>
      <point x="115" y="606"/>
      <point x="115" y="507" type="curve" smooth="yes"/>
      <point x="115" y="461"/>
      <point x="130" y="425"/>
      <point x="161" y="396" type="curve"/>
      <point x="89" y="366"/>
      <point x="37" y="309"/>
      <point x="37" y="233" type="curve" smooth="yes"/>
      <point x="37" y="166"/>
      <point x="76" y="116"/>
      <point x="158" y="82" type="curve" smooth="yes"/>
      <point x="230" y="52" type="line" smooth="yes"/>
      <point x="281" y="31"/>
      <point x="303" y="3"/>
      <point x="303" y="-40" type="curve" smooth="yes"/>
      <point x="303" y="-104"/>
      <point x="254" y="-144"/>
      <point x="161" y="-144" type="curve" smooth="yes"/>
      <point x="108" y="-144"/>
      <point x="60" y="-131"/>
      <point x="-2" y="-101" type="curve"/>
      <point x="-34" y="-176" type="line"/>
      <point x="32" y="-209"/>
      <point x="95" y="-223"/>
      <point x="160" y="-223" type="curve" smooth="yes"/>
      <point x="328" y="-223"/>
      <point x="392" y="-131"/>
    </contour>
    <contour>
      <point x="280" y="125" type="curve" smooth="yes"/>
      <point x="208" y="155" type="line" smooth="yes"/>
      <point x="149" y="180"/>
      <point x="126" y="203"/>
      <point x="126" y="244" type="curve" smooth="yes"/>
      <point x="126" y="294"/>
      <point x="158" y="333"/>
      <point x="223" y="356" type="curve"/>
      <point x="226" y="355"/>
      <point x="228" y="354"/>
      <point x="231" y="353" type="curve" smooth="yes"/>
      <point x="296" y="326" type="line" smooth="yes"/>
      <point x="351" y="303"/>
      <point x="375" y="275"/>
      <point x="375" y="229" type="curve" smooth="yes"/>
      <point x="375" y="182"/>
      <point x="341" y="147"/>
      <point x="285" y="123" type="curve"/>
      <point x="283" y="124"/>
      <point x="282" y="124"/>
    </contour>
  </outline>
</glyph>
<glyph name="dieresis" format="1">
  <advance width="500"/>
  <unicode hex="00A8"/>
  <outline>
    <contour>
      <point x="263" y="619" type="line"/>
      <point x="278" y="705" type="line"/>
      <point x="192" y="705" type="line"/>
      <point x="177" y="619" type="line"/>
    </contour>
    <contour>
      <point x="454" y="619" type="line"/>
      <point x="469" y="705" type="line"/>
      <point x="383" y="705" type="line"/>
      <point x="368" y="619" type="line"/>
    </contour>
  </outline>
</glyph>
<glyph name="copyright" format="1">
  <advance width="840"/>
  <unicode hex="00A9"/>
  <outline>
    <contour>
      <point x="436" y="-37" type="curve" smooth="yes"/>
      <point x="650" y="-37"/>
      <point x="808" y="122"/>
      <point x="808" y="340" type="curve" smooth="yes"/>
      <point x="808" y="558"/>
      <point x="650" y="717"/>
      <point x="436" y="717" type="curve" smooth="yes"/>
      <point x="221" y="717"/>
      <point x="64" y="558"/>
      <point x="64" y="340" type="curve" smooth="yes"/>
      <point x="64" y="122"/>
      <point x="221" y="-37"/>
    </contour>
    <contour>
      <point x="436" y="21" type="curve" smooth="yes"/>
      <point x="258" y="21"/>
      <point x="128" y="153"/>
      <point x="128" y="340" type="curve" smooth="yes"/>
      <point x="128" y="525"/>
      <point x="258" y="659"/>
      <point x="436" y="659" type="curve" smooth="yes"/>
      <point x="614" y="659"/>
      <point x="744" y="525"/>
      <point x="744" y="340" type="curve" smooth="yes"/>
      <point x="744" y="153"/>
      <point x="614" y="21"/>
    </contour>
    <contour>
      <point x="336" y="361" type="line" smooth="yes"/>
      <point x="336" y="445"/>
      <point x="367" y="490"/>
      <point x="439" y="490" type="curve" smooth="yes"/>
      <point x="472" y="490"/>
      <point x="507" y="480"/>
      <point x="543" y="464" type="curve"/>
      <point x="567" y="525" type="line"/>
      <point x="525" y="547"/>
      <point x="477" y="557"/>
      <point x="434" y="557" type="curve" smooth="yes"/>
      <point x="320" y="557"/>
      <point x="261" y="484"/>
      <point x="261" y="361" type="curve" smooth="yes"/>
      <point x="261" y="320" type="line" smooth="yes"/>
      <point x="261" y="196"/>
      <point x="320" y="123"/>
      <point x="434" y="123" type="curve" smooth="yes"/>
      <point x="481" y="123"/>
      <point x="531" y="135"/>
      <point x="576" y="158" type="curve"/>
      <point x="552" y="219" type="line"/>
      <point x="513" y="200"/>
      <point x="475" y="190"/>
      <point x="439" y="190" type="curve" smooth="yes"/>
      <point x="367" y="190"/>
      <point x="336" y="234"/>
      <point x="336" y="320" type="curve" smooth="yes"/>
    </contour>
  </outline>
</glyph>
<glyph name="ordfeminine" format="1">
  <advance width="362"/>
  <unicode hex="00AA"/>
  <outline>
    <contour>
      <point x="344" y="338" type="curve" smooth="yes"/>
      <point x="356" y="338" type="line"/>
      <point x="367" y="399" type="line"/>
      <point x="357" y="399" type="line" smooth="yes"/>
      <point x="335" y="399"/>
      <point x="331" y="412"/>
      <point x="335" y="437" type="curve" smooth="yes"/>
      <point x="371" y="642" type="line"/>
      <point x="330" y="669"/>
      <point x="285" y="685"/>
      <point x="240" y="685" type="curve" smooth="yes"/>
      <point x="150" y="685"/>
      <point x="93" y="627"/>
      <point x="78" y="529" type="curve" smooth="yes"/>
      <point x="73" y="496" type="line" smooth="yes"/>
      <point x="59" y="403"/>
      <point x="93" y="335"/>
      <point x="161" y="335" type="curve" smooth="yes"/>
      <point x="194" y="335"/>
      <point x="231" y="350"/>
      <point x="271" y="395" type="curve"/>
      <point x="276" y="363"/>
      <point x="298" y="338"/>
    </contour>
    <contour>
      <point x="139" y="496" type="curve" smooth="yes"/>
      <point x="144" y="529" type="line" smooth="yes"/>
      <point x="152" y="586"/>
      <point x="184" y="625"/>
      <point x="240" y="625" type="curve" smooth="yes"/>
      <point x="260" y="625"/>
      <point x="281" y="620"/>
      <point x="303" y="609" type="curve"/>
      <point x="278" y="467" type="line"/>
      <point x="238" y="413"/>
      <point x="203" y="394"/>
      <point x="177" y="394" type="curve" smooth="yes"/>
      <point x="143" y="394"/>
      <point x="129" y="431"/>
    </contour>
  </outline>
</glyph>
<glyph name="guillemotleft" format="1">
  <advance width="667"/>
  <unicode hex="00AB"/>
  <outline>
    <contour>
      <point x="296" y="98" type="line"/>
      <point x="119" y="241" type="line"/>
      <point x="346" y="382" type="line"/>
      <point x="362" y="478" type="line"/>
      <point x="42" y="274" type="line"/>
      <point x="33" y="221" type="line"/>
      <point x="280" y="14" type="line"/>
    </contour>
    <contour>
      <point x="586" y="98" type="line"/>
      <point x="409" y="241" type="line"/>
      <point x="636" y="382" type="line"/>
      <point x="652" y="478" type="line"/>
      <point x="332" y="274" type="line"/>
      <point x="323" y="221" type="line"/>
      <point x="570" y="14" type="line"/>
    </contour>
  </outline>
</glyph>
<glyph name="logicalnot" format="1">
  <advance width="588"/>
  <unicode hex="00AC"/>
  <outline>
    <contour>
      <point x="109" y="376" type="line"/>
      <point x="449" y="376" type="line"/>
      <point x="419" y="205" type="line"/>
      <point x="493" y="205" type="line"/>
      <point x="536" y="448" type="line"/>
      <point x="122" y="448" type="line"/>
    </contour>
  </outline>
</glyph>
<glyph name="registered" format="1">
  <advance width="547"/>
  <unicode hex="00AE"/>
  <outline>
    <contour>
      <point x="314" y="241" type="curve" smooth="yes"/>
      <point x="448" y="241"/>
      <point x="548" y="343"/>
      <point x="548" y="479" type="curve" smooth="yes"/>
      <point x="548" y="616"/>
      <point x="448" y="717"/>
      <point x="314" y="717" type="curve" smooth="yes"/>
      <point x="180" y="717"/>
      <point x="80" y="616"/>
      <point x="80" y="479" type="curve" smooth="yes"/>
      <point x="80" y="343"/>
      <point x="180" y="241"/>
    </contour>
    <contour>
      <point x="314" y="290" type="curve" smooth="yes"/>
      <point x="209" y="290"/>
      <point x="133" y="370"/>
      <point x="133" y="479" type="curve" smooth="yes"/>
      <point x="133" y="588"/>
      <point x="209" y="668"/>
      <point x="314" y="668" type="curve" smooth="yes"/>
      <point x="418" y="668"/>
      <point x="495" y="588"/>
      <point x="495" y="479" type="curve" smooth="yes"/>
      <point x="495" y="370"/>
      <point x="418" y="290"/>
    </contour>
    <contour>
      <point x="232" y="353" type="line"/>
      <point x="283" y="353" type="line"/>
      <point x="283" y="439" type="line"/>
      <point x="316" y="439" type="line"/>
      <point x="332" y="411"/>
      <point x="345" y="383"/>
      <point x="358" y="353" type="curve"/>
      <point x="416" y="353" type="line"/>
      <point x="402" y="387"/>
      <point x="385" y="419"/>
      <point x="366" y="450" type="curve"/>
      <point x="388" y="463"/>
      <point x="401" y="487"/>
      <point x="401" y="517" type="curve" smooth="yes"/>
      <point x="401" y="531" type="line" smooth="yes"/>
      <point x="401" y="577"/>
      <point x="371" y="608"/>
      <point x="319" y="608" type="curve" smooth="yes"/>
      <point x="232" y="608" type="line"/>
    </contour>
    <contour>
      <point x="319" y="559" type="line" smooth="yes"/>
      <point x="336" y="559"/>
      <point x="347" y="548"/>
      <point x="347" y="531" type="curve" smooth="yes"/>
      <point x="347" y="517" type="line" smooth="yes"/>
      <point x="347" y="499"/>
      <point x="336" y="488"/>
      <point x="319" y="488" type="curve" smooth="yes"/>
      <point x="283" y="488" type="line"/>
      <point x="283" y="559" type="line"/>
    </contour>
  </outline>
</glyph>
<glyph name="macron" format="1">
  <advance width="500"/>
  <unicode hex="00AF"/>
  <outline>
    <contour>
      <point x="467" y="672" type="line"/>
      <point x="182" y="672" type="line"/>
      <point x="170" y="609" type="line"/>
      <point x="456" y="609" type="line"/>
    </contour>
  </outline>
</glyph>
<glyph name="degree" format="1">
  <advance width="366"/>
  <unicode hex="00B0"/>
  <outline>
    <contour>
      <point x="219" y="366" type="curve" smooth="yes"/>
      <point x="319" y="366"/>
      <point x="392" y="445"/>
      <point x="392" y="544" type="curve" smooth="yes"/>
      <point x="392" y="633"/>
      <point x="334" y="690"/>
      <point x="245" y="690" type="curve" smooth="yes"/>
      <point x="144" y="690"/>
      <point x="71" y="610"/>
      <point x="71" y="511" type="curve" smooth="yes"/>
      <point x="71" y="422"/>
      <point x="129" y="366"/>
    </contour>
    <contour>
      <point x="244" y="628" type="curve" smooth="yes"/>
      <point x="294" y="628"/>
      <point x="325" y="596"/>
      <point x="325" y="542" type="curve" smooth="yes"/>
      <point x="325" y="477"/>
      <point x="281" y="428"/>
      <point x="220" y="428" type="curve" smooth="yes"/>
      <point x="169" y="428"/>
      <point x="138" y="459"/>
      <point x="138" y="513" type="curve" smooth="yes"/>
      <point x="138" y="578"/>
      <point x="182" y="628"/>
    </contour>
  </outline>
</glyph>
<glyph name="plusminus" format="1">
  <advance width="588"/>
  <unicode hex="00B1"/>
  <outline>
    <contour>
      <point x="510" y="302" type="line"/>
      <point x="523" y="374" type="line"/>
      <point x="353" y="374" type="line"/>
      <point x="383" y="545" type="line"/>
      <point x="309" y="545" type="line"/>
      <point x="279" y="374" type="line"/>
      <point x="109" y="374" type="line"/>
      <point x="96" y="302" type="line"/>
      <point x="266" y="302" type="line"/>
      <point x="236" y="131" type="line"/>
      <point x="310" y="131" type="line"/>
      <point x="340" y="302" type="line"/>
    </contour>
    <contour>
      <point x="43" y="0" type="line"/>
      <point x="457" y="0" type="line"/>
      <point x="469" y="71" type="line"/>
      <point x="55" y="71" type="line"/>
    </contour>
  </outline>
</glyph>
<glyph name="acute" format="1">
  <advance width="500"/>
  <unicode hex="00B4"/>
  <outline>
    <contour>
      <point x="346" y="579" type="line"/>
      <point x="466" y="709" type="line"/>
      <point x="389" y="745" type="line"/>
      <point x="270" y="579" type="line"/>
    </contour>
  </outline>
</glyph>
<glyph name="mu" format="1">
  <advance width="566"/>
  <unicode hex="00B5"/>
  <outline>
    <contour>
      <point x="104" y="-125" type="line"/>
      <point x="114" y="23" type="line"/>
      <point x="130" y="2"/>
      <point x="156" y="-10"/>
      <point x="190" y="-10" type="curve" smooth="yes"/>
      <point x="236" y="-10"/>
      <point x="296" y="10"/>
      <point x="374" y="93" type="curve"/>
      <point x="373" y="37"/>
      <point x="401" y="-5"/>
      <point x="473" y="-5" type="curve" smooth="yes"/>
      <point x="490" y="-5" type="line"/>
      <point x="504" y="70" type="line"/>
      <point x="490" y="70" type="line" smooth="yes"/>
      <point x="456" y="70"/>
      <point x="449" y="95"/>
      <point x="456" y="135" type="curve" smooth="yes"/>
      <point x="520" y="495" type="line"/>
      <point x="438" y="495" type="line"/>
      <point x="381" y="176" type="line"/>
      <point x="297" y="86"/>
      <point x="246" y="67"/>
      <point x="209" y="67" type="curve" smooth="yes"/>
      <point x="165" y="67"/>
      <point x="145" y="102"/>
      <point x="158" y="175" type="curve" smooth="yes"/>
      <point x="214" y="495" type="line"/>
      <point x="132" y="495" type="line"/>
      <point x="6" y="-213" type="line"/>
      <point x="88" y="-213" type="line"/>
    </contour>
  </outline>
</glyph>
<glyph name="paragraph" format="1">
  <advance width="563"/>
  <unicode hex="00B6"/>
  <outline>
    <contour>
      <point x="299" y="-143" type="line"/>
      <point x="386" y="-143" type="line"/>
      <point x="531" y="680" type="line"/>
      <point x="444" y="680" type="line"/>
    </contour>
    <contour>
      <point x="376" y="680" type="line"/>
      <point x="309" y="680" type="line" smooth="yes"/>
      <point x="178" y="680"/>
      <point x="106" y="611"/>
      <point x="87" y="502" type="curve" smooth="yes"/>
      <point x="77" y="447" type="line" smooth="yes"/>
      <point x="57" y="333"/>
      <point x="119" y="248"/>
      <point x="255" y="248" type="curve" smooth="yes"/>
      <point x="300" y="248" type="line"/>
    </contour>
  </outline>
</glyph>
<glyph name="cedilla" format="1">
  <advance width="500"/>
  <unicode hex="00B8"/>
  <outline>
    <contour>
      <point x="284" y="-126" type="curve" smooth="yes"/>
      <point x="284" y="-79"/>
      <point x="252" y="-51"/>
      <point x="197" y="-50" type="curve"/>
      <point x="215" y="0" type="line"/>
      <point x="156" y="0" type="line"/>
      <point x="132" y="-67" type="line"/>
      <point x="148" y="-105" type="line"/>
      <point x="157" y="-104"/>
      <point x="165" y="-103"/>
      <point x="173" y="-103" type="curve" smooth="yes"/>
      <point x="205" y="-103"/>
      <point x="216" y="-114"/>
      <point x="216" y="-130" type="curve" smooth="yes"/>
      <point x="216" y="-147"/>
      <point x="201" y="-164"/>
      <point x="161" y="-164" type="curve" smooth="yes"/>
      <point x="143" y="-164"/>
      <point x="119" y="-160"/>
      <point x="97" y="-152" type="curve"/>
      <point x="83" y="-208" type="line"/>
      <point x="110" y="-217"/>
      <point x="134" y="-223"/>
      <point x="163" y="-223" type="curve" smooth="yes"/>
      <point x="245" y="-223"/>
      <point x="284" y="-177"/>
    </contour>
  </outline>
</glyph>
<glyph name="ordmasculine" format="1">
  <advance width="349"/>
  <unicode hex="00BA"/>
  <outline>
    <contour>
      <point x="368" y="517" type="line" smooth="yes"/>
      <point x="383" y="610"/>
      <point x="337" y="685"/>
      <point x="238" y="685" type="curve" smooth="yes"/>
      <point x="149" y="685"/>
      <point x="93" y="629"/>
      <point x="78" y="537" type="curve" smooth="yes"/>
      <point x="73" y="502" type="line" smooth="yes"/>
      <point x="57" y="406"/>
      <point x="104" y="335"/>
      <point x="203" y="335" type="curve" smooth="yes"/>
      <point x="291" y="335"/>
      <point x="347" y="386"/>
      <point x="363" y="482" type="curve" smooth="yes"/>
    </contour>
    <contour>
      <point x="303" y="518" type="curve" smooth="yes"/>
      <point x="298" y="482" type="line" smooth="yes"/>
      <point x="289" y="424"/>
      <point x="254" y="395"/>
      <point x="204" y="395" type="curve" smooth="yes"/>
      <point x="151" y="395"/>
      <point x="128" y="436"/>
      <point x="138" y="501" type="curve" smooth="yes"/>
      <point x="143" y="537" type="line" smooth="yes"/>
      <point x="152" y="593"/>
      <point x="187" y="625"/>
      <point x="238" y="625" type="curve" smooth="yes"/>
      <point x="291" y="625"/>
      <point x="312" y="580"/>
    </contour>
  </outline>
</glyph>
<glyph name="guillemotright" format="1">
  <advance width="667"/>
  <unicode hex="00BB"/>
  <outline>
    <contour>
      <point x="334" y="218" type="line"/>
      <point x="343" y="271" type="line"/>
      <point x="96" y="478" type="line"/>
      <point x="80" y="393" type="line"/>
      <point x="256" y="250" type="line"/>
      <point x="30" y="109" type="line"/>
      <point x="14" y="14" type="line"/>
    </contour>
    <contour>
      <point x="624" y="218" type="line"/>
      <point x="633" y="271" type="line"/>
      <point x="386" y="478" type="line"/>
      <point x="370" y="393" type="line"/>
      <point x="546" y="250" type="line"/>
      <point x="320" y="109" type="line"/>
      <point x="304" y="14" type="line"/>
    </contour>
  </outline>
</glyph>
<glyph name="questiondown" format="1">
  <advance width="439"/>
  <unicode hex="00BF"/>
  <outline>
    <contour>
      <point x="244" y="495" type="line"/>
      <point x="228" y="403" type="line"/>
      <point x="319" y="403" type="line"/>
      <point x="335" y="495" type="line"/>
    </contour>
    <contour>
      <point x="185" y="-119" type="curve" smooth="yes"/>
      <point x="107" y="-119"/>
      <point x="74" y="-81"/>
      <point x="85" y="-22" type="curve" smooth="yes"/>
      <point x="88" y="-4" type="line" smooth="yes"/>
      <point x="97" y="44"/>
      <point x="121" y="72"/>
      <point x="159" y="103" type="curve" smooth="yes"/>
      <point x="197" y="136" type="line" smooth="yes"/>
      <point x="265" y="194"/>
      <point x="285" y="223"/>
      <point x="297" y="290" type="curve" smooth="yes"/>
      <point x="301" y="312" type="line"/>
      <point x="217" y="312" type="line"/>
      <point x="213" y="293" type="line" smooth="yes"/>
      <point x="206" y="253"/>
      <point x="194" y="233"/>
      <point x="148" y="193" type="curve" smooth="yes"/>
      <point x="111" y="160" type="line" smooth="yes"/>
      <point x="53" y="110"/>
      <point x="18" y="77"/>
      <point x="5" y="8" type="curve" smooth="yes"/>
      <point x="2" y="-10" type="line" smooth="yes"/>
      <point x="-16" y="-111"/>
      <point x="38" y="-195"/>
      <point x="181" y="-195" type="curve" smooth="yes"/>
      <point x="237" y="-195"/>
      <point x="301" y="-182"/>
      <point x="371" y="-152" type="curve"/>
      <point x="352" y="-80" type="line"/>
      <point x="284" y="-108"/>
      <point x="231" y="-119"/>
    </contour>
  </outline>
</glyph>
<glyph name="Aring" format="1">
  <advance width="577"/>
  <unicode hex="00C5"/>
  <outline>
    <contour>
      <point x="146" y="158" type="line"/>
      <point x="401" y="158" type="line"/>
      <point x="425" y="0" type="line"/>
      <point x="512" y="0" type="line"/>
      <point x="412" y="634" type="line"/>
      <point x="452" y="649"/>
      <point x="478" y="683"/>
      <point x="485" y="726" type="curve" smooth="yes"/>
      <point x="488" y="741" type="line" smooth="yes"/>
      <point x="498" y="805"/>
      <point x="457" y="853"/>
      <point x="385" y="853" type="curve" smooth="yes"/>
      <point x="318" y="853"/>
      <point x="272" y="812"/>
      <point x="262" y="752" type="curve" smooth="yes"/>
      <point x="260" y="737" type="line" smooth="yes"/>
      <point x="253" y="693"/>
      <point x="269" y="658"/>
      <point x="302" y="639" type="curve"/>
      <point x="-22" y="0" type="line"/>
      <point x="67" y="0" type="line"/>
    </contour>
    <contour>
      <point x="429" y="747" type="curve" smooth="yes"/>
      <point x="427" y="732" type="line" smooth="yes"/>
      <point x="421" y="699"/>
      <point x="397" y="680"/>
      <point x="365" y="680" type="curve" smooth="yes"/>
      <point x="331" y="680"/>
      <point x="313" y="701"/>
      <point x="318" y="732" type="curve" smooth="yes"/>
      <point x="321" y="746" type="line" smooth="yes"/>
      <point x="326" y="779"/>
      <point x="351" y="798"/>
      <point x="382" y="798" type="curve" smooth="yes"/>
      <point x="416" y="798"/>
      <point x="434" y="776"/>
    </contour>
    <contour>
      <point x="243" y="354" type="line"/>
      <point x="345" y="562" type="line"/>
      <point x="373" y="354" type="line"/>
      <point x="390" y="237" type="line"/>
      <point x="185" y="237" type="line"/>
    </contour>
  </outline>
</glyph>
<glyph name="AE" format="1">
  <advance width="834"/>
  <unicode hex="00C6"/>
  <outline>
    <contour>
      <point x="-40" y="0" type="line"/>
      <point x="59" y="0" type="line"/>
      <point x="169" y="158" type="line"/>
      <point x="393" y="158" type="line"/>
      <point x="365" y="0" type="line"/>
      <point x="745" y="0" type="line"/>
      <point x="759" y="81" type="line"/>
      <point x="466" y="81" type="line"/>
      <point x="506" y="303" type="line"/>
      <point x="758" y="303" type="line"/>
      <point x="773" y="385" type="line"/>
      <point x="520" y="385" type="line"/>
      <point x="558" y="598" type="line"/>
      <point x="840" y="598" type="line"/>
      <point x="855" y="680" type="line"/>
      <point x="437" y="680" type="line"/>
    </contour>
    <contour>
      <point x="223" y="237" type="line"/>
      <point x="469" y="591" type="line"/>
      <point x="407" y="237" type="line"/>
    </contour>
  </outline>
</glyph>
<glyph name="Ccedilla" format="1">
  <advance width="533"/>
  <unicode hex="00C7"/>
  <outline>
    <contour>
      <point x="347" y="-126" type="curve" smooth="yes"/>
      <point x="347" y="-79"/>
      <point x="315" y="-51"/>
      <point x="261" y="-50" type="curve"/>
      <point x="275" y="-10" type="line"/>
      <point x="281" y="-10" type="line" smooth="yes"/>
      <point x="329" y="-10"/>
      <point x="393" y="-1"/>
      <point x="461" y="24" type="curve"/>
      <point x="440" y="99" type="line"/>
      <point x="376" y="75"/>
      <point x="326" y="70"/>
      <point x="290" y="70" type="curve" smooth="yes"/>
      <point x="187" y="70"/>
      <point x="148" y="147"/>
      <point x="172" y="281" type="curve" smooth="yes"/>
      <point x="194" y="411" type="line" smooth="yes"/>
      <point x="217" y="538"/>
      <point x="275" y="609"/>
      <point x="376" y="609" type="curve" smooth="yes"/>
      <point x="421" y="609"/>
      <point x="463" y="598"/>
      <point x="518" y="571" type="curve"/>
      <point x="549" y="648" type="line"/>
      <point x="491" y="677"/>
      <point x="434" y="690"/>
      <point x="380" y="690" type="curve" smooth="yes"/>
      <point x="219" y="690"/>
      <point x="136" y="594"/>
      <point x="104" y="411" type="curve" smooth="yes"/>
      <point x="82" y="281" type="line" smooth="yes"/>
      <point x="56" y="130"/>
      <point x="107" y="24"/>
      <point x="219" y="-3" type="curve"/>
      <point x="196" y="-67" type="line"/>
      <point x="212" y="-105" type="line"/>
      <point x="221" y="-104"/>
      <point x="229" y="-103"/>
      <point x="237" y="-103" type="curve" smooth="yes"/>
      <point x="269" y="-103"/>
      <point x="279" y="-114"/>
      <point x="279" y="-130" type="curve" smooth="yes"/>
      <point x="279" y="-147"/>
      <point x="265" y="-164"/>
      <point x="225" y="-164" type="curve" smooth="yes"/>
      <point x="207" y="-164"/>
      <point x="183" y="-160"/>
      <point x="161" y="-152" type="curve"/>
      <point x="147" y="-208" type="line"/>
      <point x="174" y="-217"/>
      <point x="198" y="-223"/>
      <point x="227" y="-223" type="curve" smooth="yes"/>
      <point x="309" y="-223"/>
      <point x="347" y="-177"/>
    </contour>
  </outline>
</glyph>
<glyph name="Eth" format="1">
  <advance width="647"/>
  <unicode hex="00D0"/>
  <outline>
    <contour>
      <point x="53" y="384" type="line"/>
      <point x="39" y="305" type="line"/>
      <point x="126" y="305" type="line"/>
      <point x="72" y="0" type="line"/>
      <point x="293" y="0" type="line" smooth="yes"/>
      <point x="447" y="0"/>
      <point x="544" y="100"/>
      <point x="572" y="264" type="curve" smooth="yes"/>
      <point x="596" y="399" type="line" smooth="yes"/>
      <point x="625" y="564"/>
      <point x="543" y="680"/>
      <point x="385" y="680" type="curve" smooth="yes"/>
      <point x="192" y="680" type="line"/>
      <point x="140" y="384" type="line"/>
    </contour>
    <contour>
      <point x="350" y="305" type="line"/>
      <point x="364" y="384" type="line"/>
      <point x="227" y="384" type="line"/>
      <point x="265" y="598" type="line"/>
      <point x="381" y="598" type="line" smooth="yes"/>
      <point x="485" y="598"/>
      <point x="528" y="522"/>
      <point x="506" y="399" type="curve" smooth="yes"/>
      <point x="482" y="264" type="line" smooth="yes"/>
      <point x="462" y="148"/>
      <point x="396" y="81"/>
      <point x="296" y="81" type="curve" smooth="yes"/>
      <point x="173" y="81" type="line"/>
      <point x="213" y="305" type="line"/>
    </contour>
  </outline>
</glyph>
<glyph name="multiply" format="1">
  <advance width="588"/>
  <unicode hex="00D7"/>
  <outline>
    <contour>
      <point x="422" y="106" type="line"/>
      <point x="477" y="153" type="line"/>
      <point x="354" y="300" type="line"/>
      <point x="528" y="451" type="line"/>
      <point x="484" y="505" type="line"/>
      <point x="309" y="354" type="line"/>
      <point x="186" y="500" type="line"/>
      <point x="130" y="452" type="line"/>
      <point x="253" y="306" type="line"/>
      <point x="79" y="155" type="line"/>
      <point x="123" y="101" type="line"/>
      <point x="298" y="253" type="line"/>
    </contour>
  </outline>
</glyph>
<glyph name="Oslash" format="1">
  <advance width="648"/>
  <unicode hex="00D8"/>
  <outline>
    <contour>
      <point x="294" y="-10" type="curve" smooth="yes"/>
      <point x="447" y="-10"/>
      <point x="543" y="94"/>
      <point x="573" y="264" type="curve" smooth="yes"/>
      <point x="596" y="399" type="line" smooth="yes"/>
      <point x="610" y="478"/>
      <point x="600" y="547"/>
      <point x="569" y="597" type="curve"/>
      <point x="651" y="710" type="line"/>
      <point x="568" y="710" type="line"/>
      <point x="523" y="648" type="line"/>
      <point x="488" y="675"/>
      <point x="441" y="690"/>
      <point x="386" y="690" type="curve" smooth="yes"/>
      <point x="231" y="690"/>
      <point x="136" y="584"/>
      <point x="107" y="417" type="curve" smooth="yes"/>
      <point x="83" y="282" type="line" smooth="yes"/>
      <point x="69" y="201"/>
      <point x="79" y="132"/>
      <point x="110" y="81" type="curve"/>
      <point x="29" y="-30" type="line"/>
      <point x="112" y="-30" type="line"/>
      <point x="156" y="31" type="line"/>
      <point x="192" y="4"/>
      <point x="238" y="-10"/>
    </contour>
    <contour>
      <point x="173" y="282" type="curve" smooth="yes"/>
      <point x="197" y="417" type="line" smooth="yes"/>
      <point x="218" y="537"/>
      <point x="283" y="609"/>
      <point x="382" y="609" type="curve" smooth="yes"/>
      <point x="420" y="609"/>
      <point x="450" y="598"/>
      <point x="472" y="578" type="curve"/>
      <point x="172" y="167" type="line"/>
      <point x="165" y="198"/>
      <point x="165" y="237"/>
    </contour>
    <contour>
      <point x="506" y="399" type="curve" smooth="yes"/>
      <point x="483" y="264" type="line" smooth="yes"/>
      <point x="461" y="142"/>
      <point x="396" y="70"/>
      <point x="297" y="70" type="curve" smooth="yes"/>
      <point x="259" y="70"/>
      <point x="229" y="81"/>
      <point x="207" y="101" type="curve"/>
      <point x="507" y="512" type="line"/>
      <point x="514" y="481"/>
      <point x="514" y="443"/>
    </contour>
  </outline>
</glyph>
<glyph name="Thorn" format="1">
  <advance width="564"/>
  <unicode hex="00DE"/>
  <outline>
    <contour>
      <point x="307" y="128" type="line" smooth="yes"/>
      <point x="438" y="128"/>
      <point x="510" y="196"/>
      <point x="529" y="306" type="curve" smooth="yes"/>
      <point x="539" y="360" type="line" smooth="yes"/>
      <point x="559" y="475"/>
      <point x="497" y="560"/>
      <point x="361" y="560" type="curve" smooth="yes"/>
      <point x="248" y="560" type="line"/>
      <point x="269" y="680" type="line"/>
      <point x="182" y="680" type="line"/>
      <point x="62" y="0" type="line"/>
      <point x="149" y="0" type="line"/>
      <point x="172" y="128" type="line"/>
    </contour>
    <contour>
      <point x="357" y="478" type="line" smooth="yes"/>
      <point x="430" y="478"/>
      <point x="463" y="434"/>
      <point x="449" y="361" type="curve" smooth="yes"/>
      <point x="440" y="308" type="line" smooth="yes"/>
      <point x="428" y="246"/>
      <point x="382" y="209"/>
      <point x="310" y="209" type="curve" smooth="yes"/>
      <point x="186" y="209" type="line"/>
      <point x="233" y="478" type="line"/>
    </contour>
  </outline>
</glyph>
<glyph name="germandbls" format="1">
  <advance width="611"/>
  <unicode hex="00DF"/>
  <outline>
    <contour>
      <point x="562" y="153" type="curve" smooth="yes"/>
      <point x="562" y="202"/>
      <point x="545" y="241"/>
      <point x="503" y="276" type="curve" smooth="yes"/>
      <point x="459" y="312" type="line" smooth="yes"/>
      <point x="431" y="336"/>
      <point x="422" y="356"/>
      <point x="422" y="378" type="curve" smooth="yes"/>
      <point x="422" y="453"/>
      <point x="530" y="510"/>
      <point x="530" y="617" type="curve" smooth="yes"/>
      <point x="530" y="709"/>
      <point x="452" y="750"/>
      <point x="363" y="750" type="curve" smooth="yes"/>
      <point x="233" y="750"/>
      <point x="179" y="675"/>
      <point x="160" y="569" type="curve" smooth="yes"/>
      <point x="147" y="495" type="line"/>
      <point x="61" y="495" type="line"/>
      <point x="49" y="423" type="line"/>
      <point x="134" y="423" type="line"/>
      <point x="60" y="0" type="line"/>
      <point x="142" y="0" type="line"/>
      <point x="243" y="569" type="line" smooth="yes"/>
      <point x="256" y="644"/>
      <point x="294" y="675"/>
      <point x="361" y="675" type="curve" smooth="yes"/>
      <point x="412" y="675"/>
      <point x="446" y="653"/>
      <point x="446" y="611" type="curve" smooth="yes"/>
      <point x="446" y="534"/>
      <point x="339" y="469"/>
      <point x="339" y="368" type="curve" smooth="yes"/>
      <point x="339" y="324"/>
      <point x="358" y="286"/>
      <point x="397" y="254" type="curve" smooth="yes"/>
      <point x="441" y="218" type="line" smooth="yes"/>
      <point x="468" y="195"/>
      <point x="479" y="172"/>
      <point x="479" y="145" type="curve" smooth="yes"/>
      <point x="479" y="101"/>
      <point x="450" y="62"/>
      <point x="380" y="62" type="curve" smooth="yes"/>
      <point x="346" y="62"/>
      <point x="307" y="71"/>
      <point x="263" y="94" type="curve"/>
      <point x="237" y="23" type="line"/>
      <point x="286" y="0"/>
      <point x="335" y="-10"/>
      <point x="381" y="-10" type="curve" smooth="yes"/>
      <point x="509" y="-10"/>
      <point x="562" y="66"/>
    </contour>
  </outline>
</glyph>
<glyph name="ae" format="1">
  <advance width="776"/>
  <unicode hex="00E6"/>
  <outline>
    <contour>
      <point x="680" y="20" type="curve"/>
      <point x="667" y="90" type="line"/>
      <point x="615" y="72"/>
      <point x="565" y="64"/>
      <point x="529" y="64" type="curve" smooth="yes"/>
      <point x="423" y="64"/>
      <point x="397" y="129"/>
      <point x="410" y="222" type="curve"/>
      <point x="699" y="222" type="line"/>
      <point x="728" y="271"/>
      <point x="738" y="314"/>
      <point x="738" y="352" type="curve" smooth="yes"/>
      <point x="738" y="458"/>
      <point x="653" y="505"/>
      <point x="568" y="505" type="curve" smooth="yes"/>
      <point x="499" y="505"/>
      <point x="444" y="476"/>
      <point x="405" y="427" type="curve"/>
      <point x="384" y="472"/>
      <point x="337" y="505"/>
      <point x="255" y="505" type="curve" smooth="yes"/>
      <point x="212" y="505"/>
      <point x="162" y="496"/>
      <point x="101" y="477" type="curve"/>
      <point x="119" y="409" type="line"/>
      <point x="172" y="424"/>
      <point x="215" y="429"/>
      <point x="249" y="429" type="curve" smooth="yes"/>
      <point x="312" y="429"/>
      <point x="361" y="403"/>
      <point x="347" y="325" type="curve" smooth="yes"/>
      <point x="336" y="264" type="line"/>
      <point x="289" y="272"/>
      <point x="239" y="277"/>
      <point x="201" y="277" type="curve" smooth="yes"/>
      <point x="59" y="277"/>
      <point x="22" y="195"/>
      <point x="22" y="118" type="curve" smooth="yes"/>
      <point x="22" y="41"/>
      <point x="61" y="-10"/>
      <point x="146" y="-10" type="curve" smooth="yes"/>
      <point x="200" y="-10"/>
      <point x="269" y="9"/>
      <point x="342" y="90" type="curve"/>
      <point x="368" y="28"/>
      <point x="426" y="-10"/>
      <point x="522" y="-10" type="curve" smooth="yes"/>
      <point x="569" y="-10"/>
      <point x="622" y="-1"/>
    </contour>
    <contour>
      <point x="563" y="432" type="curve" smooth="yes"/>
      <point x="616" y="432"/>
      <point x="657" y="406"/>
      <point x="657" y="350" type="curve" smooth="yes"/>
      <point x="657" y="332"/>
      <point x="654" y="312"/>
      <point x="643" y="289" type="curve"/>
      <point x="421" y="289" type="line"/>
      <point x="436" y="379"/>
      <point x="487" y="432"/>
    </contour>
    <contour>
      <point x="106" y="125" type="curve" smooth="yes"/>
      <point x="106" y="173"/>
      <point x="129" y="212"/>
      <point x="203" y="212" type="curve" smooth="yes"/>
      <point x="234" y="212"/>
      <point x="282" y="208"/>
      <point x="327" y="200" type="curve"/>
      <point x="326" y="185"/>
      <point x="326" y="171"/>
      <point x="327" y="157" type="curve"/>
      <point x="257" y="71"/>
      <point x="195" y="60"/>
      <point x="163" y="60" type="curve" smooth="yes"/>
      <point x="123" y="60"/>
      <point x="106" y="83"/>
    </contour>
  </outline>
</glyph>
<glyph name="ccedilla" format="1">
  <advance width="451"/>
  <unicode hex="00E7"/>
  <outline>
    <contour>
      <point x="294" y="-126" type="curve" smooth="yes"/>
      <point x="294" y="-79"/>
      <point x="262" y="-51"/>
      <point x="207" y="-50" type="curve"/>
      <point x="222" y="-10" type="line"/>
      <point x="238" y="-10" type="line" smooth="yes"/>
      <point x="281" y="-10"/>
      <point x="328" y="0"/>
      <point x="380" y="19" type="curve"/>
      <point x="366" y="90" type="line"/>
      <point x="320" y="73"/>
      <point x="280" y="65"/>
      <point x="245" y="65" type="curve" smooth="yes"/>
      <point x="149" y="65"/>
      <point x="126" y="135"/>
      <point x="142" y="234" type="curve" smooth="yes"/>
      <point x="151" y="288" type="line" smooth="yes"/>
      <point x="166" y="378"/>
      <point x="217" y="429"/>
      <point x="291" y="429" type="curve" smooth="yes"/>
      <point x="326" y="429"/>
      <point x="365" y="417"/>
      <point x="407" y="397" type="curve"/>
      <point x="436" y="467" type="line"/>
      <point x="387" y="491"/>
      <point x="337" y="505"/>
      <point x="289" y="505" type="curve" smooth="yes"/>
      <point x="171" y="505"/>
      <point x="92" y="422"/>
      <point x="69" y="288" type="curve" smooth="yes"/>
      <point x="61" y="237" type="line" smooth="yes"/>
      <point x="42" y="122"/>
      <point x="73" y="29"/>
      <point x="167" y="0" type="curve"/>
      <point x="142" y="-67" type="line"/>
      <point x="158" y="-105" type="line"/>
      <point x="167" y="-104"/>
      <point x="175" y="-103"/>
      <point x="183" y="-103" type="curve" smooth="yes"/>
      <point x="215" y="-103"/>
      <point x="226" y="-114"/>
      <point x="226" y="-130" type="curve" smooth="yes"/>
      <point x="226" y="-147"/>
      <point x="211" y="-164"/>
      <point x="171" y="-164" type="curve" smooth="yes"/>
      <point x="153" y="-164"/>
      <point x="129" y="-160"/>
      <point x="107" y="-152" type="curve"/>
      <point x="93" y="-208" type="line"/>
      <point x="120" y="-217"/>
      <point x="144" y="-223"/>
      <point x="173" y="-223" type="curve" smooth="yes"/>
      <point x="255" y="-223"/>
      <point x="294" y="-177"/>
    </contour>
  </outline>
</glyph>
<glyph name="eth" format="1">
  <advance width="538"/>
  <unicode hex="00F0"/>
  <outline>
    <contour>
      <point x="479" y="244" type="curve" smooth="yes"/>
      <point x="486" y="284" type="line" smooth="yes"/>
      <point x="505" y="391"/>
      <point x="487" y="504"/>
      <point x="414" y="606" type="curve"/>
      <point x="516" y="668" type="line"/>
      <point x="530" y="750" type="line"/>
      <point x="374" y="656" type="line"/>
      <point x="343" y="689"/>
      <point x="305" y="721"/>
      <point x="260" y="750" type="curve"/>
      <point x="217" y="688" type="line"/>
      <point x="252" y="665"/>
      <point x="282" y="640"/>
      <point x="307" y="615" type="curve"/>
      <point x="214" y="559" type="line"/>
      <point x="200" y="477" type="line"/>
      <point x="348" y="566" type="line"/>
      <point x="394" y="500"/>
      <point x="413" y="428"/>
      <point x="409" y="349" type="curve"/>
      <point x="375" y="419"/>
      <point x="315" y="442"/>
      <point x="258" y="442" type="curve" smooth="yes"/>
      <point x="158" y="442"/>
      <point x="76" y="374"/>
      <point x="56" y="256" type="curve" smooth="yes"/>
      <point x="50" y="220" type="line" smooth="yes"/>
      <point x="26" y="80"/>
      <point x="97" y="-10"/>
      <point x="228" y="-10" type="curve" smooth="yes"/>
      <point x="358" y="-10"/>
      <point x="448" y="68"/>
    </contour>
    <contour>
      <point x="133" y="207" type="curve" smooth="yes"/>
      <point x="139" y="243" type="line" smooth="yes"/>
      <point x="153" y="321"/>
      <point x="202" y="366"/>
      <point x="262" y="366" type="curve" smooth="yes"/>
      <point x="306" y="366"/>
      <point x="361" y="342"/>
      <point x="396" y="257" type="curve"/>
      <point x="371" y="120"/>
      <point x="314" y="64"/>
      <point x="232" y="64" type="curve" smooth="yes"/>
      <point x="154" y="64"/>
      <point x="118" y="122"/>
    </contour>
  </outline>
</glyph>
<glyph name="divide" format="1">
  <advance width="588"/>
  <unicode hex="00F7"/>
  <outline>
    <contour>
      <point x="377" y="456" type="line"/>
      <point x="393" y="547" type="line"/>
      <point x="301" y="547" type="line"/>
      <point x="285" y="456" type="line"/>
    </contour>
    <contour>
      <point x="90" y="266" type="line"/>
      <point x="504" y="266" type="line"/>
      <point x="516" y="338" type="line"/>
      <point x="102" y="338" type="line"/>
    </contour>
    <contour>
      <point x="306" y="53" type="line"/>
      <point x="322" y="145" type="line"/>
      <point x="230" y="145" type="line"/>
      <point x="214" y="53" type="line"/>
    </contour>
  </outline>
</glyph>
<glyph name="oslash" format="1">
  <advance width="543"/>
  <unicode hex="00F8"/>
  <outline>
    <contour>
      <point x="245" y="-10" type="curve" smooth="yes"/>
      <point x="372" y="-10"/>
      <point x="453" y="67"/>
      <point x="475" y="208" type="curve" smooth="yes"/>
      <point x="483" y="258" type="line" smooth="yes"/>
      <point x="494" y="325"/>
      <point x="483" y="385"/>
      <point x="454" y="429" type="curve"/>
      <point x="530" y="525" type="line"/>
      <point x="451" y="525" type="line"/>
      <point x="410" y="474" type="line"/>
      <point x="381" y="494"/>
      <point x="343" y="505"/>
      <point x="297" y="505" type="curve" smooth="yes"/>
      <point x="169" y="505"/>
      <point x="89" y="424"/>
      <point x="67" y="288" type="curve" smooth="yes"/>
      <point x="59" y="237" type="line" smooth="yes"/>
      <point x="48" y="168"/>
      <point x="58" y="108"/>
      <point x="88" y="65" type="curve"/>
      <point x="13" y="-30" type="line"/>
      <point x="92" y="-30" type="line"/>
      <point x="132" y="20" type="line"/>
      <point x="161" y="1"/>
      <point x="199" y="-10"/>
    </contour>
    <contour>
      <point x="144" y="235" type="curve" smooth="yes"/>
      <point x="152" y="288" type="line" smooth="yes"/>
      <point x="167" y="379"/>
      <point x="219" y="430"/>
      <point x="296" y="430" type="curve" smooth="yes"/>
      <point x="322" y="430"/>
      <point x="344" y="423"/>
      <point x="360" y="410" type="curve"/>
      <point x="147" y="139" type="line"/>
      <point x="139" y="166"/>
      <point x="138" y="198"/>
    </contour>
    <contour>
      <point x="398" y="260" type="curve" smooth="yes"/>
      <point x="390" y="208" type="line" smooth="yes"/>
      <point x="375" y="113"/>
      <point x="323" y="64"/>
      <point x="246" y="64" type="curve" smooth="yes"/>
      <point x="220" y="64"/>
      <point x="198" y="71"/>
      <point x="182" y="84" type="curve"/>
      <point x="396" y="355" type="line"/>
      <point x="403" y="328"/>
      <point x="404" y="296"/>
    </contour>
  </outline>
</glyph>
<glyph name="Aogonek" format="1">
  <advance width="577"/>
  <unicode hex="0104"/>
  <outline>
    <contour>
      <point x="482" y="-206" type="curve"/>
      <point x="471" y="-143" type="line"/>
      <point x="451" y="-151"/>
      <point x="433" y="-155"/>
      <point x="417" y="-155" type="curve" smooth="yes"/>
      <point x="395" y="-155"/>
      <point x="384" y="-145"/>
      <point x="384" y="-128" type="curve" smooth="yes"/>
      <point x="384" y="-101"/>
      <point x="406" y="-72"/>
      <point x="512" y="0" type="curve"/>
      <point x="405" y="680" type="line"/>
      <point x="323" y="680" type="line"/>
      <point x="-22" y="0" type="line"/>
      <point x="67" y="0" type="line"/>
      <point x="146" y="158" type="line"/>
      <point x="402" y="158" type="line"/>
      <point x="424" y="6" type="line"/>
      <point x="331" y="-60"/>
      <point x="306" y="-103"/>
      <point x="306" y="-146" type="curve" smooth="yes"/>
      <point x="306" y="-196"/>
      <point x="340" y="-223"/>
      <point x="400" y="-223" type="curve" smooth="yes"/>
      <point x="427" y="-223"/>
      <point x="454" y="-217"/>
    </contour>
    <contour>
      <point x="243" y="354" type="line"/>
      <point x="345" y="562" type="line"/>
      <point x="373" y="354" type="line"/>
      <point x="390" y="237" type="line"/>
      <point x="185" y="237" type="line"/>
    </contour>
  </outline>
</glyph>
<glyph name="aogonek" format="1">
  <advance width="549"/>
  <unicode hex="0105"/>
  <outline>
    <contour>
      <point x="444" y="-206" type="curve"/>
      <point x="433" y="-143" type="line"/>
      <point x="413" y="-151"/>
      <point x="395" y="-155"/>
      <point x="379" y="-155" type="curve" smooth="yes"/>
      <point x="357" y="-155"/>
      <point x="346" y="-145"/>
      <point x="346" y="-128" type="curve" smooth="yes"/>
      <point x="346" y="-102"/>
      <point x="369" y="-76"/>
      <point x="473" y="-5" type="curve"/>
      <point x="487" y="70" type="line"/>
      <point x="473" y="70" type="line" smooth="yes"/>
      <point x="439" y="70"/>
      <point x="432" y="95"/>
      <point x="439" y="135" type="curve" smooth="yes"/>
      <point x="493" y="442" type="line"/>
      <point x="431" y="482"/>
      <point x="365" y="505"/>
      <point x="298" y="505" type="curve" smooth="yes"/>
      <point x="170" y="505"/>
      <point x="89" y="419"/>
      <point x="68" y="277" type="curve" smooth="yes"/>
      <point x="61" y="228" type="line" smooth="yes"/>
      <point x="41" y="91"/>
      <point x="89" y="-10"/>
      <point x="187" y="-10" type="curve" smooth="yes"/>
      <point x="238" y="-10"/>
      <point x="295" y="13"/>
      <point x="358" y="81" type="curve"/>
      <point x="360" y="50"/>
      <point x="372" y="24"/>
      <point x="397" y="9" type="curve"/>
      <point x="296" y="-60"/>
      <point x="268" y="-103"/>
      <point x="268" y="-146" type="curve" smooth="yes"/>
      <point x="268" y="-196"/>
      <point x="302" y="-223"/>
      <point x="362" y="-223" type="curve" smooth="yes"/>
      <point x="389" y="-223"/>
      <point x="416" y="-217"/>
    </contour>
    <contour>
      <point x="146" y="228" type="curve" smooth="yes"/>
      <point x="153" y="277" type="line" smooth="yes"/>
      <point x="166" y="368"/>
      <point x="216" y="430"/>
      <point x="303" y="430" type="curve" smooth="yes"/>
      <point x="335" y="430"/>
      <point x="368" y="421"/>
      <point x="404" y="403" type="curve"/>
      <point x="365" y="181" type="line"/>
      <point x="303" y="94"/>
      <point x="249" y="64"/>
      <point x="209" y="64" type="curve" smooth="yes"/>
      <point x="155" y="64"/>
      <point x="131" y="123"/>
    </contour>
  </outline>
</glyph>
<glyph name="Eogonek" format="1">
  <advance width="531"/>
  <unicode hex="0118"/>
  <outline>
    <contour>
      <point x="413" y="-206" type="curve"/>
      <point x="402" y="-143" type="line"/>
      <point x="381" y="-151"/>
      <point x="363" y="-155"/>
      <point x="347" y="-155" type="curve" smooth="yes"/>
      <point x="325" y="-155"/>
      <point x="314" y="-145"/>
      <point x="314" y="-128" type="curve" smooth="yes"/>
      <point x="314" y="-101"/>
      <point x="336" y="-72"/>
      <point x="442" y="0" type="curve"/>
      <point x="456" y="81" type="line"/>
      <point x="163" y="81" type="line"/>
      <point x="203" y="303" type="line"/>
      <point x="455" y="303" type="line"/>
      <point x="470" y="385" type="line"/>
      <point x="217" y="385" type="line"/>
      <point x="255" y="598" type="line"/>
      <point x="537" y="598" type="line"/>
      <point x="552" y="680" type="line"/>
      <point x="182" y="680" type="line"/>
      <point x="62" y="0" type="line"/>
      <point x="350" y="0" type="line"/>
      <point x="261" y="-63"/>
      <point x="236" y="-105"/>
      <point x="236" y="-146" type="curve" smooth="yes"/>
      <point x="236" y="-196"/>
      <point x="271" y="-223"/>
      <point x="330" y="-223" type="curve" smooth="yes"/>
      <point x="357" y="-223"/>
      <point x="384" y="-217"/>
    </contour>
  </outline>
</glyph>
<glyph name="eogonek" format="1">
  <advance width="505"/>
  <unicode hex="0119"/>
  <outline>
    <contour>
      <point x="368" y="-206" type="curve"/>
      <point x="357" y="-143" type="line"/>
      <point x="337" y="-151"/>
      <point x="319" y="-155"/>
      <point x="303" y="-155" type="curve" smooth="yes"/>
      <point x="281" y="-155"/>
      <point x="270" y="-145"/>
      <point x="270" y="-128" type="curve" smooth="yes"/>
      <point x="270" y="-98"/>
      <point x="295" y="-63"/>
      <point x="409" y="20" type="curve"/>
      <point x="396" y="90" type="line"/>
      <point x="344" y="72"/>
      <point x="294" y="64"/>
      <point x="257" y="64" type="curve" smooth="yes"/>
      <point x="153" y="64"/>
      <point x="126" y="128"/>
      <point x="138" y="220" type="curve"/>
      <point x="427" y="220" type="line"/>
      <point x="457" y="270"/>
      <point x="467" y="313"/>
      <point x="467" y="352" type="curve" smooth="yes"/>
      <point x="467" y="458"/>
      <point x="385" y="505"/>
      <point x="295" y="505" type="curve" smooth="yes"/>
      <point x="173" y="505"/>
      <point x="90" y="418"/>
      <point x="69" y="288" type="curve" smooth="yes"/>
      <point x="60" y="237" type="line" smooth="yes"/>
      <point x="37" y="96"/>
      <point x="90" y="-10"/>
      <point x="250" y="-10" type="curve" smooth="yes"/>
      <point x="259" y="-10"/>
      <point x="269" y="-10"/>
      <point x="279" y="-9" type="curve"/>
      <point x="212" y="-66"/>
      <point x="192" y="-108"/>
      <point x="192" y="-146" type="curve" smooth="yes"/>
      <point x="192" y="-196"/>
      <point x="226" y="-223"/>
      <point x="286" y="-223" type="curve" smooth="yes"/>
      <point x="313" y="-223"/>
      <point x="340" y="-217"/>
    </contour>
    <contour>
      <point x="292" y="432" type="curve" smooth="yes"/>
      <point x="346" y="432"/>
      <point x="387" y="406"/>
      <point x="387" y="350" type="curve" smooth="yes"/>
      <point x="387" y="333"/>
      <point x="384" y="312"/>
      <point x="374" y="290" type="curve"/>
      <point x="150" y="290" type="line"/>
      <point x="165" y="379"/>
      <point x="216" y="432"/>
    </contour>
  </outline>
</glyph>
<glyph name="Hbar" format="1">
  <advance width="703"/>
  <unicode hex="0126"/>
  <outline>
    <contour>
      <point x="211" y="303" type="line"/>
      <point x="508" y="303" type="line"/>
      <point x="455" y="0" type="line"/>
      <point x="542" y="0" type="line"/>
      <point x="631" y="504" type="line"/>
      <point x="718" y="504" type="line"/>
      <point x="730" y="571" type="line"/>
      <point x="643" y="571" type="line"/>
      <point x="662" y="680" type="line"/>
      <point x="575" y="680" type="line"/>
      <point x="556" y="571" type="line"/>
      <point x="259" y="571" type="line"/>
      <point x="278" y="680" type="line"/>
      <point x="191" y="680" type="line"/>
      <point x="172" y="571" type="line"/>
      <point x="86" y="571" type="line"/>
      <point x="74" y="504" type="line"/>
      <point x="160" y="504" type="line"/>
      <point x="71" y="0" type="line"/>
      <point x="158" y="0" type="line"/>
    </contour>
    <contour>
      <point x="226" y="385" type="line"/>
      <point x="247" y="504" type="line"/>
      <point x="544" y="504" type="line"/>
      <point x="523" y="385" type="line"/>
    </contour>
  </outline>
</glyph>
<glyph name="hbar" format="1">
  <advance width="571"/>
  <unicode hex="0127"/>
  <outline>
    <contour>
      <point x="182" y="317" type="line"/>
      <point x="267" y="409"/>
      <point x="323" y="428"/>
      <point x="361" y="428" type="curve" smooth="yes"/>
      <point x="410" y="428"/>
      <point x="432" y="392"/>
      <point x="418" y="320" type="curve" smooth="yes"/>
      <point x="362" y="0" type="line"/>
      <point x="444" y="0" type="line"/>
      <point x="502" y="327" type="line" smooth="yes"/>
      <point x="520" y="433"/>
      <point x="475" y="505"/>
      <point x="383" y="505" type="curve" smooth="yes"/>
      <point x="334" y="505"/>
      <point x="274" y="487"/>
      <point x="198" y="409" type="curve"/>
      <point x="229" y="588" type="line"/>
      <point x="384" y="588" type="line"/>
      <point x="395" y="648" type="line"/>
      <point x="240" y="648" type="line"/>
      <point x="256" y="740" type="line"/>
      <point x="174" y="740" type="line"/>
      <point x="158" y="648" type="line"/>
      <point x="72" y="648" type="line"/>
      <point x="61" y="588" type="line"/>
      <point x="147" y="588" type="line"/>
      <point x="44" y="0" type="line"/>
      <point x="126" y="0" type="line"/>
    </contour>
  </outline>
</glyph>
<glyph name="Iogonek" format="1">
  <advance width="300"/>
  <unicode hex="012E"/>
  <outline>
    <contour>
      <point x="144" y="-206" type="curve"/>
      <point x="133" y="-143" type="line"/>
      <point x="113" y="-151"/>
      <point x="94" y="-155"/>
      <point x="78" y="-155" type="curve" smooth="yes"/>
      <point x="56" y="-155"/>
      <point x="46" y="-145"/>
      <point x="46" y="-130" type="curve" smooth="yes"/>
      <point x="46" y="-101"/>
      <point x="74" y="-64"/>
      <point x="149" y="0" type="curve"/>
      <point x="269" y="680" type="line"/>
      <point x="182" y="680" type="line"/>
      <point x="63" y="-1" type="line"/>
      <point x="-5" y="-59"/>
      <point x="-32" y="-106"/>
      <point x="-32" y="-148" type="curve" smooth="yes"/>
      <point x="-32" y="-196"/>
      <point x="2" y="-223"/>
      <point x="61" y="-223" type="curve" smooth="yes"/>
      <point x="88" y="-223"/>
      <point x="115" y="-217"/>
    </contour>
  </outline>
</glyph>
<glyph name="iogonek" format="1">
  <advance width="260"/>
  <unicode hex="012F"/>
  <outline>
    <contour>
      <point x="237" y="619" type="line"/>
      <point x="252" y="705" type="line"/>
      <point x="167" y="705" type="line"/>
      <point x="152" y="619" type="line"/>
    </contour>
    <contour>
      <point x="121" y="-206" type="curve"/>
      <point x="110" y="-143" type="line"/>
      <point x="90" y="-151"/>
      <point x="71" y="-155"/>
      <point x="55" y="-155" type="curve" smooth="yes"/>
      <point x="33" y="-155"/>
      <point x="23" y="-145"/>
      <point x="23" y="-130" type="curve" smooth="yes"/>
      <point x="23" y="-101"/>
      <point x="51" y="-64"/>
      <point x="126" y="0" type="curve"/>
      <point x="214" y="495" type="line"/>
      <point x="132" y="495" type="line"/>
      <point x="45" y="4" type="line"/>
      <point x="-26" y="-57"/>
      <point x="-55" y="-105"/>
      <point x="-55" y="-148" type="curve" smooth="yes"/>
      <point x="-55" y="-196"/>
      <point x="-20" y="-223"/>
      <point x="38" y="-223" type="curve" smooth="yes"/>
      <point x="65" y="-223"/>
      <point x="92" y="-217"/>
    </contour>
  </outline>
</glyph>
<glyph name="dotlessi" format="1">
  <advance width="259"/>
  <unicode hex="0131"/>
  <outline>
    <contour>
      <point x="126" y="0" type="line"/>
      <point x="214" y="495" type="line"/>
      <point x="132" y="495" type="line"/>
      <point x="44" y="0" type="line"/>
    </contour>
  </outline>
</glyph>
<glyph name="kgreenlandic" format="1">
  <advance width="508"/>
  <unicode hex="0138"/>
  <outline>
    <contour>
      <point x="351" y="0" type="line"/>
      <point x="446" y="0" type="line"/>
      <point x="318" y="278" type="line"/>
      <point x="391" y="347"/>
      <point x="454" y="414"/>
      <point x="515" y="495" type="curve"/>
      <point x="417" y="495" type="line"/>
      <point x="348" y="401"/>
      <point x="269" y="327"/>
      <point x="170" y="245" type="curve"/>
      <point x="214" y="495" type="line"/>
      <point x="132" y="495" type="line"/>
      <point x="44" y="0" type="line"/>
      <point x="126" y="0" type="line"/>
      <point x="153" y="152" type="line"/>
      <point x="188" y="178"/>
      <point x="221" y="203"/>
      <point x="251" y="230" type="curve"/>
    </contour>
  </outline>
</glyph>
<glyph name="Lslash" format="1">
  <advance width="516"/>
  <unicode hex="0141"/>
  <outline>
    <contour>
      <point x="459" y="81" type="line"/>
      <point x="173" y="81" type="line"/>
      <point x="214" y="313" type="line"/>
      <point x="363" y="378" type="line"/>
      <point x="378" y="468" type="line"/>
      <point x="230" y="404" type="line"/>
      <point x="279" y="680" type="line"/>
      <point x="192" y="680" type="line"/>
      <point x="136" y="363" type="line"/>
      <point x="42" y="322" type="line"/>
      <point x="27" y="232" type="line"/>
      <point x="120" y="272" type="line"/>
      <point x="72" y="0" type="line"/>
      <point x="445" y="0" type="line"/>
    </contour>
  </outline>
</glyph>
<glyph name="lslash" format="1">
  <advance width="302"/>
  <unicode hex="0142"/>
  <outline>
    <contour>
      <point x="217" y="70" type="line"/>
      <point x="203" y="70" type="line" smooth="yes"/>
      <point x="166" y="70"/>
      <point x="161" y="87"/>
      <point x="168" y="124" type="curve" smooth="yes"/>
      <point x="208" y="353" type="line"/>
      <point x="304" y="403" type="line"/>
      <point x="319" y="486" type="line"/>
      <point x="223" y="436" type="line"/>
      <point x="276" y="740" type="line"/>
      <point x="194" y="740" type="line"/>
      <point x="132" y="389" type="line"/>
      <point x="38" y="340" type="line"/>
      <point x="23" y="257" type="line"/>
      <point x="118" y="306" type="line"/>
      <point x="86" y="125" type="line" smooth="yes"/>
      <point x="73" y="49"/>
      <point x="94" y="-5"/>
      <point x="187" y="-5" type="curve" smooth="yes"/>
      <point x="204" y="-5" type="line"/>
    </contour>
  </outline>
</glyph>
<glyph name="Eng" format="1">
  <advance width="690"/>
  <unicode hex="014A"/>
  <outline>
    <contour>
      <point x="62" y="0" type="line"/>
      <point x="145" y="0" type="line"/>
      <point x="194" y="278" type="line"/>
      <point x="240" y="561" type="line"/>
      <point x="322" y="378"/>
      <point x="384" y="220"/>
      <point x="453" y="1" type="curve"/>
      <point x="431" y="-110"/>
      <point x="384" y="-139"/>
      <point x="272" y="-139" type="curve"/>
      <point x="257" y="-223" type="line"/>
      <point x="458" y="-223"/>
      <point x="513" y="-145"/>
      <point x="541" y="8" type="curve"/>
      <point x="659" y="680" type="line"/>
      <point x="577" y="680" type="line"/>
      <point x="527" y="400" type="line"/>
      <point x="491" y="139" type="line"/>
      <point x="428" y="335"/>
      <point x="360" y="492"/>
      <point x="273" y="680" type="curve"/>
      <point x="182" y="680" type="line"/>
    </contour>
  </outline>
</glyph>
<glyph name="eng" format="1">
  <advance width="571"/>
  <unicode hex="014B"/>
  <outline>
    <contour>
      <point x="440" y="-23" type="curve" smooth="yes"/>
      <point x="502" y="327" type="line" smooth="yes"/>
      <point x="523" y="431"/>
      <point x="475" y="505"/>
      <point x="383" y="505" type="curve" smooth="yes"/>
      <point x="334" y="505"/>
      <point x="272" y="486"/>
      <point x="194" y="404" type="curve"/>
      <point x="209" y="495" type="line"/>
      <point x="132" y="495" type="line"/>
      <point x="44" y="0" type="line"/>
      <point x="126" y="0" type="line"/>
      <point x="182" y="317" type="line"/>
      <point x="267" y="409"/>
      <point x="323" y="428"/>
      <point x="361" y="428" type="curve" smooth="yes"/>
      <point x="410" y="428"/>
      <point x="431" y="392"/>
      <point x="418" y="320" type="curve" smooth="yes"/>
      <point x="357" y="-23" type="line" smooth="yes"/>
      <point x="340" y="-120"/>
      <point x="298" y="-145"/>
      <point x="227" y="-145" type="curve"/>
      <point x="214" y="-223" type="line"/>
      <point x="370" y="-223"/>
      <point x="418" y="-148"/>
    </contour>
  </outline>
</glyph>
<glyph name="OE" format="1">
  <advance width="868"/>
  <unicode hex="0152"/>
  <outline>
    <contour>
      <point x="107" y="416" type="curve" smooth="yes"/>
      <point x="83" y="281" type="line" smooth="yes"/>
      <point x="54" y="115"/>
      <point x="136" y="0"/>
      <point x="294" y="0" type="curve" smooth="yes"/>
      <point x="780" y="0" type="line"/>
      <point x="794" y="81" type="line"/>
      <point x="501" y="81" type="line"/>
      <point x="541" y="303" type="line"/>
      <point x="793" y="303" type="line"/>
      <point x="807" y="385" type="line"/>
      <point x="555" y="385" type="line"/>
      <point x="593" y="598" type="line"/>
      <point x="875" y="598" type="line"/>
      <point x="889" y="680" type="line"/>
      <point x="386" y="680" type="line" smooth="yes"/>
      <point x="232" y="680"/>
      <point x="135" y="580"/>
    </contour>
    <contour>
      <point x="298" y="81" type="line" smooth="yes"/>
      <point x="194" y="81"/>
      <point x="151" y="157"/>
      <point x="173" y="281" type="curve" smooth="yes"/>
      <point x="197" y="416" type="line" smooth="yes"/>
      <point x="217" y="531"/>
      <point x="283" y="598"/>
      <point x="383" y="598" type="curve" smooth="yes"/>
      <point x="506" y="598" type="line"/>
      <point x="414" y="81" type="line"/>
    </contour>
  </outline>
</glyph>
<glyph name="oe" format="1">
  <advance width="841"/>
  <unicode hex="0153"/>
  <outline>
    <contour>
      <point x="745" y="20" type="curve"/>
      <point x="732" y="90" type="line"/>
      <point x="679" y="72"/>
      <point x="629" y="64"/>
      <point x="593" y="64" type="curve" smooth="yes"/>
      <point x="487" y="64"/>
      <point x="461" y="129"/>
      <point x="474" y="222" type="curve"/>
      <point x="764" y="222" type="line"/>
      <point x="792" y="271"/>
      <point x="802" y="314"/>
      <point x="802" y="352" type="curve" smooth="yes"/>
      <point x="802" y="458"/>
      <point x="718" y="505"/>
      <point x="632" y="505" type="curve" smooth="yes"/>
      <point x="555" y="505"/>
      <point x="495" y="467"/>
      <point x="457" y="403" type="curve"/>
      <point x="431" y="465"/>
      <point x="376" y="505"/>
      <point x="295" y="505" type="curve" smooth="yes"/>
      <point x="169" y="505"/>
      <point x="89" y="424"/>
      <point x="67" y="288" type="curve" smooth="yes"/>
      <point x="59" y="237" type="line" smooth="yes"/>
      <point x="37" y="94"/>
      <point x="104" y="-10"/>
      <point x="244" y="-10" type="curve" smooth="yes"/>
      <point x="323" y="-10"/>
      <point x="382" y="23"/>
      <point x="420" y="85" type="curve"/>
      <point x="445" y="26"/>
      <point x="499" y="-10"/>
      <point x="589" y="-10" type="curve" smooth="yes"/>
      <point x="634" y="-10"/>
      <point x="687" y="-1"/>
    </contour>
    <contour>
      <point x="628" y="432" type="curve" smooth="yes"/>
      <point x="681" y="432"/>
      <point x="722" y="406"/>
      <point x="722" y="350" type="curve" smooth="yes"/>
      <point x="722" y="332"/>
      <point x="718" y="312"/>
      <point x="707" y="289" type="curve"/>
      <point x="485" y="289" type="line"/>
      <point x="501" y="379"/>
      <point x="552" y="432"/>
    </contour>
    <contour>
      <point x="398" y="260" type="curve" smooth="yes"/>
      <point x="390" y="208" type="line" smooth="yes"/>
      <point x="375" y="113"/>
      <point x="323" y="64"/>
      <point x="246" y="64" type="curve" smooth="yes"/>
      <point x="164" y="64"/>
      <point x="128" y="132"/>
      <point x="144" y="235" type="curve" smooth="yes"/>
      <point x="152" y="288" type="line" smooth="yes"/>
      <point x="167" y="379"/>
      <point x="219" y="430"/>
      <point x="296" y="430" type="curve" smooth="yes"/>
      <point x="379" y="430"/>
      <point x="414" y="360"/>
    </contour>
  </outline>
</glyph>
<glyph name="Scedilla" format="1">
  <advance width="506"/>
  <unicode hex="015E"/>
  <outline>
    <contour>
      <point x="290" y="-126" type="curve" smooth="yes"/>
      <point x="290" y="-79"/>
      <point x="258" y="-51"/>
      <point x="203" y="-50" type="curve"/>
      <point x="217" y="-10" type="line"/>
      <point x="386" y="-6"/>
      <point x="450" y="89"/>
      <point x="450" y="193" type="curve" smooth="yes"/>
      <point x="450" y="281"/>
      <point x="405" y="333"/>
      <point x="328" y="367" type="curve" smooth="yes"/>
      <point x="257" y="399" type="line" smooth="yes"/>
      <point x="199" y="425"/>
      <point x="177" y="453"/>
      <point x="177" y="498" type="curve" smooth="yes"/>
      <point x="177" y="567"/>
      <point x="224" y="611"/>
      <point x="313" y="611" type="curve" smooth="yes"/>
      <point x="362" y="611"/>
      <point x="408" y="598"/>
      <point x="465" y="571" type="curve"/>
      <point x="495" y="646" type="line"/>
      <point x="434" y="676"/>
      <point x="374" y="690"/>
      <point x="313" y="690" type="curve" smooth="yes"/>
      <point x="153" y="690"/>
      <point x="87" y="600"/>
      <point x="87" y="493" type="curve" smooth="yes"/>
      <point x="87" y="412"/>
      <point x="124" y="360"/>
      <point x="206" y="324" type="curve" smooth="yes"/>
      <point x="278" y="292" type="line" smooth="yes"/>
      <point x="334" y="267"/>
      <point x="359" y="235"/>
      <point x="359" y="186" type="curve" smooth="yes"/>
      <point x="359" y="114"/>
      <point x="307" y="68"/>
      <point x="208" y="68" type="curve" smooth="yes"/>
      <point x="153" y="68"/>
      <point x="102" y="81"/>
      <point x="35" y="113" type="curve"/>
      <point x="5" y="38" type="line"/>
      <point x="58" y="12"/>
      <point x="109" y="-2"/>
      <point x="159" y="-7" type="curve"/>
      <point x="138" y="-67" type="line"/>
      <point x="154" y="-105" type="line"/>
      <point x="163" y="-104"/>
      <point x="171" y="-103"/>
      <point x="179" y="-103" type="curve" smooth="yes"/>
      <point x="211" y="-103"/>
      <point x="222" y="-114"/>
      <point x="222" y="-130" type="curve" smooth="yes"/>
      <point x="222" y="-147"/>
      <point x="207" y="-164"/>
      <point x="167" y="-164" type="curve" smooth="yes"/>
      <point x="149" y="-164"/>
      <point x="125" y="-160"/>
      <point x="103" y="-152" type="curve"/>
      <point x="89" y="-208" type="line"/>
      <point x="116" y="-217"/>
      <point x="140" y="-223"/>
      <point x="169" y="-223" type="curve" smooth="yes"/>
      <point x="251" y="-223"/>
      <point x="290" y="-177"/>
    </contour>
  </outline>
</glyph>
<glyph name="scedilla" format="1">
  <advance width="433"/>
  <unicode hex="015F"/>
  <outline>
    <contour>
      <point x="255" y="-126" type="curve" smooth="yes"/>
      <point x="255" y="-79"/>
      <point x="223" y="-51"/>
      <point x="168" y="-50" type="curve"/>
      <point x="182" y="-10" type="line"/>
      <point x="315" y="-10"/>
      <point x="368" y="65"/>
      <point x="368" y="144" type="curve" smooth="yes"/>
      <point x="368" y="212"/>
      <point x="330" y="252"/>
      <point x="257" y="279" type="curve" smooth="yes"/>
      <point x="208" y="297" type="line" smooth="yes"/>
      <point x="164" y="314"/>
      <point x="148" y="334"/>
      <point x="148" y="364" type="curve" smooth="yes"/>
      <point x="148" y="405"/>
      <point x="175" y="431"/>
      <point x="240" y="431" type="curve" smooth="yes"/>
      <point x="282" y="431"/>
      <point x="324" y="422"/>
      <point x="372" y="399" type="curve"/>
      <point x="398" y="469" type="line"/>
      <point x="345" y="493"/>
      <point x="295" y="505"/>
      <point x="242" y="505" type="curve" smooth="yes"/>
      <point x="116" y="505"/>
      <point x="66" y="437"/>
      <point x="66" y="358" type="curve" smooth="yes"/>
      <point x="66" y="292"/>
      <point x="100" y="251"/>
      <point x="168" y="226" type="curve" smooth="yes"/>
      <point x="216" y="207" type="line" smooth="yes"/>
      <point x="267" y="188"/>
      <point x="286" y="169"/>
      <point x="286" y="135" type="curve" smooth="yes"/>
      <point x="286" y="92"/>
      <point x="254" y="63"/>
      <point x="177" y="63" type="curve" smooth="yes"/>
      <point x="131" y="63"/>
      <point x="86" y="73"/>
      <point x="34" y="96" type="curve"/>
      <point x="8" y="27" type="line"/>
      <point x="48" y="9"/>
      <point x="86" y="-2"/>
      <point x="125" y="-7" type="curve"/>
      <point x="103" y="-67" type="line"/>
      <point x="119" y="-105" type="line"/>
      <point x="128" y="-104"/>
      <point x="136" y="-103"/>
      <point x="144" y="-103" type="curve" smooth="yes"/>
      <point x="176" y="-103"/>
      <point x="187" y="-114"/>
      <point x="187" y="-130" type="curve" smooth="yes"/>
      <point x="187" y="-147"/>
      <point x="172" y="-164"/>
      <point x="132" y="-164" type="curve" smooth="yes"/>
      <point x="114" y="-164"/>
      <point x="90" y="-160"/>
      <point x="68" y="-152" type="curve"/>
      <point x="54" y="-208" type="line"/>
      <point x="81" y="-217"/>
      <point x="105" y="-223"/>
      <point x="134" y="-223" type="curve" smooth="yes"/>
      <point x="216" y="-223"/>
      <point x="255" y="-177"/>
    </contour>
  </outline>
</glyph>
<glyph name="Tbar" format="1">
  <advance width="509"/>
  <unicode hex="0166"/>
  <outline>
    <contour>
      <point x="435" y="294" type="line"/>
      <point x="449" y="369" type="line"/>
      <point x="319" y="369" type="line"/>
      <point x="360" y="598" type="line"/>
      <point x="558" y="598" type="line"/>
      <point x="572" y="680" type="line"/>
      <point x="89" y="680" type="line"/>
      <point x="74" y="598" type="line"/>
      <point x="273" y="598" type="line"/>
      <point x="232" y="369" type="line"/>
      <point x="103" y="369" type="line"/>
      <point x="90" y="294" type="line"/>
      <point x="219" y="294" type="line"/>
      <point x="167" y="0" type="line"/>
      <point x="254" y="0" type="line"/>
      <point x="306" y="294" type="line"/>
    </contour>
  </outline>
</glyph>
<glyph name="tbar" format="1">
  <advance width="400"/>
  <unicode hex="0167"/>
  <outline>
    <contour>
      <point x="338" y="17" type="curve"/>
      <point x="320" y="86" type="line"/>
      <point x="285" y="70"/>
      <point x="254" y="65"/>
      <point x="233" y="65" type="curve" smooth="yes"/>
      <point x="194" y="65"/>
      <point x="171" y="86"/>
      <point x="182" y="148" type="curve" smooth="yes"/>
      <point x="197" y="232" type="line"/>
      <point x="328" y="232" type="line"/>
      <point x="338" y="292" type="line"/>
      <point x="208" y="292" type="line"/>
      <point x="231" y="423" type="line"/>
      <point x="393" y="423" type="line"/>
      <point x="406" y="495" type="line"/>
      <point x="244" y="495" type="line"/>
      <point x="268" y="633" type="line"/>
      <point x="186" y="633" type="line"/>
      <point x="162" y="495" type="line"/>
      <point x="75" y="495" type="line"/>
      <point x="63" y="423" type="line"/>
      <point x="149" y="423" type="line"/>
      <point x="126" y="292" type="line"/>
      <point x="40" y="292" type="line"/>
      <point x="29" y="232" type="line"/>
      <point x="116" y="232" type="line"/>
      <point x="101" y="148" type="line" smooth="yes"/>
      <point x="87" y="66"/>
      <point x="114" y="-10"/>
      <point x="217" y="-10" type="curve" smooth="yes"/>
      <point x="254" y="-10"/>
      <point x="298" y="0"/>
    </contour>
  </outline>
</glyph>
<glyph name="Uogonek" format="1">
  <advance width="648"/>
  <unicode hex="0172"/>
  <outline>
    <contour>
      <point x="384" y="-206" type="curve"/>
      <point x="373" y="-143" type="line"/>
      <point x="353" y="-151"/>
      <point x="334" y="-155"/>
      <point x="318" y="-155" type="curve" smooth="yes"/>
      <point x="296" y="-155"/>
      <point x="286" y="-145"/>
      <point x="286" y="-128" type="curve" smooth="yes"/>
      <point x="286" y="-93"/>
      <point x="321" y="-57"/>
      <point x="449" y="38" type="curve" smooth="yes"/>
      <point x="506" y="81"/>
      <point x="539" y="153"/>
      <point x="555" y="244" type="curve" smooth="yes"/>
      <point x="632" y="680" type="line"/>
      <point x="542" y="680" type="line"/>
      <point x="465" y="244" type="line" smooth="yes"/>
      <point x="446" y="133"/>
      <point x="391" y="70"/>
      <point x="296" y="70" type="curve" smooth="yes"/>
      <point x="194" y="70"/>
      <point x="164" y="144"/>
      <point x="181" y="244" type="curve" smooth="yes"/>
      <point x="258" y="680" type="line"/>
      <point x="168" y="680" type="line"/>
      <point x="91" y="244" type="line" smooth="yes"/>
      <point x="66" y="100"/>
      <point x="136" y="-10"/>
      <point x="293" y="-10" type="curve"/>
      <point x="230" y="-65"/>
      <point x="207" y="-106"/>
      <point x="207" y="-146" type="curve" smooth="yes"/>
      <point x="207" y="-196"/>
      <point x="242" y="-223"/>
      <point x="301" y="-223" type="curve" smooth="yes"/>
      <point x="328" y="-223"/>
      <point x="355" y="-217"/>
    </contour>
  </outline>
</glyph>
<glyph name="uogonek" format="1">
  <advance width="559"/>
  <unicode hex="0173"/>
  <outline>
    <contour>
      <point x="396" y="-206" type="curve"/>
      <point x="385" y="-143" type="line"/>
      <point x="365" y="-151"/>
      <point x="347" y="-155"/>
      <point x="331" y="-155" type="curve" smooth="yes"/>
      <point x="309" y="-155"/>
      <point x="298" y="-145"/>
      <point x="298" y="-128" type="curve" smooth="yes"/>
      <point x="298" y="-101"/>
      <point x="321" y="-72"/>
      <point x="427" y="0" type="curve"/>
      <point x="514" y="495" type="line"/>
      <point x="432" y="495" type="line"/>
      <point x="376" y="177" type="line"/>
      <point x="292" y="86"/>
      <point x="240" y="67"/>
      <point x="203" y="67" type="curve" smooth="yes"/>
      <point x="160" y="67"/>
      <point x="139" y="102"/>
      <point x="152" y="175" type="curve" smooth="yes"/>
      <point x="208" y="495" type="line"/>
      <point x="126" y="495" type="line"/>
      <point x="68" y="167" type="line" smooth="yes"/>
      <point x="49" y="62"/>
      <point x="93" y="-10"/>
      <point x="182" y="-10" type="curve" smooth="yes"/>
      <point x="230" y="-10"/>
      <point x="288" y="9"/>
      <point x="365" y="90" type="curve"/>
      <point x="352" y="15" type="line"/>
      <point x="248" y="-55"/>
      <point x="220" y="-102"/>
      <point x="220" y="-146" type="curve" smooth="yes"/>
      <point x="220" y="-196"/>
      <point x="254" y="-223"/>
      <point x="314" y="-223" type="curve" smooth="yes"/>
      <point x="341" y="-223"/>
      <point x="368" y="-217"/>
    </contour>
  </outline>
</glyph>
<glyph name="florin" format="1">
  <advance width="362"/>
  <unicode hex="0192"/>
  <outline>
    <contour>
      <point x="130" y="-54" type="curve" smooth="yes"/>
      <point x="230" y="321" type="line"/>
      <point x="356" y="321" type="line"/>
      <point x="369" y="393" type="line"/>
      <point x="249" y="393" type="line"/>
      <point x="299" y="581" type="line" smooth="yes"/>
      <point x="317" y="647"/>
      <point x="340" y="675"/>
      <point x="389" y="675" type="curve" smooth="yes"/>
      <point x="408" y="675"/>
      <point x="430" y="671"/>
      <point x="454" y="660" type="curve"/>
      <point x="483" y="729" type="line"/>
      <point x="452" y="743"/>
      <point x="415" y="750"/>
      <point x="383" y="750" type="curve" smooth="yes"/>
      <point x="277" y="750"/>
      <point x="242" y="681"/>
      <point x="216" y="581" type="curve" smooth="yes"/>
      <point x="166" y="393" type="line"/>
      <point x="39" y="393" type="line"/>
      <point x="26" y="321" type="line"/>
      <point x="147" y="321" type="line"/>
      <point x="47" y="-54" type="line" smooth="yes"/>
      <point x="29" y="-120"/>
      <point x="5" y="-148"/>
      <point x="-42" y="-148" type="curve" smooth="yes"/>
      <point x="-61" y="-148"/>
      <point x="-83" y="-144"/>
      <point x="-108" y="-133" type="curve"/>
      <point x="-136" y="-202" type="line"/>
      <point x="-105" y="-216"/>
      <point x="-68" y="-223"/>
      <point x="-36" y="-223" type="curve" smooth="yes"/>
      <point x="68" y="-223"/>
      <point x="103" y="-154"/>
    </contour>
  </outline>
</glyph>
<glyph name="dotlessj" format="1">
  <advance width="259"/>
  <unicode hex="0237"/>
  <outline>
    <contour>
      <point x="-103" y="-223" type="line"/>
      <point x="53" y="-223"/>
      <point x="100" y="-147"/>
      <point x="122" y="-23" type="curve" smooth="yes"/>
      <point x="213" y="495" type="line"/>
      <point x="131" y="495" type="line"/>
      <point x="40" y="-23" type="line" smooth="yes"/>
      <point x="23" y="-119"/>
      <point x="-19" y="-145"/>
      <point x="-90" y="-145" type="curve"/>
    </contour>
  </outline>
</glyph>
<glyph name="circumflex" format="1">
  <advance width="500"/>
  <unicode hex="02C6"/>
  <outline>
    <contour>
      <point x="378" y="579" type="line"/>
      <point x="442" y="579" type="line"/>
      <point x="378" y="740" type="line"/>
      <point x="295" y="740" type="line"/>
      <point x="174" y="579" type="line"/>
      <point x="243" y="579" type="line"/>
      <point x="328" y="674" type="line"/>
    </contour>
  </outline>
</glyph>
<glyph name="caron" format="1">
  <advance width="500"/>
  <unicode hex="02C7"/>
  <outline>
    <contour>
      <point x="471" y="740" type="line"/>
      <point x="401" y="740" type="line"/>
      <point x="317" y="645" type="line"/>
      <point x="266" y="740" type="line"/>
      <point x="202" y="740" type="line"/>
      <point x="267" y="579" type="line"/>
      <point x="349" y="579" type="line"/>
    </contour>
  </outline>
</glyph>
<glyph name="breve" format="1">
  <advance width="500"/>
  <unicode hex="02D8"/>
  <outline>
    <contour>
      <point x="318" y="648" type="curve" smooth="yes"/>
      <point x="280" y="648"/>
      <point x="260" y="669"/>
      <point x="267" y="731" type="curve"/>
      <point x="204" y="731" type="line"/>
      <point x="192" y="626"/>
      <point x="239" y="585"/>
      <point x="315" y="585" type="curve" smooth="yes"/>
      <point x="389" y="585"/>
      <point x="442" y="625"/>
      <point x="466" y="731" type="curve"/>
      <point x="398" y="731" type="line"/>
      <point x="383" y="669"/>
      <point x="357" y="648"/>
    </contour>
  </outline>
</glyph>
<glyph name="dotaccent" format="1">
  <advance width="500"/>
  <unicode hex="02D9"/>
  <outline>
    <contour>
      <point x="361" y="616" type="line"/>
      <point x="376" y="708" type="line"/>
      <point x="284" y="708" type="line"/>
      <point x="269" y="616" type="line"/>
    </contour>
  </outline>
</glyph>
<glyph name="ring" format="1">
  <advance width="500"/>
  <unicode hex="02DA"/>
  <outline>
    <contour>
      <point x="440" y="679" type="line" smooth="yes"/>
      <point x="450" y="743"/>
      <point x="409" y="791"/>
      <point x="337" y="791" type="curve" smooth="yes"/>
      <point x="270" y="791"/>
      <point x="224" y="750"/>
      <point x="214" y="690" type="curve" smooth="yes"/>
      <point x="212" y="675" type="line" smooth="yes"/>
      <point x="201" y="610"/>
      <point x="243" y="563"/>
      <point x="314" y="563" type="curve" smooth="yes"/>
      <point x="381" y="563"/>
      <point x="427" y="604"/>
      <point x="437" y="664" type="curve" smooth="yes"/>
    </contour>
    <contour>
      <point x="381" y="685" type="curve" smooth="yes"/>
      <point x="379" y="670" type="line" smooth="yes"/>
      <point x="373" y="637"/>
      <point x="349" y="618"/>
      <point x="317" y="618" type="curve" smooth="yes"/>
      <point x="283" y="618"/>
      <point x="265" y="639"/>
      <point x="270" y="670" type="curve" smooth="yes"/>
      <point x="273" y="684" type="line" smooth="yes"/>
      <point x="278" y="717"/>
      <point x="303" y="736"/>
      <point x="334" y="736" type="curve" smooth="yes"/>
      <point x="368" y="736"/>
      <point x="386" y="714"/>
    </contour>
  </outline>
</glyph>
<glyph name="ogonek" format="1">
  <advance width="500"/>
  <unicode hex="02DB"/>
  <outline>
    <contour>
      <point x="200" y="-155" type="curve" smooth="yes"/>
      <point x="178" y="-155"/>
      <point x="167" y="-145"/>
      <point x="167" y="-128" type="curve" smooth="yes"/>
      <point x="167" y="-101"/>
      <point x="189" y="-72"/>
      <point x="295" y="0" type="curve"/>
      <point x="263" y="43" type="line"/>
      <point x="124" y="-44"/>
      <point x="89" y="-96"/>
      <point x="89" y="-146" type="curve" smooth="yes"/>
      <point x="89" y="-196"/>
      <point x="123" y="-223"/>
      <point x="183" y="-223" type="curve" smooth="yes"/>
      <point x="210" y="-223"/>
      <point x="237" y="-217"/>
      <point x="265" y="-206" type="curve"/>
      <point x="254" y="-143" type="line"/>
      <point x="234" y="-151"/>
      <point x="216" y="-155"/>
    </contour>
  </outline>
</glyph>
<glyph name="tilde" format="1">
  <advance width="500"/>
  <unicode hex="02DC"/>
  <outline>
    <contour>
      <point x="379" y="588" type="curve" smooth="yes"/>
      <point x="422" y="588"/>
      <point x="461" y="615"/>
      <point x="480" y="725" type="curve"/>
      <point x="417" y="725" type="line"/>
      <point x="406" y="669"/>
      <point x="393" y="656"/>
      <point x="379" y="656" type="curve" smooth="yes"/>
      <point x="345" y="656"/>
      <point x="343" y="738"/>
      <point x="267" y="738" type="curve" smooth="yes"/>
      <point x="224" y="738"/>
      <point x="185" y="710"/>
      <point x="165" y="600" type="curve"/>
      <point x="228" y="600" type="line"/>
      <point x="239" y="656"/>
      <point x="253" y="670"/>
      <point x="267" y="670" type="curve" smooth="yes"/>
      <point x="301" y="670"/>
      <point x="304" y="588"/>
    </contour>
  </outline>
</glyph>
<glyph name="hungarumlaut" format="1">
  <advance width="500"/>
  <unicode hex="02DD"/>
  <outline>
    <contour>
      <point x="275" y="579" type="line"/>
      <point x="380" y="709" type="line"/>
      <point x="314" y="745" type="line"/>
      <point x="203" y="579" type="line"/>
    </contour>
    <contour>
      <point x="413" y="579" type="line"/>
      <point x="518" y="709" type="line"/>
      <point x="452" y="745" type="line"/>
      <point x="341" y="579" type="line"/>
    </contour>
  </outline>
</glyph>
<glyph name="pi" format="1">
  <advance width="561"/>
  <unicode hex="03C0"/>
  <outline>
    <contour>
      <point x="502" y="70" type="line"/>
      <point x="473" y="70" type="line" smooth="yes"/>
      <point x="436" y="70"/>
      <point x="426" y="87"/>
      <point x="432" y="124" type="curve" smooth="yes"/>
      <point x="485" y="423" type="line"/>
      <point x="564" y="423" type="line"/>
      <point x="577" y="495" type="line"/>
      <point x="69" y="495" type="line"/>
      <point x="56" y="423" type="line"/>
      <point x="135" y="423" type="line"/>
      <point x="61" y="0" type="line"/>
      <point x="143" y="0" type="line"/>
      <point x="217" y="423" type="line"/>
      <point x="403" y="423" type="line"/>
      <point x="350" y="125" type="line" smooth="yes"/>
      <point x="337" y="49"/>
      <point x="364" y="-5"/>
      <point x="457" y="-5" type="curve" smooth="yes"/>
      <point x="488" y="-5" type="line"/>
    </contour>
  </outline>
</glyph>
<glyph name="uni1E9E" format="1">
  <advance width="603"/>
  <unicode hex="1E9E"/>
  <outline>
    <contour>
      <point x="543" y="151" type="curve" smooth="yes"/>
      <point x="546" y="167" type="line" smooth="yes"/>
      <point x="565" y="268"/>
      <point x="518" y="329"/>
      <point x="436" y="365" type="curve" smooth="yes"/>
      <point x="408" y="377" type="line"/>
      <point x="542" y="565" type="line"/>
      <point x="552" y="624" type="line"/>
      <point x="510" y="662"/>
      <point x="441" y="690"/>
      <point x="364" y="690" type="curve" smooth="yes"/>
      <point x="238" y="690"/>
      <point x="155" y="623"/>
      <point x="128" y="469" type="curve" smooth="yes"/>
      <point x="45" y="0" type="line"/>
      <point x="132" y="0" type="line"/>
      <point x="215" y="469" type="line" smooth="yes"/>
      <point x="232" y="566"/>
      <point x="283" y="610"/>
      <point x="362" y="610" type="curve" smooth="yes"/>
      <point x="399" y="610"/>
      <point x="434" y="601"/>
      <point x="461" y="585" type="curve"/>
      <point x="323" y="391" type="line"/>
      <point x="312" y="326" type="line"/>
      <point x="394" y="291" type="line" smooth="yes"/>
      <point x="447" y="268"/>
      <point x="469" y="237"/>
      <point x="458" y="176" type="curve" smooth="yes"/>
      <point x="455" y="160" type="line" smooth="yes"/>
      <point x="445" y="104"/>
      <point x="417" y="69"/>
      <point x="350" y="69" type="curve" smooth="yes"/>
      <point x="312" y="69"/>
      <point x="273" y="78"/>
      <point x="229" y="101" type="curve"/>
      <point x="198" y="26" type="line"/>
      <point x="248" y="1"/>
      <point x="301" y="-10"/>
      <point x="349" y="-10" type="curve" smooth="yes"/>
      <point x="464" y="-10"/>
      <point x="524" y="50"/>
    </contour>
  </outline>
</glyph>
<glyph name="endash" format="1">
  <advance width="592"/>
  <unicode hex="2013"/>
  <outline>
    <contour>
      <point x="59" y="267" type="line"/>
      <point x="539" y="267" type="line"/>
      <point x="552" y="339" type="line"/>
      <point x="72" y="339" type="line"/>
    </contour>
  </outline>
</glyph>
<glyph name="emdash" format="1">
  <advance width="792"/>
  <unicode hex="2014"/>
  <outline>
    <contour>
      <point x="59" y="267" type="line"/>
      <point x="739" y="267" type="line"/>
      <point x="752" y="339" type="line"/>
      <point x="72" y="339" type="line"/>
    </contour>
  </outline>
</glyph>
<glyph name="quoteleft" format="1">
  <advance width="192"/>
  <unicode hex="2018"/>
  <outline>
    <contour>
      <point x="69" y="430" type="line"/>
      <point x="151" y="430" type="line"/>
      <point x="169" y="530"/>
      <point x="188" y="578"/>
      <point x="238" y="661" type="curve"/>
      <point x="189" y="690" type="line"/>
      <point x="123" y="606"/>
      <point x="87" y="538"/>
      <point x="72" y="449" type="curve" smooth="yes"/>
    </contour>
  </outline>
</glyph>
<glyph name="quoteright" format="1">
  <advance width="192"/>
  <unicode hex="2019"/>
  <outline>
    <contour>
      <point x="231" y="680" type="line"/>
      <point x="149" y="680" type="line"/>
      <point x="132" y="579"/>
      <point x="113" y="531"/>
      <point x="62" y="448" type="curve"/>
      <point x="111" y="420" type="line"/>
      <point x="177" y="503"/>
      <point x="213" y="572"/>
      <point x="228" y="661" type="curve" smooth="yes"/>
    </contour>
  </outline>
</glyph>
<glyph name="quotesinglbase" format="1">
  <advance width="192"/>
  <unicode hex="201A"/>
  <outline>
    <contour>
      <point x="109" y="91" type="line"/>
      <point x="27" y="91" type="line"/>
      <point x="10" y="-9"/>
      <point x="-9" y="-57"/>
      <point x="-59" y="-139" type="curve"/>
      <point x="-10" y="-168" type="line"/>
      <point x="55" y="-85"/>
      <point x="91" y="-16"/>
      <point x="106" y="72" type="curve" smooth="yes"/>
    </contour>
  </outline>
</glyph>
<glyph name="quotedblleft" format="1">
  <advance width="356"/>
  <unicode hex="201C"/>
  <outline>
    <contour>
      <point x="233" y="430" type="line"/>
      <point x="315" y="430" type="line"/>
      <point x="333" y="530"/>
      <point x="352" y="578"/>
      <point x="402" y="661" type="curve"/>
      <point x="353" y="690" type="line"/>
      <point x="287" y="606"/>
      <point x="251" y="538"/>
      <point x="236" y="449" type="curve" smooth="yes"/>
    </contour>
    <contour>
      <point x="69" y="430" type="line"/>
      <point x="151" y="430" type="line"/>
      <point x="169" y="530"/>
      <point x="188" y="578"/>
      <point x="238" y="661" type="curve"/>
      <point x="189" y="690" type="line"/>
      <point x="123" y="606"/>
      <point x="87" y="538"/>
      <point x="72" y="449" type="curve" smooth="yes"/>
    </contour>
  </outline>
</glyph>
<glyph name="quotedblright" format="1">
  <advance width="356"/>
  <unicode hex="201D"/>
  <outline>
    <contour>
      <point x="231" y="680" type="line"/>
      <point x="149" y="680" type="line"/>
      <point x="132" y="579"/>
      <point x="113" y="531"/>
      <point x="62" y="448" type="curve"/>
      <point x="111" y="420" type="line"/>
      <point x="177" y="503"/>
      <point x="213" y="572"/>
      <point x="228" y="661" type="curve" smooth="yes"/>
    </contour>
    <contour>
      <point x="395" y="680" type="line"/>
      <point x="313" y="680" type="line"/>
      <point x="296" y="579"/>
      <point x="277" y="531"/>
      <point x="226" y="448" type="curve"/>
      <point x="275" y="420" type="line"/>
      <point x="341" y="503"/>
      <point x="377" y="572"/>
      <point x="392" y="661" type="curve" smooth="yes"/>
    </contour>
  </outline>
</glyph>
<glyph name="quotedblbase" format="1">
  <advance width="356"/>
  <unicode hex="201E"/>
  <outline>
    <contour>
      <point x="109" y="91" type="line"/>
      <point x="27" y="91" type="line"/>
      <point x="10" y="-9"/>
      <point x="-8" y="-57"/>
      <point x="-59" y="-139" type="curve"/>
      <point x="-10" y="-168" type="line"/>
      <point x="55" y="-85"/>
      <point x="91" y="-16"/>
      <point x="106" y="72" type="curve" smooth="yes"/>
    </contour>
    <contour>
      <point x="273" y="91" type="line"/>
      <point x="191" y="91" type="line"/>
      <point x="174" y="-9"/>
      <point x="155" y="-57"/>
      <point x="104" y="-139" type="curve"/>
      <point x="154" y="-168" type="line"/>
      <point x="219" y="-85"/>
      <point x="255" y="-16"/>
      <point x="270" y="72" type="curve" smooth="yes"/>
    </contour>
  </outline>
</glyph>
<glyph name="dagger" format="1">
  <advance width="431"/>
  <unicode hex="2020"/>
  <outline>
    <contour>
      <point x="254" y="230" type="line"/>
      <point x="266" y="296" type="line"/>
      <point x="279" y="448" type="line"/>
      <point x="413" y="434" type="line"/>
      <point x="449" y="434" type="line"/>
      <point x="464" y="516" type="line"/>
      <point x="428" y="516" type="line"/>
      <point x="290" y="503" type="line"/>
      <point x="328" y="644" type="line"/>
      <point x="334" y="680" type="line"/>
      <point x="248" y="680" type="line"/>
      <point x="242" y="644" type="line"/>
      <point x="231" y="503" type="line"/>
      <point x="97" y="517" type="line"/>
      <point x="61" y="517" type="line"/>
      <point x="47" y="435" type="line"/>
      <point x="83" y="435" type="line"/>
      <point x="221" y="448" type="line"/>
      <point x="180" y="296" type="line"/>
      <point x="169" y="230" type="line"/>
      <point x="118" y="-143" type="line"/>
      <point x="173" y="-143" type="line"/>
    </contour>
  </outline>
</glyph>
<glyph name="daggerdbl" format="1">
  <advance width="453"/>
  <unicode hex="2021"/>
  <outline>
    <contour>
      <point x="206" y="-107" type="line"/>
      <point x="217" y="33" type="line"/>
      <point x="351" y="20" type="line"/>
      <point x="387" y="20" type="line"/>
      <point x="401" y="102" type="line"/>
      <point x="365" y="102" type="line"/>
      <point x="226" y="88" type="line"/>
      <point x="267" y="240" type="line"/>
      <point x="277" y="296" type="line"/>
      <point x="290" y="448" type="line"/>
      <point x="425" y="434" type="line"/>
      <point x="461" y="434" type="line"/>
      <point x="475" y="516" type="line"/>
      <point x="439" y="516" type="line"/>
      <point x="301" y="503" type="line"/>
      <point x="339" y="644" type="line"/>
      <point x="345" y="680" type="line"/>
      <point x="260" y="680" type="line"/>
      <point x="253" y="644" type="line"/>
      <point x="243" y="503" type="line"/>
      <point x="109" y="517" type="line"/>
      <point x="73" y="517" type="line"/>
      <point x="58" y="435" type="line"/>
      <point x="94" y="435" type="line"/>
      <point x="233" y="448" type="line"/>
      <point x="192" y="296" type="line"/>
      <point x="182" y="240" type="line"/>
      <point x="169" y="88" type="line"/>
      <point x="35" y="102" type="line"/>
      <point x="0" y="102" type="line"/>
      <point x="-15" y="20" type="line"/>
      <point x="20" y="20" type="line"/>
      <point x="158" y="33" type="line"/>
      <point x="120" y="-107" type="line"/>
      <point x="114" y="-143" type="line"/>
      <point x="199" y="-143" type="line"/>
    </contour>
  </outline>
</glyph>
<glyph name="bullet" format="1">
  <advance width="243"/>
  <unicode hex="2022"/>
  <outline>
    <contour>
      <point x="188" y="271" type="line"/>
      <point x="210" y="396" type="line"/>
      <point x="85" y="396" type="line"/>
      <point x="63" y="271" type="line"/>
    </contour>
  </outline>
</glyph>
<glyph name="perthousand" format="1">
  <advance width="1098"/>
  <unicode hex="2030"/>
  <outline>
    <contour>
      <point x="355" y="501" type="curve" smooth="yes"/>
      <point x="361" y="537" type="line" smooth="yes"/>
      <point x="374" y="620"/>
      <point x="331" y="685"/>
      <point x="240" y="685" type="curve" smooth="yes"/>
      <point x="159" y="685"/>
      <point x="108" y="642"/>
      <point x="95" y="558" type="curve" smooth="yes"/>
      <point x="90" y="522" type="line" smooth="yes"/>
      <point x="77" y="440"/>
      <point x="120" y="375"/>
      <point x="210" y="375" type="curve" smooth="yes"/>
      <point x="291" y="375"/>
      <point x="342" y="417"/>
    </contour>
    <contour>
      <point x="590" y="680" type="line"/>
      <point x="127" y="0" type="line"/>
      <point x="201" y="0" type="line"/>
      <point x="665" y="680" type="line"/>
    </contour>
    <contour>
      <point x="291" y="502" type="line" smooth="yes"/>
      <point x="284" y="457"/>
      <point x="255" y="434"/>
      <point x="212" y="434" type="curve" smooth="yes"/>
      <point x="165" y="434"/>
      <point x="146" y="467"/>
      <point x="155" y="521" type="curve" smooth="yes"/>
      <point x="160" y="557" type="line" smooth="yes"/>
      <point x="167" y="603"/>
      <point x="196" y="625"/>
      <point x="238" y="625" type="curve" smooth="yes"/>
      <point x="285" y="625"/>
      <point x="304" y="592"/>
      <point x="296" y="538" type="curve" smooth="yes"/>
    </contour>
    <contour>
      <point x="697" y="121" type="curve" smooth="yes"/>
      <point x="703" y="157" type="line" smooth="yes"/>
      <point x="716" y="240"/>
      <point x="673" y="305"/>
      <point x="582" y="305" type="curve" smooth="yes"/>
      <point x="501" y="305"/>
      <point x="450" y="262"/>
      <point x="437" y="178" type="curve" smooth="yes"/>
      <point x="432" y="142" type="line" smooth="yes"/>
      <point x="419" y="60"/>
      <point x="462" y="-5"/>
      <point x="552" y="-5" type="curve" smooth="yes"/>
      <point x="633" y="-5"/>
      <point x="684" y="37"/>
    </contour>
    <contour>
      <point x="1035" y="121" type="curve" smooth="yes"/>
      <point x="1041" y="157" type="line" smooth="yes"/>
      <point x="1053" y="240"/>
      <point x="1011" y="305"/>
      <point x="920" y="305" type="curve" smooth="yes"/>
      <point x="839" y="305"/>
      <point x="788" y="262"/>
      <point x="775" y="178" type="curve" smooth="yes"/>
      <point x="769" y="142" type="line" smooth="yes"/>
      <point x="757" y="60"/>
      <point x="799" y="-5"/>
      <point x="890" y="-5" type="curve" smooth="yes"/>
      <point x="971" y="-5"/>
      <point x="1022" y="37"/>
    </contour>
    <contour>
      <point x="633" y="122" type="line" smooth="yes"/>
      <point x="626" y="77"/>
      <point x="597" y="54"/>
      <point x="554" y="54" type="curve" smooth="yes"/>
      <point x="507" y="54"/>
      <point x="488" y="87"/>
      <point x="497" y="141" type="curve" smooth="yes"/>
      <point x="502" y="177" type="line" smooth="yes"/>
      <point x="509" y="223"/>
      <point x="538" y="245"/>
      <point x="580" y="245" type="curve" smooth="yes"/>
      <point x="627" y="245"/>
      <point x="646" y="212"/>
      <point x="638" y="158" type="curve" smooth="yes"/>
    </contour>
    <contour>
      <point x="970" y="122" type="line" smooth="yes"/>
      <point x="964" y="77"/>
      <point x="934" y="54"/>
      <point x="892" y="54" type="curve" smooth="yes"/>
      <point x="845" y="54"/>
      <point x="826" y="87"/>
      <point x="834" y="141" type="curve" smooth="yes"/>
      <point x="840" y="177" type="line" smooth="yes"/>
      <point x="846" y="223"/>
      <point x="876" y="245"/>
      <point x="918" y="245" type="curve" smooth="yes"/>
      <point x="964" y="245"/>
      <point x="984" y="212"/>
      <point x="976" y="158" type="curve" smooth="yes"/>
    </contour>
  </outline>
</glyph>
<glyph name="guilsinglleft" format="1">
  <advance width="377"/>
  <unicode hex="2039"/>
  <outline>
    <contour>
      <point x="296" y="98" type="line"/>
      <point x="119" y="241" type="line"/>
      <point x="346" y="382" type="line"/>
      <point x="362" y="478" type="line"/>
      <point x="42" y="274" type="line"/>
      <point x="33" y="221" type="line"/>
      <point x="280" y="14" type="line"/>
    </contour>
  </outline>
</glyph>
<glyph name="guilsinglright" format="1">
  <advance width="377"/>
  <unicode hex="203A"/>
  <outline>
    <contour>
      <point x="334" y="218" type="line"/>
      <point x="343" y="271" type="line"/>
      <point x="96" y="478" type="line"/>
      <point x="80" y="393" type="line"/>
      <point x="256" y="250" type="line"/>
      <point x="30" y="109" type="line"/>
      <point x="14" y="14" type="line"/>
    </contour>
  </outline>
</glyph>
<glyph name="fraction" format="1">
  <advance width="111"/>
  <unicode hex="2044"/>
  <outline>
    <contour>
      <point x="266" y="680" type="line"/>
      <point x="-197" y="0" type="line"/>
      <point x="-123" y="0" type="line"/>
      <point x="341" y="680" type="line"/>
    </contour>
  </outline>
</glyph>
<glyph name="Euro" format="1">
  <advance width="580"/>
  <unicode hex="20AC"/>
  <outline>
    <contour>
      <point x="508" y="24" type="curve"/>
      <point x="487" y="99" type="line"/>
      <point x="423" y="75"/>
      <point x="373" y="70"/>
      <point x="337" y="70" type="curve" smooth="yes"/>
      <point x="253" y="70"/>
      <point x="211" y="122"/>
      <point x="212" y="211" type="curve"/>
      <point x="399" y="211" type="line"/>
      <point x="425" y="280" type="line"/>
      <point x="219" y="280" type="line"/>
      <point x="236" y="380" type="line"/>
      <point x="458" y="380" type="line"/>
      <point x="484" y="448" type="line"/>
      <point x="249" y="448" type="line"/>
      <point x="276" y="552"/>
      <point x="332" y="609"/>
      <point x="423" y="609" type="curve" smooth="yes"/>
      <point x="468" y="609"/>
      <point x="510" y="598"/>
      <point x="565" y="571" type="curve"/>
      <point x="596" y="648" type="line"/>
      <point x="538" y="677"/>
      <point x="481" y="690"/>
      <point x="427" y="690" type="curve" smooth="yes"/>
      <point x="277" y="690"/>
      <point x="195" y="607"/>
      <point x="158" y="448" type="curve"/>
      <point x="71" y="448" type="line"/>
      <point x="59" y="380" type="line"/>
      <point x="146" y="380" type="line"/>
      <point x="129" y="280" type="line"/>
      <point x="41" y="280" type="line"/>
      <point x="29" y="211" type="line"/>
      <point x="122" y="211" type="line"/>
      <point x="120" y="75"/>
      <point x="195" y="-10"/>
      <point x="328" y="-10" type="curve" smooth="yes"/>
      <point x="376" y="-10"/>
      <point x="440" y="-1"/>
    </contour>
  </outline>
</glyph>
